<?xml version="1.0" encoding="UTF-8" standalone="no"?>
<!DOCTYPE svg PUBLIC "-//W3C//DTD SVG 1.1//EN"
 "http://www.w3.org/Graphics/SVG/1.1/DTD/svg11.dtd">
<!-- Generated by graphviz version 2.46.1 (20210222.2046)
 -->
<!-- Title: snakemake_dag Pages: 1 -->
<svg width="1087pt" height="188pt"
 viewBox="0.00 0.00 1087.39 188.00" xmlns="http://www.w3.org/2000/svg" xmlns:xlink="http://www.w3.org/1999/xlink">
<g id="graph0" class="graph" transform="scale(1 1) rotate(0) translate(4 184)">
<title>snakemake_dag</title>
<polygon fill="white" stroke="transparent" points="-4,4 -4,-184 1083.39,-184 1083.39,4 -4,4"/>
<!-- 0 -->
<g id="node1" class="node">
<title>0</title>
<path fill="none" stroke="#d8bc56" stroke-width="2" d="M517.89,-36C517.89,-36 487.89,-36 487.89,-36 481.89,-36 475.89,-30 475.89,-24 475.89,-24 475.89,-12 475.89,-12 475.89,-6 481.89,0 487.89,0 487.89,0 517.89,0 517.89,0 523.89,0 529.89,-6 529.89,-12 529.89,-12 529.89,-24 529.89,-24 529.89,-30 523.89,-36 517.89,-36"/>
<text text-anchor="middle" x="502.89" y="-15.5" font-family="sans" font-size="10.00">all</text>
</g>
<!-- 1 -->
<g id="node2" class="node">
<title>1</title>
<path fill="none" stroke="#88d856" stroke-width="2" d="M90.39,-180C90.39,-180 19.39,-180 19.39,-180 13.39,-180 7.39,-174 7.39,-168 7.39,-168 7.39,-156 7.39,-156 7.39,-150 13.39,-144 19.39,-144 19.39,-144 90.39,-144 90.39,-144 96.39,-144 102.39,-150 102.39,-156 102.39,-156 102.39,-168 102.39,-168 102.39,-174 96.39,-180 90.39,-180"/>
<text text-anchor="middle" x="54.89" y="-165" font-family="sans" font-size="10.00">bowtie2_align</text>
<text text-anchor="middle" x="54.89" y="-154" font-family="sans" font-size="10.00">sample: S71730</text>
</g>
<!-- 1&#45;&gt;0 -->
<g id="edge1" class="edge">
<title>1&#45;&gt;0</title>
<path fill="none" stroke="grey" stroke-width="2" d="M34.04,-143.77C13.38,-124.66 -12.59,-93.67 6.89,-72 37.46,-37.99 355.23,-24.02 465.47,-20.18"/>
<polygon fill="grey" stroke="grey" stroke-width="2" points="465.9,-23.66 475.78,-19.83 465.66,-16.67 465.9,-23.66"/>
</g>
<!-- 6 -->
<g id="node7" class="node">
<title>6</title>
<path fill="none" stroke="#56c1d8" stroke-width="2" d="M81.89,-108C81.89,-108 27.89,-108 27.89,-108 21.89,-108 15.89,-102 15.89,-96 15.89,-96 15.89,-84 15.89,-84 15.89,-78 21.89,-72 27.89,-72 27.89,-72 81.89,-72 81.89,-72 87.89,-72 93.89,-78 93.89,-84 93.89,-84 93.89,-96 93.89,-96 93.89,-102 87.89,-108 81.89,-108"/>
<text text-anchor="middle" x="54.89" y="-87.5" font-family="sans" font-size="10.00">peak_calling</text>
</g>
<!-- 1&#45;&gt;6 -->
<g id="edge16" class="edge">
<title>1&#45;&gt;6</title>
<path fill="none" stroke="grey" stroke-width="2" d="M54.89,-143.7C54.89,-135.98 54.89,-126.71 54.89,-118.11"/>
<polygon fill="grey" stroke="grey" stroke-width="2" points="58.39,-118.1 54.89,-108.1 51.39,-118.1 58.39,-118.1"/>
</g>
<!-- 11 -->
<g id="node12" class="node">
<title>11</title>
<path fill="none" stroke="#d85656" stroke-width="2" d="M171.39,-108C171.39,-108 124.39,-108 124.39,-108 118.39,-108 112.39,-102 112.39,-96 112.39,-96 112.39,-84 112.39,-84 112.39,-78 118.39,-72 124.39,-72 124.39,-72 171.39,-72 171.39,-72 177.39,-72 183.39,-78 183.39,-84 183.39,-84 183.39,-96 183.39,-96 183.39,-102 177.39,-108 171.39,-108"/>
<text text-anchor="middle" x="147.89" y="-87.5" font-family="sans" font-size="10.00">misc_tasks</text>
</g>
<!-- 1&#45;&gt;11 -->
<g id="edge21" class="edge">
<title>1&#45;&gt;11</title>
<path fill="none" stroke="grey" stroke-width="2" d="M77.88,-143.7C89.71,-134.8 104.28,-123.82 117.07,-114.2"/>
<polygon fill="grey" stroke="grey" stroke-width="2" points="119.28,-116.91 125.17,-108.1 115.07,-111.32 119.28,-116.91"/>
</g>
<!-- 2 -->
<g id="node3" class="node">
<title>2</title>
<path fill="none" stroke="#88d856" stroke-width="2" d="M322.89,-180C322.89,-180 234.89,-180 234.89,-180 228.89,-180 222.89,-174 222.89,-168 222.89,-168 222.89,-156 222.89,-156 222.89,-150 228.89,-144 234.89,-144 234.89,-144 322.89,-144 322.89,-144 328.89,-144 334.89,-150 334.89,-156 334.89,-156 334.89,-168 334.89,-168 334.89,-174 328.89,-180 322.89,-180"/>
<text text-anchor="middle" x="278.89" y="-165" font-family="sans" font-size="10.00">bowtie2_align</text>
<text text-anchor="middle" x="278.89" y="-154" font-family="sans" font-size="10.00">sample: S71730_05</text>
</g>
<!-- 2&#45;&gt;0 -->
<g id="edge2" class="edge">
<title>2&#45;&gt;0</title>
<path fill="none" stroke="grey" stroke-width="2" d="M258.03,-143.73C237.74,-124.87 212.47,-94.36 230.89,-72 260.22,-36.4 398.2,-24.4 465.63,-20.61"/>
<polygon fill="grey" stroke="grey" stroke-width="2" points="466.01,-24.1 475.81,-20.07 465.64,-17.11 466.01,-24.1"/>
</g>
<!-- 7 -->
<g id="node8" class="node">
<title>7</title>
<path fill="none" stroke="#56c1d8" stroke-width="2" d="M305.89,-108C305.89,-108 251.89,-108 251.89,-108 245.89,-108 239.89,-102 239.89,-96 239.89,-96 239.89,-84 239.89,-84 239.89,-78 245.89,-72 251.89,-72 251.89,-72 305.89,-72 305.89,-72 311.89,-72 317.89,-78 317.89,-84 317.89,-84 317.89,-96 317.89,-96 317.89,-102 311.89,-108 305.89,-108"/>
<text text-anchor="middle" x="278.89" y="-87.5" font-family="sans" font-size="10.00">peak_calling</text>
</g>
<!-- 2&#45;&gt;7 -->
<g id="edge17" class="edge">
<title>2&#45;&gt;7</title>
<path fill="none" stroke="grey" stroke-width="2" d="M278.89,-143.7C278.89,-135.98 278.89,-126.71 278.89,-118.11"/>
<polygon fill="grey" stroke="grey" stroke-width="2" points="282.39,-118.1 278.89,-108.1 275.39,-118.1 282.39,-118.1"/>
</g>
<!-- 12 -->
<g id="node13" class="node">
<title>12</title>
<path fill="none" stroke="#d85656" stroke-width="2" d="M395.39,-108C395.39,-108 348.39,-108 348.39,-108 342.39,-108 336.39,-102 336.39,-96 336.39,-96 336.39,-84 336.39,-84 336.39,-78 342.39,-72 348.39,-72 348.39,-72 395.39,-72 395.39,-72 401.39,-72 407.39,-78 407.39,-84 407.39,-84 407.39,-96 407.39,-96 407.39,-102 401.39,-108 395.39,-108"/>
<text text-anchor="middle" x="371.89" y="-87.5" font-family="sans" font-size="10.00">misc_tasks</text>
</g>
<!-- 2&#45;&gt;12 -->
<g id="edge22" class="edge">
<title>2&#45;&gt;12</title>
<path fill="none" stroke="grey" stroke-width="2" d="M301.88,-143.7C313.71,-134.8 328.28,-123.82 341.07,-114.2"/>
<polygon fill="grey" stroke="grey" stroke-width="2" points="343.28,-116.91 349.17,-108.1 339.07,-111.32 343.28,-116.91"/>
</g>
<!-- 3 -->
<g id="node4" class="node">
<title>3</title>
<path fill="none" stroke="#88d856" stroke-width="2" d="M546.89,-180C546.89,-180 458.89,-180 458.89,-180 452.89,-180 446.89,-174 446.89,-168 446.89,-168 446.89,-156 446.89,-156 446.89,-150 452.89,-144 458.89,-144 458.89,-144 546.89,-144 546.89,-144 552.89,-144 558.89,-150 558.89,-156 558.89,-156 558.89,-168 558.89,-168 558.89,-174 552.89,-180 546.89,-180"/>
<text text-anchor="middle" x="502.89" y="-165" font-family="sans" font-size="10.00">bowtie2_align</text>
<text text-anchor="middle" x="502.89" y="-154" font-family="sans" font-size="10.00">sample: S71730_02</text>
</g>
<!-- 3&#45;&gt;0 -->
<g id="edge3" class="edge">
<title>3&#45;&gt;0</title>
<path fill="none" stroke="grey" stroke-width="2" d="M481.18,-143.79C471.13,-134.41 460.25,-121.9 454.89,-108 449.14,-93.07 449.14,-86.93 454.89,-72 458.99,-61.36 466.33,-51.53 474.06,-43.3"/>
<polygon fill="grey" stroke="grey" stroke-width="2" points="476.56,-45.75 481.18,-36.21 471.62,-40.78 476.56,-45.75"/>
</g>
<!-- 8 -->
<g id="node9" class="node">
<title>8</title>
<path fill="none" stroke="#56c1d8" stroke-width="2" d="M529.89,-108C529.89,-108 475.89,-108 475.89,-108 469.89,-108 463.89,-102 463.89,-96 463.89,-96 463.89,-84 463.89,-84 463.89,-78 469.89,-72 475.89,-72 475.89,-72 529.89,-72 529.89,-72 535.89,-72 541.89,-78 541.89,-84 541.89,-84 541.89,-96 541.89,-96 541.89,-102 535.89,-108 529.89,-108"/>
<text text-anchor="middle" x="502.89" y="-87.5" font-family="sans" font-size="10.00">peak_calling</text>
</g>
<!-- 3&#45;&gt;8 -->
<g id="edge18" class="edge">
<title>3&#45;&gt;8</title>
<path fill="none" stroke="grey" stroke-width="2" d="M502.89,-143.7C502.89,-135.98 502.89,-126.71 502.89,-118.11"/>
<polygon fill="grey" stroke="grey" stroke-width="2" points="506.39,-118.1 502.89,-108.1 499.39,-118.1 506.39,-118.1"/>
</g>
<!-- 13 -->
<g id="node14" class="node">
<title>13</title>
<path fill="none" stroke="#d85656" stroke-width="2" d="M619.39,-108C619.39,-108 572.39,-108 572.39,-108 566.39,-108 560.39,-102 560.39,-96 560.39,-96 560.39,-84 560.39,-84 560.39,-78 566.39,-72 572.39,-72 572.39,-72 619.39,-72 619.39,-72 625.39,-72 631.39,-78 631.39,-84 631.39,-84 631.39,-96 631.39,-96 631.39,-102 625.39,-108 619.39,-108"/>
<text text-anchor="middle" x="595.89" y="-87.5" font-family="sans" font-size="10.00">misc_tasks</text>
</g>
<!-- 3&#45;&gt;13 -->
<g id="edge23" class="edge">
<title>3&#45;&gt;13</title>
<path fill="none" stroke="grey" stroke-width="2" d="M525.88,-143.7C537.71,-134.8 552.28,-123.82 565.07,-114.2"/>
<polygon fill="grey" stroke="grey" stroke-width="2" points="567.28,-116.91 573.17,-108.1 563.07,-111.32 567.28,-116.91"/>
</g>
<!-- 4 -->
<g id="node5" class="node">
<title>4</title>
<path fill="none" stroke="#88d856" stroke-width="2" d="M778.39,-180C778.39,-180 675.39,-180 675.39,-180 669.39,-180 663.39,-174 663.39,-168 663.39,-168 663.39,-156 663.39,-156 663.39,-150 669.39,-144 675.39,-144 675.39,-144 778.39,-144 778.39,-144 784.39,-144 790.39,-150 790.39,-156 790.39,-156 790.39,-168 790.39,-168 790.39,-174 784.39,-180 778.39,-180"/>
<text text-anchor="middle" x="726.89" y="-165" font-family="sans" font-size="10.00">bowtie2_align</text>
<text text-anchor="middle" x="726.89" y="-154" font-family="sans" font-size="10.00">sample: S71730_05_r1</text>
</g>
<!-- 4&#45;&gt;0 -->
<g id="edge4" class="edge">
<title>4&#45;&gt;0</title>
<path fill="none" stroke="grey" stroke-width="2" d="M711.71,-143.81C691.33,-121.04 655.86,-82.53 639.89,-72 608.75,-51.47 568.48,-37.1 539.67,-28.55"/>
<polygon fill="grey" stroke="grey" stroke-width="2" points="540.57,-25.17 529.99,-25.77 538.63,-31.89 540.57,-25.17"/>
</g>
<!-- 9 -->
<g id="node10" class="node">
<title>9</title>
<path fill="none" stroke="#56c1d8" stroke-width="2" d="M753.89,-108C753.89,-108 699.89,-108 699.89,-108 693.89,-108 687.89,-102 687.89,-96 687.89,-96 687.89,-84 687.89,-84 687.89,-78 693.89,-72 699.89,-72 699.89,-72 753.89,-72 753.89,-72 759.89,-72 765.89,-78 765.89,-84 765.89,-84 765.89,-96 765.89,-96 765.89,-102 759.89,-108 753.89,-108"/>
<text text-anchor="middle" x="726.89" y="-87.5" font-family="sans" font-size="10.00">peak_calling</text>
</g>
<!-- 4&#45;&gt;9 -->
<g id="edge19" class="edge">
<title>4&#45;&gt;9</title>
<path fill="none" stroke="grey" stroke-width="2" d="M726.89,-143.7C726.89,-135.98 726.89,-126.71 726.89,-118.11"/>
<polygon fill="grey" stroke="grey" stroke-width="2" points="730.39,-118.1 726.89,-108.1 723.39,-118.1 730.39,-118.1"/>
</g>
<!-- 14 -->
<g id="node15" class="node">
<title>14</title>
<path fill="none" stroke="#d85656" stroke-width="2" d="M843.39,-108C843.39,-108 796.39,-108 796.39,-108 790.39,-108 784.39,-102 784.39,-96 784.39,-96 784.39,-84 784.39,-84 784.39,-78 790.39,-72 796.39,-72 796.39,-72 843.39,-72 843.39,-72 849.39,-72 855.39,-78 855.39,-84 855.39,-84 855.39,-96 855.39,-96 855.39,-102 849.39,-108 843.39,-108"/>
<text text-anchor="middle" x="819.89" y="-87.5" font-family="sans" font-size="10.00">misc_tasks</text>
</g>
<!-- 4&#45;&gt;14 -->
<g id="edge24" class="edge">
<title>4&#45;&gt;14</title>
<path fill="none" stroke="grey" stroke-width="2" d="M749.88,-143.7C761.71,-134.8 776.28,-123.82 789.07,-114.2"/>
<polygon fill="grey" stroke="grey" stroke-width="2" points="791.28,-116.91 797.17,-108.1 787.07,-111.32 791.28,-116.91"/>
</g>
<!-- 5 -->
<g id="node6" class="node">
<title>5</title>
<path fill="none" stroke="#88d856" stroke-width="2" d="M1002.39,-180C1002.39,-180 899.39,-180 899.39,-180 893.39,-180 887.39,-174 887.39,-168 887.39,-168 887.39,-156 887.39,-156 887.39,-150 893.39,-144 899.39,-144 899.39,-144 1002.39,-144 1002.39,-144 1008.39,-144 1014.39,-150 1014.39,-156 1014.39,-156 1014.39,-168 1014.39,-168 1014.39,-174 1008.39,-180 1002.39,-180"/>
<text text-anchor="middle" x="950.89" y="-165" font-family="sans" font-size="10.00">bowtie2_align</text>
<text text-anchor="middle" x="950.89" y="-154" font-family="sans" font-size="10.00">sample: S71730_02_r1</text>
</g>
<!-- 5&#45;&gt;0 -->
<g id="edge5" class="edge">
<title>5&#45;&gt;0</title>
<path fill="none" stroke="grey" stroke-width="2" d="M935.11,-143.7C912.49,-119.09 872.6,-76.44 863.89,-72 807.72,-43.37 620.63,-27.22 540.18,-21.45"/>
<polygon fill="grey" stroke="grey" stroke-width="2" points="540.24,-17.95 530.02,-20.74 539.75,-24.93 540.24,-17.95"/>
</g>
<!-- 10 -->
<g id="node11" class="node">
<title>10</title>
<path fill="none" stroke="#56c1d8" stroke-width="2" d="M977.89,-108C977.89,-108 923.89,-108 923.89,-108 917.89,-108 911.89,-102 911.89,-96 911.89,-96 911.89,-84 911.89,-84 911.89,-78 917.89,-72 923.89,-72 923.89,-72 977.89,-72 977.89,-72 983.89,-72 989.89,-78 989.89,-84 989.89,-84 989.89,-96 989.89,-96 989.89,-102 983.89,-108 977.89,-108"/>
<text text-anchor="middle" x="950.89" y="-87.5" font-family="sans" font-size="10.00">peak_calling</text>
</g>
<!-- 5&#45;&gt;10 -->
<g id="edge20" class="edge">
<title>5&#45;&gt;10</title>
<path fill="none" stroke="grey" stroke-width="2" d="M950.89,-143.7C950.89,-135.98 950.89,-126.71 950.89,-118.11"/>
<polygon fill="grey" stroke="grey" stroke-width="2" points="954.39,-118.1 950.89,-108.1 947.39,-118.1 954.39,-118.1"/>
</g>
<!-- 15 -->
<g id="node16" class="node">
<title>15</title>
<path fill="none" stroke="#d85656" stroke-width="2" d="M1067.39,-108C1067.39,-108 1020.39,-108 1020.39,-108 1014.39,-108 1008.39,-102 1008.39,-96 1008.39,-96 1008.39,-84 1008.39,-84 1008.39,-78 1014.39,-72 1020.39,-72 1020.39,-72 1067.39,-72 1067.39,-72 1073.39,-72 1079.39,-78 1079.39,-84 1079.39,-84 1079.39,-96 1079.39,-96 1079.39,-102 1073.39,-108 1067.39,-108"/>
<text text-anchor="middle" x="1043.89" y="-87.5" font-family="sans" font-size="10.00">misc_tasks</text>
</g>
<!-- 5&#45;&gt;15 -->
<g id="edge25" class="edge">
<title>5&#45;&gt;15</title>
<path fill="none" stroke="grey" stroke-width="2" d="M973.88,-143.7C985.71,-134.8 1000.28,-123.82 1013.07,-114.2"/>
<polygon fill="grey" stroke="grey" stroke-width="2" points="1015.28,-116.91 1021.17,-108.1 1011.07,-111.32 1015.28,-116.91"/>
</g>
<!-- 6&#45;&gt;0 -->
<g id="edge6" class="edge">
<title>6&#45;&gt;0</title>
<path fill="none" stroke="grey" stroke-width="2" d="M93.98,-74.41C96.98,-73.52 99.97,-72.7 102.89,-72 234.08,-40.44 394.29,-26.37 465.59,-21.34"/>
<polygon fill="grey" stroke="grey" stroke-width="2" points="466.12,-24.81 475.85,-20.63 465.64,-17.82 466.12,-24.81"/>
</g>
<!-- 7&#45;&gt;0 -->
<g id="edge7" class="edge">
<title>7&#45;&gt;0</title>
<path fill="none" stroke="grey" stroke-width="2" d="M318.13,-74.93C321.09,-73.92 324.03,-72.94 326.89,-72 374.5,-56.41 429.91,-40.01 465.65,-29.65"/>
<polygon fill="grey" stroke="grey" stroke-width="2" points="466.99,-32.91 475.63,-26.77 465.05,-26.18 466.99,-32.91"/>
</g>
<!-- 8&#45;&gt;0 -->
<g id="edge8" class="edge">
<title>8&#45;&gt;0</title>
<path fill="none" stroke="grey" stroke-width="2" d="M502.89,-71.7C502.89,-63.98 502.89,-54.71 502.89,-46.11"/>
<polygon fill="grey" stroke="grey" stroke-width="2" points="506.39,-46.1 502.89,-36.1 499.39,-46.1 506.39,-46.1"/>
</g>
<!-- 9&#45;&gt;0 -->
<g id="edge9" class="edge">
<title>9&#45;&gt;0</title>
<path fill="none" stroke="grey" stroke-width="2" d="M687.83,-76.42C683.14,-74.93 678.41,-73.42 673.89,-72 627.76,-57.45 574.51,-41 539.86,-30.34"/>
<polygon fill="grey" stroke="grey" stroke-width="2" points="540.75,-26.96 530.16,-27.36 538.69,-33.65 540.75,-26.96"/>
</g>
<!-- 10&#45;&gt;0 -->
<g id="edge10" class="edge">
<title>10&#45;&gt;0</title>
<path fill="none" stroke="grey" stroke-width="2" d="M911.74,-75.59C907.11,-74.26 902.42,-73.02 897.89,-72 768.21,-42.74 610.68,-27.55 540.16,-21.79"/>
<polygon fill="grey" stroke="grey" stroke-width="2" points="540.25,-18.28 530,-20.97 539.69,-25.26 540.25,-18.28"/>
</g>
<!-- 11&#45;&gt;0 -->
<g id="edge11" class="edge">
<title>11&#45;&gt;0</title>
<path fill="none" stroke="grey" stroke-width="2" d="M183.47,-76.15C188.28,-74.63 193.18,-73.2 197.89,-72 293,-47.73 407.64,-31.11 465.53,-23.58"/>
<polygon fill="grey" stroke="grey" stroke-width="2" points="466.19,-27.03 475.66,-22.28 465.3,-20.08 466.19,-27.03"/>
</g>
<!-- 12&#45;&gt;0 -->
<g id="edge12" class="edge">
<title>12&#45;&gt;0</title>
<path fill="none" stroke="grey" stroke-width="2" d="M403.94,-71.88C422.9,-61.74 446.98,-48.88 466.63,-38.37"/>
<polygon fill="grey" stroke="grey" stroke-width="2" points="468.43,-41.38 475.6,-33.58 465.13,-35.21 468.43,-41.38"/>
</g>
<!-- 13&#45;&gt;0 -->
<g id="edge13" class="edge">
<title>13&#45;&gt;0</title>
<path fill="none" stroke="grey" stroke-width="2" d="M572.9,-71.7C561.08,-62.8 546.5,-51.82 533.71,-42.2"/>
<polygon fill="grey" stroke="grey" stroke-width="2" points="535.71,-39.32 525.62,-36.1 531.5,-44.91 535.71,-39.32"/>
</g>
<!-- 14&#45;&gt;0 -->
<g id="edge14" class="edge">
<title>14&#45;&gt;0</title>
<path fill="none" stroke="grey" stroke-width="2" d="M784.21,-74.9C781.08,-73.85 777.94,-72.87 774.89,-72 692.46,-48.58 593.05,-32.09 540.2,-24.23"/>
<polygon fill="grey" stroke="grey" stroke-width="2" points="540.68,-20.76 530.27,-22.77 539.66,-27.69 540.68,-20.76"/>
</g>
<!-- 15&#45;&gt;0 -->
<g id="edge15" class="edge">
<title>15&#45;&gt;0</title>
<path fill="none" stroke="grey" stroke-width="2" d="M1008.29,-74.61C1005.14,-73.63 1001.98,-72.74 998.89,-72 830.82,-31.97 623.47,-22.14 540.14,-19.76"/>
<polygon fill="grey" stroke="grey" stroke-width="2" points="540,-16.25 529.91,-19.48 539.81,-23.25 540,-16.25"/>
</g>
</g>
</svg>
