<?xml version="1.0" encoding="UTF-8" standalone="no"?>
<!DOCTYPE svg PUBLIC "-//W3C//DTD SVG 1.1//EN"
 "http://www.w3.org/Graphics/SVG/1.1/DTD/svg11.dtd">
<!-- Generated by graphviz version 2.46.1 (20210222.2046)
 -->
<!-- Title: snakemake_dag Pages: 1 -->
<svg width="438pt" height="260pt"
 viewBox="0.00 0.00 438.00 260.00" xmlns="http://www.w3.org/2000/svg" xmlns:xlink="http://www.w3.org/1999/xlink">
<g id="graph0" class="graph" transform="scale(1 1) rotate(0) translate(4 256)">
<title>snakemake_dag</title>
<polygon fill="white" stroke="transparent" points="-4,4 -4,-256 434,-256 434,4 -4,4"/>
<!-- 0 -->
<g id="node1" class="node">
<title>0</title>
<path fill="none" stroke="#d85656" stroke-width="2" d="M217.5,-36C217.5,-36 187.5,-36 187.5,-36 181.5,-36 175.5,-30 175.5,-24 175.5,-24 175.5,-12 175.5,-12 175.5,-6 181.5,0 187.5,0 187.5,0 217.5,0 217.5,0 223.5,0 229.5,-6 229.5,-12 229.5,-12 229.5,-24 229.5,-24 229.5,-30 223.5,-36 217.5,-36"/>
<text text-anchor="middle" x="202.5" y="-15.5" font-family="sans" font-size="10.00">all</text>
</g>
<!-- 1 -->
<g id="node2" class="node">
<title>1</title>
<path fill="none" stroke="#56d88a" stroke-width="2" d="M217.5,-108C217.5,-108 187.5,-108 187.5,-108 181.5,-108 175.5,-102 175.5,-96 175.5,-96 175.5,-84 175.5,-84 175.5,-78 181.5,-72 187.5,-72 187.5,-72 217.5,-72 217.5,-72 223.5,-72 229.5,-78 229.5,-84 229.5,-84 229.5,-96 229.5,-96 229.5,-102 223.5,-108 217.5,-108"/>
<text text-anchor="middle" x="202.5" y="-87.5" font-family="sans" font-size="10.00">mutliqc</text>
</g>
<!-- 1&#45;&gt;0 -->
<g id="edge1" class="edge">
<title>1&#45;&gt;0</title>
<path fill="none" stroke="grey" stroke-width="2" d="M202.5,-71.7C202.5,-63.98 202.5,-54.71 202.5,-46.11"/>
<polygon fill="grey" stroke="grey" stroke-width="2" points="206,-46.1 202.5,-36.1 199,-46.1 206,-46.1"/>
</g>
<!-- 2 -->
<g id="node3" class="node">
<title>2</title>
<path fill="none" stroke="#88d856" stroke-width="2" d="M143,-252C143,-252 12,-252 12,-252 6,-252 0,-246 0,-240 0,-240 0,-228 0,-228 0,-222 6,-216 12,-216 12,-216 143,-216 143,-216 149,-216 155,-222 155,-228 155,-228 155,-240 155,-240 155,-246 149,-252 143,-252"/>
<text text-anchor="middle" x="77.5" y="-237" font-family="sans" font-size="10.00">bowtie2_align</text>
<text text-anchor="middle" x="77.5" y="-226" font-family="sans" font-size="10.00">sample: paired_test_sample</text>
</g>
<!-- 2&#45;&gt;1 -->
<g id="edge2" class="edge">
<title>2&#45;&gt;1</title>
<path fill="none" stroke="grey" stroke-width="2" d="M56.73,-215.75C36.9,-197.16 12.38,-167.15 29.5,-144 60.6,-101.95 124.43,-92.18 165.26,-90.48"/>
<polygon fill="grey" stroke="grey" stroke-width="2" points="165.46,-93.98 175.36,-90.21 165.27,-86.98 165.46,-93.98"/>
</g>
<!-- 4 -->
<g id="node5" class="node">
<title>4</title>
<path fill="none" stroke="#56c1d8" stroke-width="2" d="M104.5,-180C104.5,-180 50.5,-180 50.5,-180 44.5,-180 38.5,-174 38.5,-168 38.5,-168 38.5,-156 38.5,-156 38.5,-150 44.5,-144 50.5,-144 50.5,-144 104.5,-144 104.5,-144 110.5,-144 116.5,-150 116.5,-156 116.5,-156 116.5,-168 116.5,-168 116.5,-174 110.5,-180 104.5,-180"/>
<text text-anchor="middle" x="77.5" y="-159.5" font-family="sans" font-size="10.00">peak_calling</text>
</g>
<!-- 2&#45;&gt;4 -->
<g id="edge8" class="edge">
<title>2&#45;&gt;4</title>
<path fill="none" stroke="grey" stroke-width="2" d="M77.5,-215.7C77.5,-207.98 77.5,-198.71 77.5,-190.11"/>
<polygon fill="grey" stroke="grey" stroke-width="2" points="81,-190.1 77.5,-180.1 74,-190.1 81,-190.1"/>
</g>
<!-- 6 -->
<g id="node7" class="node">
<title>6</title>
<path fill="none" stroke="#d8bc56" stroke-width="2" d="M194,-180C194,-180 147,-180 147,-180 141,-180 135,-174 135,-168 135,-168 135,-156 135,-156 135,-150 141,-144 147,-144 147,-144 194,-144 194,-144 200,-144 206,-150 206,-156 206,-156 206,-168 206,-168 206,-174 200,-180 194,-180"/>
<text text-anchor="middle" x="170.5" y="-159.5" font-family="sans" font-size="10.00">misc_tasks</text>
</g>
<!-- 2&#45;&gt;6 -->
<g id="edge10" class="edge">
<title>2&#45;&gt;6</title>
<path fill="none" stroke="grey" stroke-width="2" d="M100.49,-215.7C112.31,-206.8 126.89,-195.82 139.68,-186.2"/>
<polygon fill="grey" stroke="grey" stroke-width="2" points="141.89,-188.91 147.78,-180.1 137.68,-183.32 141.89,-188.91"/>
</g>
<!-- 3 -->
<g id="node4" class="node">
<title>3</title>
<path fill="none" stroke="#88d856" stroke-width="2" d="M366,-252C366,-252 237,-252 237,-252 231,-252 225,-246 225,-240 225,-240 225,-228 225,-228 225,-222 231,-216 237,-216 237,-216 366,-216 366,-216 372,-216 378,-222 378,-228 378,-228 378,-240 378,-240 378,-246 372,-252 366,-252"/>
<text text-anchor="middle" x="301.5" y="-237" font-family="sans" font-size="10.00">bowtie2_align</text>
<text text-anchor="middle" x="301.5" y="-226" font-family="sans" font-size="10.00">sample: single_test_sample</text>
</g>
<!-- 3&#45;&gt;1 -->
<g id="edge3" class="edge">
<title>3&#45;&gt;1</title>
<path fill="none" stroke="grey" stroke-width="2" d="M284.05,-215.67C274.46,-205.69 262.69,-192.66 253.5,-180 238.88,-159.88 225.04,-135.22 215.47,-116.97"/>
<polygon fill="grey" stroke="grey" stroke-width="2" points="218.57,-115.35 210.88,-108.07 212.35,-118.56 218.57,-115.35"/>
</g>
<!-- 5 -->
<g id="node6" class="node">
<title>5</title>
<path fill="none" stroke="#56c1d8" stroke-width="2" d="M328.5,-180C328.5,-180 274.5,-180 274.5,-180 268.5,-180 262.5,-174 262.5,-168 262.5,-168 262.5,-156 262.5,-156 262.5,-150 268.5,-144 274.5,-144 274.5,-144 328.5,-144 328.5,-144 334.5,-144 340.5,-150 340.5,-156 340.5,-156 340.5,-168 340.5,-168 340.5,-174 334.5,-180 328.5,-180"/>
<text text-anchor="middle" x="301.5" y="-159.5" font-family="sans" font-size="10.00">peak_calling</text>
</g>
<!-- 3&#45;&gt;5 -->
<g id="edge9" class="edge">
<title>3&#45;&gt;5</title>
<path fill="none" stroke="grey" stroke-width="2" d="M301.5,-215.7C301.5,-207.98 301.5,-198.71 301.5,-190.11"/>
<polygon fill="grey" stroke="grey" stroke-width="2" points="305,-190.1 301.5,-180.1 298,-190.1 305,-190.1"/>
</g>
<!-- 7 -->
<g id="node8" class="node">
<title>7</title>
<path fill="none" stroke="#d8bc56" stroke-width="2" d="M418,-180C418,-180 371,-180 371,-180 365,-180 359,-174 359,-168 359,-168 359,-156 359,-156 359,-150 365,-144 371,-144 371,-144 418,-144 418,-144 424,-144 430,-150 430,-156 430,-156 430,-168 430,-168 430,-174 424,-180 418,-180"/>
<text text-anchor="middle" x="394.5" y="-159.5" font-family="sans" font-size="10.00">misc_tasks</text>
</g>
<!-- 3&#45;&gt;7 -->
<g id="edge11" class="edge">
<title>3&#45;&gt;7</title>
<path fill="none" stroke="grey" stroke-width="2" d="M324.49,-215.7C336.31,-206.8 350.89,-195.82 363.68,-186.2"/>
<polygon fill="grey" stroke="grey" stroke-width="2" points="365.89,-188.91 371.78,-180.1 361.68,-183.32 365.89,-188.91"/>
</g>
<!-- 4&#45;&gt;1 -->
<g id="edge4" class="edge">
<title>4&#45;&gt;1</title>
<path fill="none" stroke="grey" stroke-width="2" d="M108.08,-143.88C125.72,-134 148,-121.52 166.48,-111.17"/>
<polygon fill="grey" stroke="grey" stroke-width="2" points="168.2,-114.22 175.22,-106.28 164.78,-108.11 168.2,-114.22"/>
</g>
<!-- 5&#45;&gt;1 -->
<g id="edge5" class="edge">
<title>5&#45;&gt;1</title>
<path fill="none" stroke="grey" stroke-width="2" d="M277.28,-143.88C264.58,-134.89 248.84,-123.76 235.08,-114.03"/>
<polygon fill="grey" stroke="grey" stroke-width="2" points="237,-111.11 226.81,-108.19 232.96,-116.82 237,-111.11"/>
</g>
<!-- 6&#45;&gt;1 -->
<g id="edge6" class="edge">
<title>6&#45;&gt;1</title>
<path fill="none" stroke="grey" stroke-width="2" d="M178.41,-143.7C182.05,-135.73 186.45,-126.1 190.49,-117.26"/>
<polygon fill="grey" stroke="grey" stroke-width="2" points="193.71,-118.65 194.68,-108.1 187.34,-115.74 193.71,-118.65"/>
</g>
<!-- 7&#45;&gt;1 -->
<g id="edge7" class="edge">
<title>7&#45;&gt;1</title>
<path fill="none" stroke="grey" stroke-width="2" d="M358.66,-147.4C355.56,-146.25 352.48,-145.1 349.5,-144 312,-130.16 268.97,-114.69 239.2,-104.06"/>
<polygon fill="grey" stroke="grey" stroke-width="2" points="240.23,-100.71 229.64,-100.65 237.88,-107.3 240.23,-100.71"/>
</g>
</g>
</svg>
