<?xml version="1.0" encoding="UTF-8" standalone="no"?>
<!DOCTYPE svg PUBLIC "-//W3C//DTD SVG 1.1//EN"
 "http://www.w3.org/Graphics/SVG/1.1/DTD/svg11.dtd">
<!-- Generated by graphviz version 2.47.0 (20210327.0129)
 -->
<!-- Title: snakemake_dag Pages: 1 -->
<svg width="1098pt" height="260pt"
 viewBox="0.00 0.00 1098.00 260.00" xmlns="http://www.w3.org/2000/svg" xmlns:xlink="http://www.w3.org/1999/xlink">
<g id="graph0" class="graph" transform="scale(1 1) rotate(0) translate(4 256)">
<title>snakemake_dag</title>
<polygon fill="white" stroke="transparent" points="-4,4 -4,-256 1094,-256 1094,4 -4,4"/>
<!-- 0 -->
<g id="node1" class="node">
<title>0</title>
<path fill="none" stroke="#59d856" stroke-width="2" d="M536.5,-36C536.5,-36 506.5,-36 506.5,-36 500.5,-36 494.5,-30 494.5,-24 494.5,-24 494.5,-12 494.5,-12 494.5,-6 500.5,0 506.5,0 506.5,0 536.5,0 536.5,0 542.5,0 548.5,-6 548.5,-12 548.5,-12 548.5,-24 548.5,-24 548.5,-30 542.5,-36 536.5,-36"/>
<text text-anchor="middle" x="521.5" y="-15.5" font-family="sans" font-size="10.00">all</text>
</g>
<!-- 1 -->
<g id="node2" class="node">
<title>1</title>
<path fill="none" stroke="#d8ac56" stroke-width="2" d="M536.5,-108C536.5,-108 506.5,-108 506.5,-108 500.5,-108 494.5,-102 494.5,-96 494.5,-96 494.5,-84 494.5,-84 494.5,-78 500.5,-72 506.5,-72 506.5,-72 536.5,-72 536.5,-72 542.5,-72 548.5,-78 548.5,-84 548.5,-84 548.5,-96 548.5,-96 548.5,-102 542.5,-108 536.5,-108"/>
<text text-anchor="middle" x="521.5" y="-87.5" font-family="sans" font-size="10.00">mutliqc</text>
</g>
<!-- 1&#45;&gt;0 -->
<g id="edge1" class="edge">
<title>1&#45;&gt;0</title>
<path fill="none" stroke="grey" stroke-width="2" d="M521.5,-71.7C521.5,-63.98 521.5,-54.71 521.5,-46.11"/>
<polygon fill="grey" stroke="grey" stroke-width="2" points="525,-46.1 521.5,-36.1 518,-46.1 525,-46.1"/>
</g>
<!-- 2 -->
<g id="node3" class="node">
<title>2</title>
<path fill="none" stroke="#d85656" stroke-width="2" d="M135,-252C135,-252 64,-252 64,-252 58,-252 52,-246 52,-240 52,-240 52,-228 52,-228 52,-222 58,-216 64,-216 64,-216 135,-216 135,-216 141,-216 147,-222 147,-228 147,-228 147,-240 147,-240 147,-246 141,-252 135,-252"/>
<text text-anchor="middle" x="99.5" y="-237" font-family="sans" font-size="10.00">bowtie2_align</text>
<text text-anchor="middle" x="99.5" y="-226" font-family="sans" font-size="10.00">sample: S71730</text>
</g>
<!-- 2&#45;&gt;1 -->
<g id="edge2" class="edge">
<title>2&#45;&gt;1</title>
<path fill="none" stroke="grey" stroke-width="2" d="M97.81,-215.79C96.86,-195.49 98.77,-162.22 118.5,-144 171.25,-95.29 394.75,-90.53 484.23,-90.63"/>
<polygon fill="grey" stroke="grey" stroke-width="2" points="484.45,-94.13 494.46,-90.66 484.47,-87.13 484.45,-94.13"/>
</g>
<!-- 7 -->
<g id="node8" class="node">
<title>7</title>
<path fill="none" stroke="#56a9d8" stroke-width="2" d="M193.5,-180C193.5,-180 139.5,-180 139.5,-180 133.5,-180 127.5,-174 127.5,-168 127.5,-168 127.5,-156 127.5,-156 127.5,-150 133.5,-144 139.5,-144 139.5,-144 193.5,-144 193.5,-144 199.5,-144 205.5,-150 205.5,-156 205.5,-156 205.5,-168 205.5,-168 205.5,-174 199.5,-180 193.5,-180"/>
<text text-anchor="middle" x="166.5" y="-159.5" font-family="sans" font-size="10.00">peak_calling</text>
</g>
<!-- 2&#45;&gt;7 -->
<g id="edge17" class="edge">
<title>2&#45;&gt;7</title>
<path fill="none" stroke="grey" stroke-width="2" d="M116.06,-215.7C124.18,-207.22 134.09,-196.86 142.97,-187.58"/>
<polygon fill="grey" stroke="grey" stroke-width="2" points="145.74,-189.75 150.13,-180.1 140.69,-184.91 145.74,-189.75"/>
</g>
<!-- 13 -->
<g id="node14" class="node">
<title>13</title>
<path fill="none" stroke="#56d8a9" stroke-width="2" d="M59,-180C59,-180 12,-180 12,-180 6,-180 0,-174 0,-168 0,-168 0,-156 0,-156 0,-150 6,-144 12,-144 12,-144 59,-144 59,-144 65,-144 71,-150 71,-156 71,-156 71,-168 71,-168 71,-174 65,-180 59,-180"/>
<text text-anchor="middle" x="35.5" y="-159.5" font-family="sans" font-size="10.00">misc_tasks</text>
</g>
<!-- 2&#45;&gt;13 -->
<g id="edge27" class="edge">
<title>2&#45;&gt;13</title>
<path fill="none" stroke="grey" stroke-width="2" d="M83.68,-215.7C75.93,-207.22 66.46,-196.86 57.98,-187.58"/>
<polygon fill="grey" stroke="grey" stroke-width="2" points="60.47,-185.12 51.14,-180.1 55.3,-189.85 60.47,-185.12"/>
</g>
<!-- 3 -->
<g id="node4" class="node">
<title>3</title>
<path fill="none" stroke="#d85656" stroke-width="2" d="M367.5,-252C367.5,-252 279.5,-252 279.5,-252 273.5,-252 267.5,-246 267.5,-240 267.5,-240 267.5,-228 267.5,-228 267.5,-222 273.5,-216 279.5,-216 279.5,-216 367.5,-216 367.5,-216 373.5,-216 379.5,-222 379.5,-228 379.5,-228 379.5,-240 379.5,-240 379.5,-246 373.5,-252 367.5,-252"/>
<text text-anchor="middle" x="323.5" y="-237" font-family="sans" font-size="10.00">bowtie2_align</text>
<text text-anchor="middle" x="323.5" y="-226" font-family="sans" font-size="10.00">sample: S71730_05</text>
</g>
<!-- 3&#45;&gt;1 -->
<g id="edge3" class="edge">
<title>3&#45;&gt;1</title>
<path fill="none" stroke="grey" stroke-width="2" d="M328.34,-215.83C334.81,-195.89 348.13,-163.28 370.5,-144 402.88,-116.1 450.88,-102.59 484.03,-96.25"/>
<polygon fill="grey" stroke="grey" stroke-width="2" points="485,-99.64 494.23,-94.44 483.77,-92.74 485,-99.64"/>
</g>
<!-- 9 -->
<g id="node10" class="node">
<title>9</title>
<path fill="none" stroke="#56a9d8" stroke-width="2" d="M455.5,-180C455.5,-180 401.5,-180 401.5,-180 395.5,-180 389.5,-174 389.5,-168 389.5,-168 389.5,-156 389.5,-156 389.5,-150 395.5,-144 401.5,-144 401.5,-144 455.5,-144 455.5,-144 461.5,-144 467.5,-150 467.5,-156 467.5,-156 467.5,-168 467.5,-168 467.5,-174 461.5,-180 455.5,-180"/>
<text text-anchor="middle" x="428.5" y="-159.5" font-family="sans" font-size="10.00">peak_calling</text>
</g>
<!-- 3&#45;&gt;9 -->
<g id="edge19" class="edge">
<title>3&#45;&gt;9</title>
<path fill="none" stroke="grey" stroke-width="2" d="M349.19,-215.88C362.79,-206.81 379.67,-195.55 394.36,-185.76"/>
<polygon fill="grey" stroke="grey" stroke-width="2" points="396.34,-188.65 402.72,-180.19 392.45,-182.82 396.34,-188.65"/>
</g>
<!-- 14 -->
<g id="node15" class="node">
<title>14</title>
<path fill="none" stroke="#56d8a9" stroke-width="2" d="M283,-180C283,-180 236,-180 236,-180 230,-180 224,-174 224,-168 224,-168 224,-156 224,-156 224,-150 230,-144 236,-144 236,-144 283,-144 283,-144 289,-144 295,-150 295,-156 295,-156 295,-168 295,-168 295,-174 289,-180 283,-180"/>
<text text-anchor="middle" x="259.5" y="-159.5" font-family="sans" font-size="10.00">misc_tasks</text>
</g>
<!-- 3&#45;&gt;14 -->
<g id="edge28" class="edge">
<title>3&#45;&gt;14</title>
<path fill="none" stroke="grey" stroke-width="2" d="M307.68,-215.7C299.93,-207.22 290.46,-196.86 281.98,-187.58"/>
<polygon fill="grey" stroke="grey" stroke-width="2" points="284.47,-185.12 275.14,-180.1 279.3,-189.85 284.47,-185.12"/>
</g>
<!-- 4 -->
<g id="node5" class="node">
<title>4</title>
<path fill="none" stroke="#d85656" stroke-width="2" d="M553.5,-252C553.5,-252 465.5,-252 465.5,-252 459.5,-252 453.5,-246 453.5,-240 453.5,-240 453.5,-228 453.5,-228 453.5,-222 459.5,-216 465.5,-216 465.5,-216 553.5,-216 553.5,-216 559.5,-216 565.5,-222 565.5,-228 565.5,-228 565.5,-240 565.5,-240 565.5,-246 559.5,-252 553.5,-252"/>
<text text-anchor="middle" x="509.5" y="-237" font-family="sans" font-size="10.00">bowtie2_align</text>
<text text-anchor="middle" x="509.5" y="-226" font-family="sans" font-size="10.00">sample: S71730_02</text>
</g>
<!-- 4&#45;&gt;1 -->
<g id="edge4" class="edge">
<title>4&#45;&gt;1</title>
<path fill="none" stroke="grey" stroke-width="2" d="M453.32,-224.63C426.52,-217.51 396.81,-204.34 380.5,-180 371.59,-166.71 371.39,-157.15 380.5,-144 403.67,-110.53 450.79,-98.17 484.17,-93.62"/>
<polygon fill="grey" stroke="grey" stroke-width="2" points="484.96,-97.05 494.48,-92.4 484.14,-90.1 484.96,-97.05"/>
</g>
<!-- 10 -->
<g id="node11" class="node">
<title>10</title>
<path fill="none" stroke="#56a9d8" stroke-width="2" d="M641.5,-180C641.5,-180 587.5,-180 587.5,-180 581.5,-180 575.5,-174 575.5,-168 575.5,-168 575.5,-156 575.5,-156 575.5,-150 581.5,-144 587.5,-144 587.5,-144 641.5,-144 641.5,-144 647.5,-144 653.5,-150 653.5,-156 653.5,-156 653.5,-168 653.5,-168 653.5,-174 647.5,-180 641.5,-180"/>
<text text-anchor="middle" x="614.5" y="-159.5" font-family="sans" font-size="10.00">peak_calling</text>
</g>
<!-- 4&#45;&gt;10 -->
<g id="edge21" class="edge">
<title>4&#45;&gt;10</title>
<path fill="none" stroke="grey" stroke-width="2" d="M535.19,-215.88C548.79,-206.81 565.67,-195.55 580.36,-185.76"/>
<polygon fill="grey" stroke="grey" stroke-width="2" points="582.34,-188.65 588.72,-180.19 578.45,-182.82 582.34,-188.65"/>
</g>
<!-- 15 -->
<g id="node16" class="node">
<title>15</title>
<path fill="none" stroke="#56d8a9" stroke-width="2" d="M545,-180C545,-180 498,-180 498,-180 492,-180 486,-174 486,-168 486,-168 486,-156 486,-156 486,-150 492,-144 498,-144 498,-144 545,-144 545,-144 551,-144 557,-150 557,-156 557,-156 557,-168 557,-168 557,-174 551,-180 545,-180"/>
<text text-anchor="middle" x="521.5" y="-159.5" font-family="sans" font-size="10.00">misc_tasks</text>
</g>
<!-- 4&#45;&gt;15 -->
<g id="edge29" class="edge">
<title>4&#45;&gt;15</title>
<path fill="none" stroke="grey" stroke-width="2" d="M512.47,-215.7C513.79,-207.98 515.38,-198.71 516.85,-190.11"/>
<polygon fill="grey" stroke="grey" stroke-width="2" points="520.33,-190.55 518.57,-180.1 513.43,-189.37 520.33,-190.55"/>
</g>
<!-- 5 -->
<g id="node6" class="node">
<title>5</title>
<path fill="none" stroke="#d85656" stroke-width="2" d="M829,-252C829,-252 726,-252 726,-252 720,-252 714,-246 714,-240 714,-240 714,-228 714,-228 714,-222 720,-216 726,-216 726,-216 829,-216 829,-216 835,-216 841,-222 841,-228 841,-228 841,-240 841,-240 841,-246 835,-252 829,-252"/>
<text text-anchor="middle" x="777.5" y="-237" font-family="sans" font-size="10.00">bowtie2_align</text>
<text text-anchor="middle" x="777.5" y="-226" font-family="sans" font-size="10.00">sample: S71730_05_r1</text>
</g>
<!-- 5&#45;&gt;1 -->
<g id="edge5" class="edge">
<title>5&#45;&gt;1</title>
<path fill="none" stroke="grey" stroke-width="2" d="M778.92,-215.72C779.55,-195.68 777.29,-162.97 758.5,-144 730.93,-116.16 618.49,-100.81 558.93,-94.49"/>
<polygon fill="grey" stroke="grey" stroke-width="2" points="559.11,-90.99 548.81,-93.45 558.4,-97.95 559.11,-90.99"/>
</g>
<!-- 11 -->
<g id="node12" class="node">
<title>11</title>
<path fill="none" stroke="#56a9d8" stroke-width="2" d="M737.5,-180C737.5,-180 683.5,-180 683.5,-180 677.5,-180 671.5,-174 671.5,-168 671.5,-168 671.5,-156 671.5,-156 671.5,-150 677.5,-144 683.5,-144 683.5,-144 737.5,-144 737.5,-144 743.5,-144 749.5,-150 749.5,-156 749.5,-156 749.5,-168 749.5,-168 749.5,-174 743.5,-180 737.5,-180"/>
<text text-anchor="middle" x="710.5" y="-159.5" font-family="sans" font-size="10.00">peak_calling</text>
</g>
<!-- 5&#45;&gt;11 -->
<g id="edge23" class="edge">
<title>5&#45;&gt;11</title>
<path fill="none" stroke="grey" stroke-width="2" d="M760.94,-215.7C752.82,-207.22 742.91,-196.86 734.03,-187.58"/>
<polygon fill="grey" stroke="grey" stroke-width="2" points="736.31,-184.91 726.87,-180.1 731.26,-189.75 736.31,-184.91"/>
</g>
<!-- 16 -->
<g id="node17" class="node">
<title>16</title>
<path fill="none" stroke="#56d8a9" stroke-width="2" d="M961,-180C961,-180 914,-180 914,-180 908,-180 902,-174 902,-168 902,-168 902,-156 902,-156 902,-150 908,-144 914,-144 914,-144 961,-144 961,-144 967,-144 973,-150 973,-156 973,-156 973,-168 973,-168 973,-174 967,-180 961,-180"/>
<text text-anchor="middle" x="937.5" y="-159.5" font-family="sans" font-size="10.00">misc_tasks</text>
</g>
<!-- 5&#45;&gt;16 -->
<g id="edge30" class="edge">
<title>5&#45;&gt;16</title>
<path fill="none" stroke="grey" stroke-width="2" d="M816.64,-215.88C839.59,-205.84 868.67,-193.11 892.56,-182.66"/>
<polygon fill="grey" stroke="grey" stroke-width="2" points="894.01,-185.85 901.77,-178.63 891.21,-179.43 894.01,-185.85"/>
</g>
<!-- 6 -->
<g id="node7" class="node">
<title>6</title>
<path fill="none" stroke="#d85656" stroke-width="2" d="M1078,-252C1078,-252 975,-252 975,-252 969,-252 963,-246 963,-240 963,-240 963,-228 963,-228 963,-222 969,-216 975,-216 975,-216 1078,-216 1078,-216 1084,-216 1090,-222 1090,-228 1090,-228 1090,-240 1090,-240 1090,-246 1084,-252 1078,-252"/>
<text text-anchor="middle" x="1026.5" y="-237" font-family="sans" font-size="10.00">bowtie2_align</text>
<text text-anchor="middle" x="1026.5" y="-226" font-family="sans" font-size="10.00">sample: S71730_02_r1</text>
</g>
<!-- 6&#45;&gt;1 -->
<g id="edge6" class="edge">
<title>6&#45;&gt;1</title>
<path fill="none" stroke="grey" stroke-width="2" d="M1046.08,-215.97C1065.87,-196.76 1090.94,-165.4 1071.5,-144 1037.03,-106.05 676.53,-94.52 558.6,-91.75"/>
<polygon fill="grey" stroke="grey" stroke-width="2" points="558.68,-88.25 548.6,-91.52 558.52,-95.25 558.68,-88.25"/>
</g>
<!-- 12 -->
<g id="node13" class="node">
<title>12</title>
<path fill="none" stroke="#56a9d8" stroke-width="2" d="M871.5,-180C871.5,-180 817.5,-180 817.5,-180 811.5,-180 805.5,-174 805.5,-168 805.5,-168 805.5,-156 805.5,-156 805.5,-150 811.5,-144 817.5,-144 817.5,-144 871.5,-144 871.5,-144 877.5,-144 883.5,-150 883.5,-156 883.5,-156 883.5,-168 883.5,-168 883.5,-174 877.5,-180 871.5,-180"/>
<text text-anchor="middle" x="844.5" y="-159.5" font-family="sans" font-size="10.00">peak_calling</text>
</g>
<!-- 6&#45;&gt;12 -->
<g id="edge25" class="edge">
<title>6&#45;&gt;12</title>
<path fill="none" stroke="grey" stroke-width="2" d="M981.98,-215.88C955.05,-205.52 920.71,-192.31 893.09,-181.69"/>
<polygon fill="grey" stroke="grey" stroke-width="2" points="894.21,-178.37 883.62,-178.05 891.7,-184.9 894.21,-178.37"/>
</g>
<!-- 17 -->
<g id="node18" class="node">
<title>17</title>
<path fill="none" stroke="#56d8a9" stroke-width="2" d="M1050,-180C1050,-180 1003,-180 1003,-180 997,-180 991,-174 991,-168 991,-168 991,-156 991,-156 991,-150 997,-144 1003,-144 1003,-144 1050,-144 1050,-144 1056,-144 1062,-150 1062,-156 1062,-156 1062,-168 1062,-168 1062,-174 1056,-180 1050,-180"/>
<text text-anchor="middle" x="1026.5" y="-159.5" font-family="sans" font-size="10.00">misc_tasks</text>
</g>
<!-- 6&#45;&gt;17 -->
<g id="edge31" class="edge">
<title>6&#45;&gt;17</title>
<path fill="none" stroke="grey" stroke-width="2" d="M1026.5,-215.7C1026.5,-207.98 1026.5,-198.71 1026.5,-190.11"/>
<polygon fill="grey" stroke="grey" stroke-width="2" points="1030,-190.1 1026.5,-180.1 1023,-190.1 1030,-190.1"/>
</g>
<!-- 7&#45;&gt;1 -->
<g id="edge7" class="edge">
<title>7&#45;&gt;1</title>
<path fill="none" stroke="grey" stroke-width="2" d="M205.62,-146.53C208.61,-145.62 211.59,-144.76 214.5,-144 310.32,-118.95 426.12,-102.62 484.31,-95.35"/>
<polygon fill="grey" stroke="grey" stroke-width="2" points="484.98,-98.8 494.48,-94.1 484.13,-91.85 484.98,-98.8"/>
</g>
<!-- 8 -->
<g id="node9" class="node">
<title>8</title>
<path fill="none" stroke="#afd856" stroke-width="2" d="M655,-252C655,-252 596,-252 596,-252 590,-252 584,-246 584,-240 584,-240 584,-228 584,-228 584,-222 590,-216 596,-216 596,-216 655,-216 655,-216 661,-216 667,-222 667,-228 667,-228 667,-240 667,-240 667,-246 661,-252 655,-252"/>
<text text-anchor="middle" x="625.5" y="-231.5" font-family="sans" font-size="10.00">install_homer</text>
</g>
<!-- 8&#45;&gt;7 -->
<g id="edge18" class="edge">
<title>8&#45;&gt;7</title>
<path fill="none" stroke="grey" stroke-width="2" d="M583.96,-218.32C580.78,-217.45 577.6,-216.66 574.5,-216 420.48,-183.06 373.35,-213.78 215.62,-179.91"/>
<polygon fill="grey" stroke="grey" stroke-width="2" points="216.09,-176.43 205.57,-177.7 214.58,-183.27 216.09,-176.43"/>
</g>
<!-- 8&#45;&gt;9 -->
<g id="edge20" class="edge">
<title>8&#45;&gt;9</title>
<path fill="none" stroke="grey" stroke-width="2" d="M583.72,-218.15C552.61,-207.1 510.03,-191.97 477.34,-180.36"/>
<polygon fill="grey" stroke="grey" stroke-width="2" points="478.13,-176.92 467.54,-176.87 475.79,-183.52 478.13,-176.92"/>
</g>
<!-- 8&#45;&gt;10 -->
<g id="edge22" class="edge">
<title>8&#45;&gt;10</title>
<path fill="none" stroke="grey" stroke-width="2" d="M622.78,-215.7C621.57,-207.98 620.11,-198.71 618.76,-190.11"/>
<polygon fill="grey" stroke="grey" stroke-width="2" points="622.2,-189.44 617.19,-180.1 615.28,-190.53 622.2,-189.44"/>
</g>
<!-- 8&#45;&gt;11 -->
<g id="edge24" class="edge">
<title>8&#45;&gt;11</title>
<path fill="none" stroke="grey" stroke-width="2" d="M646.51,-215.7C657.22,-206.88 670.39,-196.03 682,-186.47"/>
<polygon fill="grey" stroke="grey" stroke-width="2" points="684.24,-189.16 689.73,-180.1 679.79,-183.76 684.24,-189.16"/>
</g>
<!-- 8&#45;&gt;12 -->
<g id="edge26" class="edge">
<title>8&#45;&gt;12</title>
<path fill="none" stroke="grey" stroke-width="2" d="M667.21,-219.67C703.66,-208.02 756.65,-191.08 795.19,-178.76"/>
<polygon fill="grey" stroke="grey" stroke-width="2" points="796.7,-181.95 805.16,-175.58 794.57,-175.29 796.7,-181.95"/>
</g>
<!-- 9&#45;&gt;1 -->
<g id="edge8" class="edge">
<title>9&#45;&gt;1</title>
<path fill="none" stroke="grey" stroke-width="2" d="M451.49,-143.7C463.31,-134.8 477.89,-123.82 490.68,-114.2"/>
<polygon fill="grey" stroke="grey" stroke-width="2" points="492.89,-116.91 498.78,-108.1 488.68,-111.32 492.89,-116.91"/>
</g>
<!-- 10&#45;&gt;1 -->
<g id="edge9" class="edge">
<title>10&#45;&gt;1</title>
<path fill="none" stroke="grey" stroke-width="2" d="M591.51,-143.7C579.69,-134.8 565.11,-123.82 552.32,-114.2"/>
<polygon fill="grey" stroke="grey" stroke-width="2" points="554.32,-111.32 544.22,-108.1 550.11,-116.91 554.32,-111.32"/>
</g>
<!-- 11&#45;&gt;1 -->
<g id="edge10" class="edge">
<title>11&#45;&gt;1</title>
<path fill="none" stroke="grey" stroke-width="2" d="M671.34,-146.5C638.12,-134.19 590.82,-116.67 558.29,-104.63"/>
<polygon fill="grey" stroke="grey" stroke-width="2" points="559.3,-101.27 548.71,-101.08 556.87,-107.83 559.3,-101.27"/>
</g>
<!-- 12&#45;&gt;1 -->
<g id="edge11" class="edge">
<title>12&#45;&gt;1</title>
<path fill="none" stroke="grey" stroke-width="2" d="M805.29,-147.86C800.66,-146.48 795.99,-145.16 791.5,-144 709.27,-122.82 611.06,-105.5 558.71,-96.89"/>
<polygon fill="grey" stroke="grey" stroke-width="2" points="558.99,-93.39 548.56,-95.24 557.87,-100.3 558.99,-93.39"/>
</g>
<!-- 13&#45;&gt;1 -->
<g id="edge12" class="edge">
<title>13&#45;&gt;1</title>
<path fill="none" stroke="grey" stroke-width="2" d="M71.02,-147.92C75.84,-146.44 80.76,-145.08 85.5,-144 230.87,-110.83 408.56,-97.41 484.37,-92.92"/>
<polygon fill="grey" stroke="grey" stroke-width="2" points="484.59,-96.41 494.38,-92.35 484.19,-89.43 484.59,-96.41"/>
</g>
<!-- 14&#45;&gt;1 -->
<g id="edge13" class="edge">
<title>14&#45;&gt;1</title>
<path fill="none" stroke="grey" stroke-width="2" d="M295.16,-148.47C299.96,-146.91 304.84,-145.37 309.5,-144 370.19,-126.13 441.76,-109.05 484.29,-99.32"/>
<polygon fill="grey" stroke="grey" stroke-width="2" points="485.23,-102.7 494.2,-97.06 483.67,-95.87 485.23,-102.7"/>
</g>
<!-- 15&#45;&gt;1 -->
<g id="edge14" class="edge">
<title>15&#45;&gt;1</title>
<path fill="none" stroke="grey" stroke-width="2" d="M521.5,-143.7C521.5,-135.98 521.5,-126.71 521.5,-118.11"/>
<polygon fill="grey" stroke="grey" stroke-width="2" points="525,-118.1 521.5,-108.1 518,-118.1 525,-118.1"/>
</g>
<!-- 16&#45;&gt;1 -->
<g id="edge15" class="edge">
<title>16&#45;&gt;1</title>
<path fill="none" stroke="grey" stroke-width="2" d="M901.87,-146.73C898.73,-145.72 895.57,-144.79 892.5,-144 772.87,-113.26 626.64,-98.96 559.06,-93.63"/>
<polygon fill="grey" stroke="grey" stroke-width="2" points="559.14,-90.13 548.9,-92.85 558.6,-97.11 559.14,-90.13"/>
</g>
<!-- 17&#45;&gt;1 -->
<g id="edge16" class="edge">
<title>17&#45;&gt;1</title>
<path fill="none" stroke="grey" stroke-width="2" d="M990.72,-146.32C987.96,-145.46 985.2,-144.67 982.5,-144 828.41,-106.03 638.51,-95.12 559.14,-92.1"/>
<polygon fill="grey" stroke="grey" stroke-width="2" points="558.8,-88.58 548.69,-91.72 558.55,-95.58 558.8,-88.58"/>
</g>
</g>
</svg>
