<?xml version="1.0" encoding="UTF-8" standalone="no"?>
<!DOCTYPE svg PUBLIC "-//W3C//DTD SVG 1.1//EN"
 "http://www.w3.org/Graphics/SVG/1.1/DTD/svg11.dtd">
<!-- Generated by graphviz version 2.47.0 (20210327.0129)
 -->
<!-- Title: snakemake_dag Pages: 1 -->
<svg width="450pt" height="260pt"
 viewBox="0.00 0.00 450.00 260.00" xmlns="http://www.w3.org/2000/svg" xmlns:xlink="http://www.w3.org/1999/xlink">
<g id="graph0" class="graph" transform="scale(1 1) rotate(0) translate(4 256)">
<title>snakemake_dag</title>
<polygon fill="white" stroke="transparent" points="-4,4 -4,-256 446,-256 446,4 -4,4"/>
<!-- 0 -->
<g id="node1" class="node">
<title>0</title>
<path fill="none" stroke="#56a9d8" stroke-width="2" d="M242.5,-36C242.5,-36 212.5,-36 212.5,-36 206.5,-36 200.5,-30 200.5,-24 200.5,-24 200.5,-12 200.5,-12 200.5,-6 206.5,0 212.5,0 212.5,0 242.5,0 242.5,0 248.5,0 254.5,-6 254.5,-12 254.5,-12 254.5,-24 254.5,-24 254.5,-30 248.5,-36 242.5,-36"/>
<text text-anchor="middle" x="227.5" y="-15.5" font-family="sans" font-size="10.00">all</text>
</g>
<!-- 1 -->
<g id="node2" class="node">
<title>1</title>
<path fill="none" stroke="#afd856" stroke-width="2" d="M242.5,-108C242.5,-108 212.5,-108 212.5,-108 206.5,-108 200.5,-102 200.5,-96 200.5,-96 200.5,-84 200.5,-84 200.5,-78 206.5,-72 212.5,-72 212.5,-72 242.5,-72 242.5,-72 248.5,-72 254.5,-78 254.5,-84 254.5,-84 254.5,-96 254.5,-96 254.5,-102 248.5,-108 242.5,-108"/>
<text text-anchor="middle" x="227.5" y="-87.5" font-family="sans" font-size="10.00">mutliqc</text>
</g>
<!-- 1&#45;&gt;0 -->
<g id="edge1" class="edge">
<title>1&#45;&gt;0</title>
<path fill="none" stroke="grey" stroke-width="2" d="M227.5,-71.7C227.5,-63.98 227.5,-54.71 227.5,-46.11"/>
<polygon fill="grey" stroke="grey" stroke-width="2" points="231,-46.1 227.5,-36.1 224,-46.1 231,-46.1"/>
</g>
<!-- 2 -->
<g id="node3" class="node">
<title>2</title>
<path fill="none" stroke="#59d856" stroke-width="2" d="M143,-252C143,-252 12,-252 12,-252 6,-252 0,-246 0,-240 0,-240 0,-228 0,-228 0,-222 6,-216 12,-216 12,-216 143,-216 143,-216 149,-216 155,-222 155,-228 155,-228 155,-240 155,-240 155,-246 149,-252 143,-252"/>
<text text-anchor="middle" x="77.5" y="-237" font-family="sans" font-size="10.00">bowtie2_align</text>
<text text-anchor="middle" x="77.5" y="-226" font-family="sans" font-size="10.00">sample: paired_test_sample</text>
</g>
<!-- 2&#45;&gt;1 -->
<g id="edge2" class="edge">
<title>2&#45;&gt;1</title>
<path fill="none" stroke="grey" stroke-width="2" d="M61.1,-215.92C44.92,-196.95 24.83,-166.08 41.5,-144 59.39,-120.29 141.39,-104.04 190.34,-96.26"/>
<polygon fill="grey" stroke="grey" stroke-width="2" points="190.9,-99.72 200.25,-94.73 189.83,-92.8 190.9,-99.72"/>
</g>
<!-- 4 -->
<g id="node5" class="node">
<title>4</title>
<path fill="none" stroke="#56d8a9" stroke-width="2" d="M206.5,-180C206.5,-180 152.5,-180 152.5,-180 146.5,-180 140.5,-174 140.5,-168 140.5,-168 140.5,-156 140.5,-156 140.5,-150 146.5,-144 152.5,-144 152.5,-144 206.5,-144 206.5,-144 212.5,-144 218.5,-150 218.5,-156 218.5,-156 218.5,-168 218.5,-168 218.5,-174 212.5,-180 206.5,-180"/>
<text text-anchor="middle" x="179.5" y="-159.5" font-family="sans" font-size="10.00">peak_calling</text>
</g>
<!-- 2&#45;&gt;4 -->
<g id="edge8" class="edge">
<title>2&#45;&gt;4</title>
<path fill="none" stroke="grey" stroke-width="2" d="M102.45,-215.88C115.54,-206.89 131.76,-195.76 145.94,-186.03"/>
<polygon fill="grey" stroke="grey" stroke-width="2" points="148.19,-188.73 154.45,-180.19 144.23,-182.96 148.19,-188.73"/>
</g>
<!-- 7 -->
<g id="node8" class="node">
<title>7</title>
<path fill="none" stroke="#d8ac56" stroke-width="2" d="M110,-180C110,-180 63,-180 63,-180 57,-180 51,-174 51,-168 51,-168 51,-156 51,-156 51,-150 57,-144 63,-144 63,-144 110,-144 110,-144 116,-144 122,-150 122,-156 122,-156 122,-168 122,-168 122,-174 116,-180 110,-180"/>
<text text-anchor="middle" x="86.5" y="-159.5" font-family="sans" font-size="10.00">misc_tasks</text>
</g>
<!-- 2&#45;&gt;7 -->
<g id="edge12" class="edge">
<title>2&#45;&gt;7</title>
<path fill="none" stroke="grey" stroke-width="2" d="M79.72,-215.7C80.72,-207.98 81.91,-198.71 83.01,-190.11"/>
<polygon fill="grey" stroke="grey" stroke-width="2" points="86.5,-190.47 84.3,-180.1 79.55,-189.58 86.5,-190.47"/>
</g>
<!-- 3 -->
<g id="node4" class="node">
<title>3</title>
<path fill="none" stroke="#59d856" stroke-width="2" d="M415,-252C415,-252 286,-252 286,-252 280,-252 274,-246 274,-240 274,-240 274,-228 274,-228 274,-222 280,-216 286,-216 286,-216 415,-216 415,-216 421,-216 427,-222 427,-228 427,-228 427,-240 427,-240 427,-246 421,-252 415,-252"/>
<text text-anchor="middle" x="350.5" y="-237" font-family="sans" font-size="10.00">bowtie2_align</text>
<text text-anchor="middle" x="350.5" y="-226" font-family="sans" font-size="10.00">sample: single_test_sample</text>
</g>
<!-- 3&#45;&gt;1 -->
<g id="edge3" class="edge">
<title>3&#45;&gt;1</title>
<path fill="none" stroke="grey" stroke-width="2" d="M349.13,-215.81C346.79,-196.45 340.46,-164.96 323.5,-144 308.27,-125.18 284.47,-111.98 264.39,-103.46"/>
<polygon fill="grey" stroke="grey" stroke-width="2" points="265.46,-100.12 254.88,-99.65 262.86,-106.61 265.46,-100.12"/>
</g>
<!-- 6 -->
<g id="node7" class="node">
<title>6</title>
<path fill="none" stroke="#56d8a9" stroke-width="2" d="M302.5,-180C302.5,-180 248.5,-180 248.5,-180 242.5,-180 236.5,-174 236.5,-168 236.5,-168 236.5,-156 236.5,-156 236.5,-150 242.5,-144 248.5,-144 248.5,-144 302.5,-144 302.5,-144 308.5,-144 314.5,-150 314.5,-156 314.5,-156 314.5,-168 314.5,-168 314.5,-174 308.5,-180 302.5,-180"/>
<text text-anchor="middle" x="275.5" y="-159.5" font-family="sans" font-size="10.00">peak_calling</text>
</g>
<!-- 3&#45;&gt;6 -->
<g id="edge10" class="edge">
<title>3&#45;&gt;6</title>
<path fill="none" stroke="grey" stroke-width="2" d="M331.96,-215.7C322.7,-207.05 311.34,-196.45 301.24,-187.03"/>
<polygon fill="grey" stroke="grey" stroke-width="2" points="303.52,-184.37 293.83,-180.1 298.75,-189.49 303.52,-184.37"/>
</g>
<!-- 8 -->
<g id="node9" class="node">
<title>8</title>
<path fill="none" stroke="#d8ac56" stroke-width="2" d="M430,-180C430,-180 383,-180 383,-180 377,-180 371,-174 371,-168 371,-168 371,-156 371,-156 371,-150 377,-144 383,-144 383,-144 430,-144 430,-144 436,-144 442,-150 442,-156 442,-156 442,-168 442,-168 442,-174 436,-180 430,-180"/>
<text text-anchor="middle" x="406.5" y="-159.5" font-family="sans" font-size="10.00">misc_tasks</text>
</g>
<!-- 3&#45;&gt;8 -->
<g id="edge13" class="edge">
<title>3&#45;&gt;8</title>
<path fill="none" stroke="grey" stroke-width="2" d="M364.34,-215.7C370.99,-207.39 379.08,-197.28 386.39,-188.14"/>
<polygon fill="grey" stroke="grey" stroke-width="2" points="389.3,-190.1 392.82,-180.1 383.84,-185.73 389.3,-190.1"/>
</g>
<!-- 4&#45;&gt;1 -->
<g id="edge4" class="edge">
<title>4&#45;&gt;1</title>
<path fill="none" stroke="grey" stroke-width="2" d="M191.37,-143.7C197,-135.47 203.85,-125.48 210.07,-116.42"/>
<polygon fill="grey" stroke="grey" stroke-width="2" points="213,-118.33 215.77,-108.1 207.23,-114.37 213,-118.33"/>
</g>
<!-- 5 -->
<g id="node6" class="node">
<title>5</title>
<path fill="none" stroke="#d85656" stroke-width="2" d="M244,-252C244,-252 185,-252 185,-252 179,-252 173,-246 173,-240 173,-240 173,-228 173,-228 173,-222 179,-216 185,-216 185,-216 244,-216 244,-216 250,-216 256,-222 256,-228 256,-228 256,-240 256,-240 256,-246 250,-252 244,-252"/>
<text text-anchor="middle" x="214.5" y="-231.5" font-family="sans" font-size="10.00">install_homer</text>
</g>
<!-- 5&#45;&gt;4 -->
<g id="edge9" class="edge">
<title>5&#45;&gt;4</title>
<path fill="none" stroke="grey" stroke-width="2" d="M205.85,-215.7C201.86,-207.73 197.05,-198.1 192.63,-189.26"/>
<polygon fill="grey" stroke="grey" stroke-width="2" points="195.65,-187.48 188.05,-180.1 189.39,-190.61 195.65,-187.48"/>
</g>
<!-- 5&#45;&gt;6 -->
<g id="edge11" class="edge">
<title>5&#45;&gt;6</title>
<path fill="none" stroke="grey" stroke-width="2" d="M229.58,-215.7C236.89,-207.3 245.81,-197.07 253.84,-187.86"/>
<polygon fill="grey" stroke="grey" stroke-width="2" points="256.66,-189.94 260.59,-180.1 251.39,-185.34 256.66,-189.94"/>
</g>
<!-- 6&#45;&gt;1 -->
<g id="edge5" class="edge">
<title>6&#45;&gt;1</title>
<path fill="none" stroke="grey" stroke-width="2" d="M263.63,-143.7C258,-135.47 251.15,-125.48 244.93,-116.42"/>
<polygon fill="grey" stroke="grey" stroke-width="2" points="247.77,-114.37 239.23,-108.1 242,-118.33 247.77,-114.37"/>
</g>
<!-- 7&#45;&gt;1 -->
<g id="edge6" class="edge">
<title>7&#45;&gt;1</title>
<path fill="none" stroke="grey" stroke-width="2" d="M120.99,-143.88C142.3,-133.3 169.6,-119.74 191.23,-109.01"/>
<polygon fill="grey" stroke="grey" stroke-width="2" points="193.02,-112.03 200.42,-104.44 189.91,-105.76 193.02,-112.03"/>
</g>
<!-- 8&#45;&gt;1 -->
<g id="edge7" class="edge">
<title>8&#45;&gt;1</title>
<path fill="none" stroke="grey" stroke-width="2" d="M370.71,-147C339.87,-134.94 295.52,-117.6 264.37,-105.42"/>
<polygon fill="grey" stroke="grey" stroke-width="2" points="265.34,-102.04 254.76,-101.66 262.8,-108.56 265.34,-102.04"/>
</g>
</g>
</svg>
