<?xml version="1.0" encoding="UTF-8" standalone="no"?>
<!DOCTYPE svg PUBLIC "-//W3C//DTD SVG 1.1//EN"
 "http://www.w3.org/Graphics/SVG/1.1/DTD/svg11.dtd">
<!-- Generated by graphviz version 2.46.1 (20210222.2046)
 -->
<!-- Title: snakemake_dag Pages: 1 -->
<svg width="189pt" height="260pt"
 viewBox="0.00 0.00 188.82 260.00" xmlns="http://www.w3.org/2000/svg" xmlns:xlink="http://www.w3.org/1999/xlink">
<g id="graph0" class="graph" transform="scale(1 1) rotate(0) translate(4 256)">
<title>snakemake_dag</title>
<polygon fill="white" stroke="transparent" points="-4,4 -4,-256 184.82,-256 184.82,4 -4,4"/>
<!-- 0 -->
<g id="node1" class="node">
<title>0</title>
<path fill="none" stroke="#d85656" stroke-width="2" d="M67.32,-36C67.32,-36 37.32,-36 37.32,-36 31.32,-36 25.32,-30 25.32,-24 25.32,-24 25.32,-12 25.32,-12 25.32,-6 31.32,0 37.32,0 37.32,0 67.32,0 67.32,0 73.32,0 79.32,-6 79.32,-12 79.32,-12 79.32,-24 79.32,-24 79.32,-30 73.32,-36 67.32,-36"/>
<text text-anchor="middle" x="52.32" y="-15.5" font-family="sans" font-size="10.00">all</text>
</g>
<!-- 1 -->
<g id="node2" class="node">
<title>1</title>
<path fill="none" stroke="#88d856" stroke-width="2" d="M67.32,-108C67.32,-108 37.32,-108 37.32,-108 31.32,-108 25.32,-102 25.32,-96 25.32,-96 25.32,-84 25.32,-84 25.32,-78 31.32,-72 37.32,-72 37.32,-72 67.32,-72 67.32,-72 73.32,-72 79.32,-78 79.32,-84 79.32,-84 79.32,-96 79.32,-96 79.32,-102 73.32,-108 67.32,-108"/>
<text text-anchor="middle" x="52.32" y="-87.5" font-family="sans" font-size="10.00">mutliqc</text>
</g>
<!-- 1&#45;&gt;0 -->
<g id="edge1" class="edge">
<title>1&#45;&gt;0</title>
<path fill="none" stroke="grey" stroke-width="2" d="M52.32,-71.7C52.32,-63.98 52.32,-54.71 52.32,-46.11"/>
<polygon fill="grey" stroke="grey" stroke-width="2" points="55.82,-46.1 52.32,-36.1 48.82,-46.1 55.82,-46.1"/>
</g>
<!-- 2 -->
<g id="node3" class="node">
<title>2</title>
<path fill="none" stroke="#56d88a" stroke-width="2" d="M82.82,-252C82.82,-252 21.82,-252 21.82,-252 15.82,-252 9.82,-246 9.82,-240 9.82,-240 9.82,-228 9.82,-228 9.82,-222 15.82,-216 21.82,-216 21.82,-216 82.82,-216 82.82,-216 88.82,-216 94.82,-222 94.82,-228 94.82,-228 94.82,-240 94.82,-240 94.82,-246 88.82,-252 82.82,-252"/>
<text text-anchor="middle" x="52.32" y="-231.5" font-family="sans" font-size="10.00">bowtie2_align</text>
</g>
<!-- 2&#45;&gt;1 -->
<g id="edge4" class="edge">
<title>2&#45;&gt;1</title>
<path fill="none" stroke="grey" stroke-width="2" d="M30.61,-215.79C20.56,-206.41 9.68,-193.9 4.32,-180 -1.44,-165.07 -1.44,-158.93 4.32,-144 8.42,-133.36 15.76,-123.53 23.49,-115.3"/>
<polygon fill="grey" stroke="grey" stroke-width="2" points="25.99,-117.75 30.61,-108.21 21.05,-112.78 25.99,-117.75"/>
</g>
<!-- 3 -->
<g id="node4" class="node">
<title>3</title>
<path fill="none" stroke="#56c1d8" stroke-width="2" d="M79.32,-180C79.32,-180 25.32,-180 25.32,-180 19.32,-180 13.32,-174 13.32,-168 13.32,-168 13.32,-156 13.32,-156 13.32,-150 19.32,-144 25.32,-144 25.32,-144 79.32,-144 79.32,-144 85.32,-144 91.32,-150 91.32,-156 91.32,-156 91.32,-168 91.32,-168 91.32,-174 85.32,-180 79.32,-180"/>
<text text-anchor="middle" x="52.32" y="-159.5" font-family="sans" font-size="10.00">peak_calling</text>
</g>
<!-- 2&#45;&gt;3 -->
<g id="edge5" class="edge">
<title>2&#45;&gt;3</title>
<path fill="none" stroke="grey" stroke-width="2" d="M52.32,-215.7C52.32,-207.98 52.32,-198.71 52.32,-190.11"/>
<polygon fill="grey" stroke="grey" stroke-width="2" points="55.82,-190.1 52.32,-180.1 48.82,-190.1 55.82,-190.1"/>
</g>
<!-- 4 -->
<g id="node5" class="node">
<title>4</title>
<path fill="none" stroke="#d8bc56" stroke-width="2" d="M168.82,-180C168.82,-180 121.82,-180 121.82,-180 115.82,-180 109.82,-174 109.82,-168 109.82,-168 109.82,-156 109.82,-156 109.82,-150 115.82,-144 121.82,-144 121.82,-144 168.82,-144 168.82,-144 174.82,-144 180.82,-150 180.82,-156 180.82,-156 180.82,-168 180.82,-168 180.82,-174 174.82,-180 168.82,-180"/>
<text text-anchor="middle" x="145.32" y="-159.5" font-family="sans" font-size="10.00">misc_tasks</text>
</g>
<!-- 2&#45;&gt;4 -->
<g id="edge6" class="edge">
<title>2&#45;&gt;4</title>
<path fill="none" stroke="grey" stroke-width="2" d="M75.31,-215.7C87.13,-206.8 101.71,-195.82 114.5,-186.2"/>
<polygon fill="grey" stroke="grey" stroke-width="2" points="116.71,-188.91 122.59,-180.1 112.5,-183.32 116.71,-188.91"/>
</g>
<!-- 3&#45;&gt;1 -->
<g id="edge3" class="edge">
<title>3&#45;&gt;1</title>
<path fill="none" stroke="grey" stroke-width="2" d="M52.32,-143.7C52.32,-135.98 52.32,-126.71 52.32,-118.11"/>
<polygon fill="grey" stroke="grey" stroke-width="2" points="55.82,-118.1 52.32,-108.1 48.82,-118.1 55.82,-118.1"/>
</g>
<!-- 4&#45;&gt;1 -->
<g id="edge2" class="edge">
<title>4&#45;&gt;1</title>
<path fill="none" stroke="grey" stroke-width="2" d="M122.33,-143.7C110.5,-134.8 95.92,-123.82 83.14,-114.2"/>
<polygon fill="grey" stroke="grey" stroke-width="2" points="85.14,-111.32 75.04,-108.1 80.93,-116.91 85.14,-111.32"/>
</g>
</g>
</svg>
