<?xml version="1.0" encoding="UTF-8" standalone="no"?>
<!DOCTYPE svg PUBLIC "-//W3C//DTD SVG 1.1//EN"
 "http://www.w3.org/Graphics/SVG/1.1/DTD/svg11.dtd">
<!-- Generated by graphviz version 2.47.0 (20210327.0129)
 -->
<!-- Title: snakemake_dag Pages: 1 -->
<svg width="744pt" height="836pt"
 viewBox="0.00 0.00 744.00 836.00" xmlns="http://www.w3.org/2000/svg" xmlns:xlink="http://www.w3.org/1999/xlink">
<g id="graph0" class="graph" transform="scale(1 1) rotate(0) translate(4 832)">
<title>snakemake_dag</title>
<polygon fill="white" stroke="transparent" points="-4,4 -4,-832 740,-832 740,4 -4,4"/>
<!-- 0 -->
<g id="node1" class="node">
<title>0</title>
<path fill="none" stroke="#56d8c1" stroke-width="2" d="M148,-36C148,-36 118,-36 118,-36 112,-36 106,-30 106,-24 106,-24 106,-12 106,-12 106,-6 112,0 118,0 118,0 148,0 148,0 154,0 160,-6 160,-12 160,-12 160,-24 160,-24 160,-30 154,-36 148,-36"/>
<text text-anchor="middle" x="133" y="-15.5" font-family="sans" font-size="10.00">all</text>
</g>
<!-- 1 -->
<g id="node2" class="node">
<title>1</title>
<path fill="none" stroke="#56d873" stroke-width="2" d="M273,-684C273,-684 243,-684 243,-684 237,-684 231,-678 231,-672 231,-672 231,-660 231,-660 231,-654 237,-648 243,-648 243,-648 273,-648 273,-648 279,-648 285,-654 285,-660 285,-660 285,-672 285,-672 285,-678 279,-684 273,-684"/>
<text text-anchor="middle" x="258" y="-663.5" font-family="sans" font-size="10.00">multiqc</text>
</g>
<!-- 1&#45;&gt;0 -->
<g id="edge3" class="edge">
<title>1&#45;&gt;0</title>
<path fill="none" stroke="grey" stroke-width="2" d="M230.88,-662.77C164.64,-655.68 0,-627.56 0,-523 0,-523 0,-523 0,-161 0,-104.24 57.3,-60.82 96.68,-37.67"/>
<polygon fill="grey" stroke="grey" stroke-width="2" points="98.8,-40.49 105.76,-32.5 95.34,-34.41 98.8,-40.49"/>
</g>
<!-- 2 -->
<g id="node3" class="node">
<title>2</title>
<path fill="none" stroke="#56d88a" stroke-width="2" d="M320.5,-828C320.5,-828 259.5,-828 259.5,-828 253.5,-828 247.5,-822 247.5,-816 247.5,-816 247.5,-804 247.5,-804 247.5,-798 253.5,-792 259.5,-792 259.5,-792 320.5,-792 320.5,-792 326.5,-792 332.5,-798 332.5,-804 332.5,-804 332.5,-816 332.5,-816 332.5,-822 326.5,-828 320.5,-828"/>
<text text-anchor="middle" x="290" y="-807.5" font-family="sans" font-size="10.00">bowtie2_align</text>
</g>
<!-- 2&#45;&gt;1 -->
<g id="edge4" class="edge">
<title>2&#45;&gt;1</title>
<path fill="none" stroke="grey" stroke-width="2" d="M286.17,-791.94C282.15,-774.02 275.65,-745.03 270,-720 268.1,-711.59 266.03,-702.43 264.15,-694.12"/>
<polygon fill="grey" stroke="grey" stroke-width="2" points="267.52,-693.16 261.9,-684.18 260.69,-694.71 267.52,-693.16"/>
</g>
<!-- 3 -->
<g id="node4" class="node">
<title>3</title>
<path fill="none" stroke="#5673d8" stroke-width="2" d="M384,-756C384,-756 330,-756 330,-756 324,-756 318,-750 318,-744 318,-744 318,-732 318,-732 318,-726 324,-720 330,-720 330,-720 384,-720 384,-720 390,-720 396,-726 396,-732 396,-732 396,-744 396,-744 396,-750 390,-756 384,-756"/>
<text text-anchor="middle" x="357" y="-735.5" font-family="sans" font-size="10.00">peak_calling</text>
</g>
<!-- 2&#45;&gt;3 -->
<g id="edge7" class="edge">
<title>2&#45;&gt;3</title>
<path fill="none" stroke="grey" stroke-width="2" d="M306.56,-791.7C314.68,-783.22 324.59,-772.86 333.47,-763.58"/>
<polygon fill="grey" stroke="grey" stroke-width="2" points="336.24,-765.75 340.63,-756.1 331.19,-760.91 336.24,-765.75"/>
</g>
<!-- 5 -->
<g id="node6" class="node">
<title>5</title>
<path fill="none" stroke="#56c1d8" stroke-width="2" d="M249.5,-756C249.5,-756 202.5,-756 202.5,-756 196.5,-756 190.5,-750 190.5,-744 190.5,-744 190.5,-732 190.5,-732 190.5,-726 196.5,-720 202.5,-720 202.5,-720 249.5,-720 249.5,-720 255.5,-720 261.5,-726 261.5,-732 261.5,-732 261.5,-744 261.5,-744 261.5,-750 255.5,-756 249.5,-756"/>
<text text-anchor="middle" x="226" y="-735.5" font-family="sans" font-size="10.00">misc_tasks</text>
</g>
<!-- 2&#45;&gt;5 -->
<g id="edge9" class="edge">
<title>2&#45;&gt;5</title>
<path fill="none" stroke="grey" stroke-width="2" d="M274.18,-791.7C266.43,-783.22 256.96,-772.86 248.48,-763.58"/>
<polygon fill="grey" stroke="grey" stroke-width="2" points="250.97,-761.12 241.64,-756.1 245.8,-765.85 250.97,-761.12"/>
</g>
<!-- 10 -->
<g id="node11" class="node">
<title>10</title>
<path fill="none" stroke="#d85656" stroke-width="2" d="M671,-612C671,-612 559,-612 559,-612 553,-612 547,-606 547,-600 547,-600 547,-588 547,-588 547,-582 553,-576 559,-576 559,-576 671,-576 671,-576 677,-576 683,-582 683,-588 683,-588 683,-600 683,-600 683,-606 677,-612 671,-612"/>
<text text-anchor="middle" x="615" y="-591.5" font-family="sans" font-size="10.00">quantify_counts_sample</text>
</g>
<!-- 2&#45;&gt;10 -->
<g id="edge23" class="edge">
<title>2&#45;&gt;10</title>
<path fill="none" stroke="grey" stroke-width="2" d="M332.25,-791.91C354.44,-782.34 381.77,-769.62 405,-756 475.85,-714.46 550.16,-652.41 588.55,-618.77"/>
<polygon fill="grey" stroke="grey" stroke-width="2" points="590.99,-621.28 596.18,-612.04 586.36,-616.03 590.99,-621.28"/>
</g>
<!-- 3&#45;&gt;1 -->
<g id="edge5" class="edge">
<title>3&#45;&gt;1</title>
<path fill="none" stroke="grey" stroke-width="2" d="M332.78,-719.88C320.08,-710.89 304.34,-699.76 290.58,-690.03"/>
<polygon fill="grey" stroke="grey" stroke-width="2" points="292.5,-687.11 282.31,-684.19 288.46,-692.82 292.5,-687.11"/>
</g>
<!-- 7 -->
<g id="node8" class="node">
<title>7</title>
<path fill="none" stroke="#bed856" stroke-width="2" d="M483,-684C483,-684 377,-684 377,-684 371,-684 365,-678 365,-672 365,-672 365,-660 365,-660 365,-654 371,-648 377,-648 377,-648 483,-648 483,-648 489,-648 495,-654 495,-660 495,-660 495,-672 495,-672 495,-678 489,-684 483,-684"/>
<text text-anchor="middle" x="430" y="-663.5" font-family="sans" font-size="10.00">get_consensus_regions</text>
</g>
<!-- 3&#45;&gt;7 -->
<g id="edge14" class="edge">
<title>3&#45;&gt;7</title>
<path fill="none" stroke="grey" stroke-width="2" d="M375.04,-719.7C384.06,-711.05 395.12,-700.45 404.94,-691.03"/>
<polygon fill="grey" stroke="grey" stroke-width="2" points="407.37,-693.55 412.16,-684.1 402.52,-688.5 407.37,-693.55"/>
</g>
<!-- 13 -->
<g id="node14" class="node">
<title>13</title>
<path fill="none" stroke="#d8bc56" stroke-width="2" d="M371,-612C371,-612 255,-612 255,-612 249,-612 243,-606 243,-600 243,-600 243,-588 243,-588 243,-582 249,-576 255,-576 255,-576 371,-576 371,-576 377,-576 383,-582 383,-588 383,-588 383,-600 383,-600 383,-606 377,-612 371,-612"/>
<text text-anchor="middle" x="313" y="-591.5" font-family="sans" font-size="10.00">quantify_support_sample</text>
</g>
<!-- 3&#45;&gt;13 -->
<g id="edge31" class="edge">
<title>3&#45;&gt;13</title>
<path fill="none" stroke="grey" stroke-width="2" d="M351.69,-719.87C344.16,-695.56 330.3,-650.82 321.37,-622.01"/>
<polygon fill="grey" stroke="grey" stroke-width="2" points="324.63,-620.71 318.33,-612.19 317.94,-622.78 324.63,-620.71"/>
</g>
<!-- 4 -->
<g id="node5" class="node">
<title>4</title>
<path fill="none" stroke="#568ad8" stroke-width="2" d="M421.5,-828C421.5,-828 362.5,-828 362.5,-828 356.5,-828 350.5,-822 350.5,-816 350.5,-816 350.5,-804 350.5,-804 350.5,-798 356.5,-792 362.5,-792 362.5,-792 421.5,-792 421.5,-792 427.5,-792 433.5,-798 433.5,-804 433.5,-804 433.5,-816 433.5,-816 433.5,-822 427.5,-828 421.5,-828"/>
<text text-anchor="middle" x="392" y="-807.5" font-family="sans" font-size="10.00">install_homer</text>
</g>
<!-- 4&#45;&gt;3 -->
<g id="edge8" class="edge">
<title>4&#45;&gt;3</title>
<path fill="none" stroke="grey" stroke-width="2" d="M383.35,-791.7C379.36,-783.73 374.55,-774.1 370.13,-765.26"/>
<polygon fill="grey" stroke="grey" stroke-width="2" points="373.15,-763.48 365.55,-756.1 366.89,-766.61 373.15,-763.48"/>
</g>
<!-- 5&#45;&gt;1 -->
<g id="edge6" class="edge">
<title>5&#45;&gt;1</title>
<path fill="none" stroke="grey" stroke-width="2" d="M233.91,-719.7C237.55,-711.73 241.95,-702.1 245.99,-693.26"/>
<polygon fill="grey" stroke="grey" stroke-width="2" points="249.21,-694.65 250.18,-684.1 242.84,-691.74 249.21,-694.65"/>
</g>
<!-- 6 -->
<g id="node7" class="node">
<title>6</title>
<path fill="none" stroke="#d8a456" stroke-width="2" d="M590.5,-108C590.5,-108 539.5,-108 539.5,-108 533.5,-108 527.5,-102 527.5,-96 527.5,-96 527.5,-84 527.5,-84 527.5,-78 533.5,-72 539.5,-72 539.5,-72 590.5,-72 590.5,-72 596.5,-72 602.5,-78 602.5,-84 602.5,-84 602.5,-96 602.5,-96 602.5,-102 596.5,-108 590.5,-108"/>
<text text-anchor="middle" x="565" y="-87.5" font-family="sans" font-size="10.00">plot_dimred</text>
</g>
<!-- 6&#45;&gt;0 -->
<g id="edge2" class="edge">
<title>6&#45;&gt;0</title>
<path fill="none" stroke="grey" stroke-width="2" d="M527.42,-82.91C445.59,-69.65 252.12,-38.3 170.43,-25.07"/>
<polygon fill="grey" stroke="grey" stroke-width="2" points="170.55,-21.54 160.12,-23.4 169.44,-28.45 170.55,-21.54"/>
</g>
<!-- 7&#45;&gt;6 -->
<g id="edge10" class="edge">
<title>7&#45;&gt;6</title>
<path fill="none" stroke="grey" stroke-width="2" d="M495.2,-658.41C562.49,-650.47 661.79,-635.24 692,-612 726.98,-585.1 736,-567.13 736,-523 736,-523 736,-523 736,-233 736,-168.29 662.63,-127.43 612,-106.93"/>
<polygon fill="grey" stroke="grey" stroke-width="2" points="613.11,-103.61 602.53,-103.22 610.56,-110.13 613.11,-103.61"/>
</g>
<!-- 9 -->
<g id="node10" class="node">
<title>9</title>
<path fill="none" stroke="#70d856" stroke-width="2" d="M511.5,-540C511.5,-540 386.5,-540 386.5,-540 380.5,-540 374.5,-534 374.5,-528 374.5,-528 374.5,-516 374.5,-516 374.5,-510 380.5,-504 386.5,-504 386.5,-504 511.5,-504 511.5,-504 517.5,-504 523.5,-510 523.5,-516 523.5,-516 523.5,-528 523.5,-528 523.5,-534 517.5,-540 511.5,-540"/>
<text text-anchor="middle" x="449" y="-519.5" font-family="sans" font-size="10.00">quantify_counts_aggregate</text>
</g>
<!-- 7&#45;&gt;9 -->
<g id="edge21" class="edge">
<title>7&#45;&gt;9</title>
<path fill="none" stroke="grey" stroke-width="2" d="M432.29,-647.87C435.53,-623.67 441.48,-579.21 445.33,-550.39"/>
<polygon fill="grey" stroke="grey" stroke-width="2" points="448.84,-550.57 446.7,-540.19 441.9,-549.64 448.84,-550.57"/>
</g>
<!-- 7&#45;&gt;10 -->
<g id="edge24" class="edge">
<title>7&#45;&gt;10</title>
<path fill="none" stroke="grey" stroke-width="2" d="M475.26,-647.88C501,-638.14 533.41,-625.87 560.54,-615.61"/>
<polygon fill="grey" stroke="grey" stroke-width="2" points="561.78,-618.88 569.89,-612.07 559.3,-612.33 561.78,-618.88"/>
</g>
<!-- 12 -->
<g id="node13" class="node">
<title>12</title>
<path fill="none" stroke="#59d856" stroke-width="2" d="M344,-540C344,-540 214,-540 214,-540 208,-540 202,-534 202,-528 202,-528 202,-516 202,-516 202,-510 208,-504 214,-504 214,-504 344,-504 344,-504 350,-504 356,-510 356,-516 356,-516 356,-528 356,-528 356,-534 350,-540 344,-540"/>
<text text-anchor="middle" x="279" y="-519.5" font-family="sans" font-size="10.00">quantify_support_aggregate</text>
</g>
<!-- 7&#45;&gt;12 -->
<g id="edge28" class="edge">
<title>7&#45;&gt;12</title>
<path fill="none" stroke="grey" stroke-width="2" d="M426.57,-647.88C421.84,-628.29 411.61,-596.3 392,-576 378.98,-562.52 361.86,-552.1 344.9,-544.21"/>
<polygon fill="grey" stroke="grey" stroke-width="2" points="346.08,-540.9 335.52,-540.08 343.26,-547.31 346.08,-540.9"/>
</g>
<!-- 7&#45;&gt;13 -->
<g id="edge30" class="edge">
<title>7&#45;&gt;13</title>
<path fill="none" stroke="grey" stroke-width="2" d="M401.38,-647.88C386.08,-638.72 367.06,-627.34 350.58,-617.48"/>
<polygon fill="grey" stroke="grey" stroke-width="2" points="352.11,-614.32 341.73,-612.19 348.52,-620.33 352.11,-614.32"/>
</g>
<!-- 15 -->
<g id="node16" class="node">
<title>15</title>
<path fill="none" stroke="#a7d856" stroke-width="2" d="M252,-324C252,-324 184,-324 184,-324 178,-324 172,-318 172,-312 172,-312 172,-300 172,-300 172,-294 178,-288 184,-288 184,-288 252,-288 252,-288 258,-288 264,-294 264,-300 264,-300 264,-312 264,-312 264,-318 258,-324 252,-324"/>
<text text-anchor="middle" x="218" y="-303.5" font-family="sans" font-size="10.00">normalize_CQN</text>
</g>
<!-- 7&#45;&gt;15 -->
<g id="edge34" class="edge">
<title>7&#45;&gt;15</title>
<path fill="none" stroke="grey" stroke-width="2" d="M364.66,-652.68C262.37,-631.51 76,-584.5 76,-523 76,-523 76,-523 76,-449 76,-393.62 130.67,-352.29 172.17,-328.9"/>
<polygon fill="grey" stroke="grey" stroke-width="2" points="173.96,-331.91 181.06,-324.05 170.61,-325.77 173.96,-331.91"/>
</g>
<!-- 17 -->
<g id="node18" class="node">
<title>17</title>
<path fill="none" stroke="#56a2d8" stroke-width="2" d="M551.5,-468C551.5,-468 510.5,-468 510.5,-468 504.5,-468 498.5,-462 498.5,-456 498.5,-456 498.5,-444 498.5,-444 498.5,-438 504.5,-432 510.5,-432 510.5,-432 551.5,-432 551.5,-432 557.5,-432 563.5,-438 563.5,-444 563.5,-444 563.5,-456 563.5,-456 563.5,-462 557.5,-468 551.5,-468"/>
<text text-anchor="middle" x="531" y="-447.5" font-family="sans" font-size="10.00">split_data</text>
</g>
<!-- 7&#45;&gt;17 -->
<g id="edge38" class="edge">
<title>7&#45;&gt;17</title>
<path fill="none" stroke="grey" stroke-width="2" d="M451.15,-647.78C476.26,-625.83 516.76,-585.26 533,-540 540.11,-520.18 539.09,-496.24 536.57,-478.19"/>
<polygon fill="grey" stroke="grey" stroke-width="2" points="540.03,-477.63 534.97,-468.32 533.12,-478.75 540.03,-477.63"/>
</g>
<!-- 8 -->
<g id="node9" class="node">
<title>8</title>
<path fill="none" stroke="#56d8a2" stroke-width="2" d="M584,-180C584,-180 546,-180 546,-180 540,-180 534,-174 534,-168 534,-168 534,-156 534,-156 534,-150 540,-144 546,-144 546,-144 584,-144 584,-144 590,-144 596,-150 596,-156 596,-156 596,-168 596,-168 596,-174 590,-180 584,-180"/>
<text text-anchor="middle" x="565" y="-159.5" font-family="sans" font-size="10.00">do_UMAP</text>
</g>
<!-- 8&#45;&gt;6 -->
<g id="edge12" class="edge">
<title>8&#45;&gt;6</title>
<path fill="none" stroke="grey" stroke-width="2" d="M565,-143.7C565,-135.98 565,-126.71 565,-118.11"/>
<polygon fill="grey" stroke="grey" stroke-width="2" points="568.5,-118.1 565,-108.1 561.5,-118.1 568.5,-118.1"/>
</g>
<!-- 9&#45;&gt;8 -->
<g id="edge20" class="edge">
<title>9&#45;&gt;8</title>
<path fill="none" stroke="grey" stroke-width="2" d="M521.91,-504C582.9,-484.94 660,-447.33 660,-379 660,-379 660,-379 660,-305 660,-257.01 622.06,-212.96 594.13,-187.04"/>
<polygon fill="grey" stroke="grey" stroke-width="2" points="596.33,-184.31 586.56,-180.22 591.65,-189.52 596.33,-184.31"/>
</g>
<!-- 11 -->
<g id="node12" class="node">
<title>11</title>
<path fill="none" stroke="#88d856" stroke-width="2" d="M408,-396C408,-396 352,-396 352,-396 346,-396 340,-390 340,-384 340,-384 340,-372 340,-372 340,-366 346,-360 352,-360 352,-360 408,-360 408,-360 414,-360 420,-366 420,-372 420,-372 420,-384 420,-384 420,-390 414,-396 408,-396"/>
<text text-anchor="middle" x="380" y="-375.5" font-family="sans" font-size="10.00">filter_regions</text>
</g>
<!-- 9&#45;&gt;11 -->
<g id="edge26" class="edge">
<title>9&#45;&gt;11</title>
<path fill="none" stroke="grey" stroke-width="2" d="M440.68,-503.87C428.76,-479.35 406.74,-434.03 392.76,-405.26"/>
<polygon fill="grey" stroke="grey" stroke-width="2" points="395.87,-403.65 388.35,-396.19 389.58,-406.71 395.87,-403.65"/>
</g>
<!-- 9&#45;&gt;17 -->
<g id="edge37" class="edge">
<title>9&#45;&gt;17</title>
<path fill="none" stroke="grey" stroke-width="2" d="M469.27,-503.7C479.5,-494.97 492.06,-484.24 503.18,-474.75"/>
<polygon fill="grey" stroke="grey" stroke-width="2" points="505.63,-477.26 510.96,-468.1 501.09,-471.94 505.63,-477.26"/>
</g>
<!-- 18 -->
<g id="node19" class="node">
<title>18</title>
<path fill="none" stroke="#d86e56" stroke-width="2" d="M447,-180C447,-180 417,-180 417,-180 411,-180 405,-174 405,-168 405,-168 405,-156 405,-156 405,-150 411,-144 417,-144 417,-144 447,-144 447,-144 453,-144 459,-150 459,-156 459,-156 459,-168 459,-168 459,-174 453,-180 447,-180"/>
<text text-anchor="middle" x="432" y="-159.5" font-family="sans" font-size="10.00">do_PCA</text>
</g>
<!-- 9&#45;&gt;18 -->
<g id="edge44" class="edge">
<title>9&#45;&gt;18</title>
<path fill="none" stroke="grey" stroke-width="2" d="M453.25,-503.63C459.39,-476.99 470,-424.36 470,-379 470,-379 470,-379 470,-305 470,-263.63 454.77,-217.72 443.59,-189.61"/>
<polygon fill="grey" stroke="grey" stroke-width="2" points="446.72,-188.02 439.69,-180.09 440.24,-190.67 446.72,-188.02"/>
</g>
<!-- 19 -->
<g id="node20" class="node">
<title>19</title>
<path fill="none" stroke="#d6d856" stroke-width="2" d="M165.5,-180C165.5,-180 100.5,-180 100.5,-180 94.5,-180 88.5,-174 88.5,-168 88.5,-168 88.5,-156 88.5,-156 88.5,-150 94.5,-144 100.5,-144 100.5,-144 165.5,-144 165.5,-144 171.5,-144 177.5,-150 177.5,-156 177.5,-156 177.5,-168 177.5,-168 177.5,-174 171.5,-180 165.5,-180"/>
<text text-anchor="middle" x="133" y="-159.5" font-family="sans" font-size="10.00">plot_mean_var</text>
</g>
<!-- 9&#45;&gt;19 -->
<g id="edge50" class="edge">
<title>9&#45;&gt;19</title>
<path fill="none" stroke="grey" stroke-width="2" d="M392.06,-503.99C333.26,-484.5 240.91,-448.35 174,-396 141.85,-370.85 131.48,-362.16 117,-324 105.63,-294.03 113.89,-284.04 113,-252 112.56,-236.01 110.13,-231.74 113,-216 114.61,-207.2 117.6,-197.95 120.79,-189.7"/>
<polygon fill="grey" stroke="grey" stroke-width="2" points="124.12,-190.79 124.69,-180.21 117.65,-188.12 124.12,-190.79"/>
</g>
<!-- 10&#45;&gt;9 -->
<g id="edge22" class="edge">
<title>10&#45;&gt;9</title>
<path fill="none" stroke="grey" stroke-width="2" d="M574.39,-575.88C551.6,-566.26 522.97,-554.19 498.83,-544.01"/>
<polygon fill="grey" stroke="grey" stroke-width="2" points="500.05,-540.73 489.48,-540.07 497.33,-547.18 500.05,-540.73"/>
</g>
<!-- 11&#45;&gt;8 -->
<g id="edge19" class="edge">
<title>11&#45;&gt;8</title>
<path fill="none" stroke="grey" stroke-width="2" d="M397.32,-359.63C407.35,-349.43 420.1,-336.18 431,-324 472.86,-277.24 519.18,-220.36 544.92,-188.25"/>
<polygon fill="grey" stroke="grey" stroke-width="2" points="547.8,-190.26 551.31,-180.26 542.33,-185.88 547.8,-190.26"/>
</g>
<!-- 14 -->
<g id="node15" class="node">
<title>14</title>
<path fill="none" stroke="#56d8d8" stroke-width="2" d="M391.5,-324C391.5,-324 322.5,-324 322.5,-324 316.5,-324 310.5,-318 310.5,-312 310.5,-312 310.5,-300 310.5,-300 310.5,-294 316.5,-288 322.5,-288 322.5,-288 391.5,-288 391.5,-288 397.5,-288 403.5,-294 403.5,-300 403.5,-300 403.5,-312 403.5,-312 403.5,-318 397.5,-324 391.5,-324"/>
<text text-anchor="middle" x="357" y="-303.5" font-family="sans" font-size="10.00">normalize_TMM</text>
</g>
<!-- 11&#45;&gt;14 -->
<g id="edge32" class="edge">
<title>11&#45;&gt;14</title>
<path fill="none" stroke="grey" stroke-width="2" d="M374.31,-359.7C371.75,-351.9 368.67,-342.51 365.82,-333.83"/>
<polygon fill="grey" stroke="grey" stroke-width="2" points="369.07,-332.51 362.62,-324.1 362.42,-334.7 369.07,-332.51"/>
</g>
<!-- 11&#45;&gt;15 -->
<g id="edge33" class="edge">
<title>11&#45;&gt;15</title>
<path fill="none" stroke="grey" stroke-width="2" d="M340.37,-359.88C318.22,-350.31 290.44,-338.3 266.94,-328.15"/>
<polygon fill="grey" stroke="grey" stroke-width="2" points="268.07,-324.82 257.5,-324.07 265.29,-331.25 268.07,-324.82"/>
</g>
<!-- 11&#45;&gt;18 -->
<g id="edge43" class="edge">
<title>11&#45;&gt;18</title>
<path fill="none" stroke="grey" stroke-width="2" d="M393.39,-359.85C400.42,-349.93 408.48,-336.89 413,-324 428.73,-279.14 431.97,-223.39 432.36,-190.65"/>
<polygon fill="grey" stroke="grey" stroke-width="2" points="435.86,-190.49 432.4,-180.47 428.86,-190.46 435.86,-190.49"/>
</g>
<!-- 11&#45;&gt;19 -->
<g id="edge49" class="edge">
<title>11&#45;&gt;19</title>
<path fill="none" stroke="grey" stroke-width="2" d="M339.86,-372.4C283.98,-365.17 186.92,-349.28 163,-324 128.82,-287.88 127.34,-225.96 129.83,-190.36"/>
<polygon fill="grey" stroke="grey" stroke-width="2" points="133.34,-190.47 130.7,-180.21 126.36,-189.88 133.34,-190.47"/>
</g>
<!-- 12&#45;&gt;11 -->
<g id="edge25" class="edge">
<title>12&#45;&gt;11</title>
<path fill="none" stroke="grey" stroke-width="2" d="M291.18,-503.87C308.78,-479.14 341.42,-433.24 361.85,-404.51"/>
<polygon fill="grey" stroke="grey" stroke-width="2" points="364.83,-406.37 367.77,-396.19 359.13,-402.31 364.83,-406.37"/>
</g>
<!-- 13&#45;&gt;12 -->
<g id="edge29" class="edge">
<title>13&#45;&gt;12</title>
<path fill="none" stroke="grey" stroke-width="2" d="M304.6,-575.7C300.73,-567.73 296.05,-558.1 291.76,-549.26"/>
<polygon fill="grey" stroke="grey" stroke-width="2" points="294.83,-547.57 287.31,-540.1 288.53,-550.63 294.83,-547.57"/>
</g>
<!-- 14&#45;&gt;8 -->
<g id="edge15" class="edge">
<title>14&#45;&gt;8</title>
<path fill="none" stroke="grey" stroke-width="2" d="M382.09,-287.87C419.41,-262.39 489.63,-214.45 531.37,-185.96"/>
<polygon fill="grey" stroke="grey" stroke-width="2" points="533.54,-188.72 539.82,-180.19 529.59,-182.94 533.54,-188.72"/>
</g>
<!-- 16 -->
<g id="node17" class="node">
<title>16</title>
<path fill="none" stroke="#d88d56" stroke-width="2" d="M316,-252C316,-252 268,-252 268,-252 262,-252 256,-246 256,-240 256,-240 256,-228 256,-228 256,-222 262,-216 268,-216 268,-216 316,-216 316,-216 322,-216 328,-222 328,-228 328,-228 328,-240 328,-240 328,-246 322,-252 316,-252"/>
<text text-anchor="middle" x="292" y="-231.5" font-family="sans" font-size="10.00">select_HVR</text>
</g>
<!-- 14&#45;&gt;16 -->
<g id="edge35" class="edge">
<title>14&#45;&gt;16</title>
<path fill="none" stroke="grey" stroke-width="2" d="M340.93,-287.7C333.06,-279.22 323.44,-268.86 314.83,-259.58"/>
<polygon fill="grey" stroke="grey" stroke-width="2" points="317.25,-257.05 307.88,-252.1 312.12,-261.81 317.25,-257.05"/>
</g>
<!-- 14&#45;&gt;18 -->
<g id="edge39" class="edge">
<title>14&#45;&gt;18</title>
<path fill="none" stroke="grey" stroke-width="2" d="M366.05,-287.87C379,-263.35 402.93,-218.03 418.13,-189.26"/>
<polygon fill="grey" stroke="grey" stroke-width="2" points="421.35,-190.67 422.92,-180.19 415.16,-187.4 421.35,-190.67"/>
</g>
<!-- 14&#45;&gt;19 -->
<g id="edge45" class="edge">
<title>14&#45;&gt;19</title>
<path fill="none" stroke="grey" stroke-width="2" d="M316.45,-287.97C295.19,-278.43 269.06,-265.7 247,-252 215.47,-232.41 182.33,-205.76 159.97,-186.74"/>
<polygon fill="grey" stroke="grey" stroke-width="2" points="162.1,-183.97 152.24,-180.11 157.54,-189.28 162.1,-183.97"/>
</g>
<!-- 15&#45;&gt;8 -->
<g id="edge18" class="edge">
<title>15&#45;&gt;8</title>
<path fill="none" stroke="grey" stroke-width="2" d="M258.55,-287.92C301.54,-269.87 371.44,-240.66 432,-216 462.82,-203.45 497.79,-189.53 524.13,-179.1"/>
<polygon fill="grey" stroke="grey" stroke-width="2" points="525.76,-182.22 533.77,-175.29 523.19,-175.71 525.76,-182.22"/>
</g>
<!-- 15&#45;&gt;16 -->
<g id="edge36" class="edge">
<title>15&#45;&gt;16</title>
<path fill="none" stroke="grey" stroke-width="2" d="M236.29,-287.7C245.43,-279.05 256.64,-268.45 266.6,-259.03"/>
<polygon fill="grey" stroke="grey" stroke-width="2" points="269.06,-261.52 273.92,-252.1 264.25,-256.43 269.06,-261.52"/>
</g>
<!-- 15&#45;&gt;18 -->
<g id="edge42" class="edge">
<title>15&#45;&gt;18</title>
<path fill="none" stroke="grey" stroke-width="2" d="M218.92,-287.76C220.93,-267.75 227.23,-235.07 247,-216 287.04,-177.38 353.26,-166.58 394.66,-163.74"/>
<polygon fill="grey" stroke="grey" stroke-width="2" points="395.09,-167.22 404.87,-163.17 394.69,-160.24 395.09,-167.22"/>
</g>
<!-- 15&#45;&gt;19 -->
<g id="edge48" class="edge">
<title>15&#45;&gt;19</title>
<path fill="none" stroke="grey" stroke-width="2" d="M202.59,-287.57C194.16,-277.57 183.86,-264.53 176,-252 163.46,-232.01 151.98,-207.81 144.05,-189.69"/>
<polygon fill="grey" stroke="grey" stroke-width="2" points="147.18,-188.13 140.02,-180.32 140.75,-190.89 147.18,-188.13"/>
</g>
<!-- 16&#45;&gt;8 -->
<g id="edge17" class="edge">
<title>16&#45;&gt;8</title>
<path fill="none" stroke="grey" stroke-width="2" d="M328.19,-220.25C332.82,-218.75 337.51,-217.29 342,-216 404.79,-197.91 478.78,-181.22 523.77,-171.58"/>
<polygon fill="grey" stroke="grey" stroke-width="2" points="524.68,-174.96 533.73,-169.46 523.22,-168.11 524.68,-174.96"/>
</g>
<!-- 16&#45;&gt;18 -->
<g id="edge41" class="edge">
<title>16&#45;&gt;18</title>
<path fill="none" stroke="grey" stroke-width="2" d="M326.25,-215.88C347.26,-205.37 374.15,-191.92 395.56,-181.22"/>
<polygon fill="grey" stroke="grey" stroke-width="2" points="397.28,-184.27 404.66,-176.67 394.15,-178.01 397.28,-184.27"/>
</g>
<!-- 16&#45;&gt;19 -->
<g id="edge47" class="edge">
<title>16&#45;&gt;19</title>
<path fill="none" stroke="grey" stroke-width="2" d="M255.92,-217.12C233.76,-207.36 205.1,-194.74 181.03,-184.15"/>
<polygon fill="grey" stroke="grey" stroke-width="2" points="182.28,-180.87 171.71,-180.04 179.46,-187.28 182.28,-180.87"/>
</g>
<!-- 17&#45;&gt;6 -->
<g id="edge11" class="edge">
<title>17&#45;&gt;6</title>
<path fill="none" stroke="grey" stroke-width="2" d="M563.6,-438.09C612.2,-419.51 698,-376.84 698,-307 698,-307 698,-307 698,-233 698,-179.21 646.54,-137.4 607.64,-113.47"/>
<polygon fill="grey" stroke="grey" stroke-width="2" points="608.94,-110.18 598.56,-108.07 605.36,-116.19 608.94,-110.18"/>
</g>
<!-- 17&#45;&gt;8 -->
<g id="edge16" class="edge">
<title>17&#45;&gt;8</title>
<path fill="none" stroke="grey" stroke-width="2" d="M533.03,-431.97C538.7,-384.19 554.82,-248.62 561.76,-190.27"/>
<polygon fill="grey" stroke="grey" stroke-width="2" points="565.24,-190.65 562.94,-180.31 558.29,-189.82 565.24,-190.65"/>
</g>
<!-- 17&#45;&gt;11 -->
<g id="edge27" class="edge">
<title>17&#45;&gt;11</title>
<path fill="none" stroke="grey" stroke-width="2" d="M498.24,-433.81C477.12,-424.02 449.35,-411.15 426.03,-400.34"/>
<polygon fill="grey" stroke="grey" stroke-width="2" points="427.22,-397.03 416.67,-396 424.28,-403.38 427.22,-397.03"/>
</g>
<!-- 17&#45;&gt;18 -->
<g id="edge40" class="edge">
<title>17&#45;&gt;18</title>
<path fill="none" stroke="grey" stroke-width="2" d="M530.81,-431.8C529.7,-391.63 522.95,-289.47 484,-216 478.35,-205.34 469.88,-195.39 461.41,-187.06"/>
<polygon fill="grey" stroke="grey" stroke-width="2" points="463.73,-184.44 454.04,-180.17 458.96,-189.56 463.73,-184.44"/>
</g>
<!-- 17&#45;&gt;19 -->
<g id="edge46" class="edge">
<title>17&#45;&gt;19</title>
<path fill="none" stroke="grey" stroke-width="2" d="M498.48,-449.56C421.98,-448.94 230.11,-435.73 138,-324 107.05,-286.45 115.86,-225.57 124.68,-190.42"/>
<polygon fill="grey" stroke="grey" stroke-width="2" points="128.16,-190.95 127.38,-180.39 121.4,-189.14 128.16,-190.95"/>
</g>
<!-- 18&#45;&gt;6 -->
<g id="edge13" class="edge">
<title>18&#45;&gt;6</title>
<path fill="none" stroke="grey" stroke-width="2" d="M459.24,-146.67C477.77,-136.91 502.65,-123.82 523.62,-112.78"/>
<polygon fill="grey" stroke="grey" stroke-width="2" points="525.42,-115.79 532.64,-108.03 522.16,-109.59 525.42,-115.79"/>
</g>
<!-- 19&#45;&gt;0 -->
<g id="edge1" class="edge">
<title>19&#45;&gt;0</title>
<path fill="none" stroke="grey" stroke-width="2" d="M133,-143.87C133,-119.67 133,-75.21 133,-46.39"/>
<polygon fill="grey" stroke="grey" stroke-width="2" points="136.5,-46.19 133,-36.19 129.5,-46.19 136.5,-46.19"/>
</g>
</g>
</svg>
