<?xml version="1.0" encoding="UTF-8" standalone="no"?>
<!DOCTYPE svg PUBLIC "-//W3C//DTD SVG 1.1//EN"
 "http://www.w3.org/Graphics/SVG/1.1/DTD/svg11.dtd">
<!-- Generated by graphviz version 2.47.0 (20210327.0129)
 -->
<!-- Title: snakemake_dag Pages: 1 -->
<svg width="908pt" height="764pt"
 viewBox="0.00 0.00 908.00 764.00" xmlns="http://www.w3.org/2000/svg" xmlns:xlink="http://www.w3.org/1999/xlink">
<g id="graph0" class="graph" transform="scale(1 1) rotate(0) translate(4 760)">
<title>snakemake_dag</title>
<polygon fill="white" stroke="transparent" points="-4,4 -4,-760 904,-760 904,4 -4,4"/>
<!-- 0 -->
<g id="node1" class="node">
<title>0</title>
<path fill="none" stroke="#d85656" stroke-width="2" d="M358,-36C358,-36 328,-36 328,-36 322,-36 316,-30 316,-24 316,-24 316,-12 316,-12 316,-6 322,0 328,0 328,0 358,0 358,0 364,0 370,-6 370,-12 370,-12 370,-24 370,-24 370,-30 364,-36 358,-36"/>
<text text-anchor="middle" x="343" y="-15.5" font-family="sans" font-size="10.00">all</text>
</g>
<!-- 1 -->
<g id="node2" class="node">
<title>1</title>
<path fill="none" stroke="#56b1d8" stroke-width="2" d="M43,-612C43,-612 13,-612 13,-612 7,-612 1,-606 1,-600 1,-600 1,-588 1,-588 1,-582 7,-576 13,-576 13,-576 43,-576 43,-576 49,-576 55,-582 55,-588 55,-588 55,-600 55,-600 55,-606 49,-612 43,-612"/>
<text text-anchor="middle" x="28" y="-591.5" font-family="sans" font-size="10.00">multiqc</text>
</g>
<!-- 1&#45;&gt;0 -->
<g id="edge2" class="edge">
<title>1&#45;&gt;0</title>
<path fill="none" stroke="grey" stroke-width="2" d="M22.33,-575.73C14.15,-549.21 0,-496.73 0,-451 0,-451 0,-451 0,-161 0,-95.36 217.14,-44.28 305.88,-26.14"/>
<polygon fill="grey" stroke="grey" stroke-width="2" points="306.69,-29.55 315.8,-24.14 305.3,-22.69 306.69,-29.55"/>
</g>
<!-- 2 -->
<g id="node3" class="node">
<title>2</title>
<path fill="none" stroke="#56d882" stroke-width="2" d="M129.5,-756C129.5,-756 68.5,-756 68.5,-756 62.5,-756 56.5,-750 56.5,-744 56.5,-744 56.5,-732 56.5,-732 56.5,-726 62.5,-720 68.5,-720 68.5,-720 129.5,-720 129.5,-720 135.5,-720 141.5,-726 141.5,-732 141.5,-732 141.5,-744 141.5,-744 141.5,-750 135.5,-756 129.5,-756"/>
<text text-anchor="middle" x="99" y="-735.5" font-family="sans" font-size="10.00">bowtie2_align</text>
</g>
<!-- 2&#45;&gt;1 -->
<g id="edge7" class="edge">
<title>2&#45;&gt;1</title>
<path fill="none" stroke="grey" stroke-width="2" d="M59.73,-719.9C45.13,-711.37 30.16,-699.51 22,-684 12.01,-665 14.6,-640.5 19.07,-622.01"/>
<polygon fill="grey" stroke="grey" stroke-width="2" points="22.5,-622.74 21.76,-612.17 15.74,-620.89 22.5,-622.74"/>
</g>
<!-- 3 -->
<g id="node4" class="node">
<title>3</title>
<path fill="none" stroke="#d88556" stroke-width="2" d="M241,-684C241,-684 187,-684 187,-684 181,-684 175,-678 175,-672 175,-672 175,-660 175,-660 175,-654 181,-648 187,-648 187,-648 241,-648 241,-648 247,-648 253,-654 253,-660 253,-660 253,-672 253,-672 253,-678 247,-684 241,-684"/>
<text text-anchor="middle" x="214" y="-663.5" font-family="sans" font-size="10.00">peak_calling</text>
</g>
<!-- 2&#45;&gt;3 -->
<g id="edge8" class="edge">
<title>2&#45;&gt;3</title>
<path fill="none" stroke="grey" stroke-width="2" d="M127.13,-719.88C142.17,-710.72 160.87,-699.34 177.06,-689.48"/>
<polygon fill="grey" stroke="grey" stroke-width="2" points="179.04,-692.38 185.76,-684.19 175.4,-686.4 179.04,-692.38"/>
</g>
<!-- 4 -->
<g id="node5" class="node">
<title>4</title>
<path fill="none" stroke="#88d856" stroke-width="2" d="M90.5,-684C90.5,-684 43.5,-684 43.5,-684 37.5,-684 31.5,-678 31.5,-672 31.5,-672 31.5,-660 31.5,-660 31.5,-654 37.5,-648 43.5,-648 43.5,-648 90.5,-648 90.5,-648 96.5,-648 102.5,-654 102.5,-660 102.5,-660 102.5,-672 102.5,-672 102.5,-678 96.5,-684 90.5,-684"/>
<text text-anchor="middle" x="67" y="-663.5" font-family="sans" font-size="10.00">misc_tasks</text>
</g>
<!-- 2&#45;&gt;4 -->
<g id="edge9" class="edge">
<title>2&#45;&gt;4</title>
<path fill="none" stroke="grey" stroke-width="2" d="M91.09,-719.7C87.45,-711.73 83.05,-702.1 79.01,-693.26"/>
<polygon fill="grey" stroke="grey" stroke-width="2" points="82.16,-691.74 74.82,-684.1 75.79,-694.65 82.16,-691.74"/>
</g>
<!-- 9 -->
<g id="node10" class="node">
<title>9</title>
<path fill="none" stroke="#569ad8" stroke-width="2" d="M162,-540C162,-540 50,-540 50,-540 44,-540 38,-534 38,-528 38,-528 38,-516 38,-516 38,-510 44,-504 50,-504 50,-504 162,-504 162,-504 168,-504 174,-510 174,-516 174,-516 174,-528 174,-528 174,-534 168,-540 162,-540"/>
<text text-anchor="middle" x="106" y="-519.5" font-family="sans" font-size="10.00">quantify_counts_sample</text>
</g>
<!-- 2&#45;&gt;9 -->
<g id="edge22" class="edge">
<title>2&#45;&gt;9</title>
<path fill="none" stroke="grey" stroke-width="2" d="M103.87,-719.98C106.56,-709.67 109.64,-696.19 111,-684 116.22,-637.31 112.43,-582.56 109.22,-550.44"/>
<polygon fill="grey" stroke="grey" stroke-width="2" points="112.69,-550.03 108.16,-540.46 105.73,-550.77 112.69,-550.03"/>
</g>
<!-- 3&#45;&gt;1 -->
<g id="edge5" class="edge">
<title>3&#45;&gt;1</title>
<path fill="none" stroke="grey" stroke-width="2" d="M174.55,-650.15C142.13,-637.95 96.52,-620.79 64.83,-608.86"/>
<polygon fill="grey" stroke="grey" stroke-width="2" points="65.66,-605.43 55.06,-605.19 63.19,-611.98 65.66,-605.43"/>
</g>
<!-- 6 -->
<g id="node7" class="node">
<title>6</title>
<path fill="none" stroke="#56d86b" stroke-width="2" d="M489,-612C489,-612 383,-612 383,-612 377,-612 371,-606 371,-600 371,-600 371,-588 371,-588 371,-582 377,-576 383,-576 383,-576 489,-576 489,-576 495,-576 501,-582 501,-588 501,-588 501,-600 501,-600 501,-606 495,-612 489,-612"/>
<text text-anchor="middle" x="436" y="-591.5" font-family="sans" font-size="10.00">get_consensus_regions</text>
</g>
<!-- 3&#45;&gt;6 -->
<g id="edge13" class="edge">
<title>3&#45;&gt;6</title>
<path fill="none" stroke="grey" stroke-width="2" d="M253.18,-652.65C286.11,-642.26 333.83,-627.22 372.25,-615.1"/>
<polygon fill="grey" stroke="grey" stroke-width="2" points="373.32,-618.43 381.81,-612.09 371.22,-611.76 373.32,-618.43"/>
</g>
<!-- 12 -->
<g id="node13" class="node">
<title>12</title>
<path fill="none" stroke="#d89c56" stroke-width="2" d="M320,-540C320,-540 204,-540 204,-540 198,-540 192,-534 192,-528 192,-528 192,-516 192,-516 192,-510 198,-504 204,-504 204,-504 320,-504 320,-504 326,-504 332,-510 332,-516 332,-516 332,-528 332,-528 332,-534 326,-540 320,-540"/>
<text text-anchor="middle" x="262" y="-519.5" font-family="sans" font-size="10.00">quantify_support_sample</text>
</g>
<!-- 3&#45;&gt;12 -->
<g id="edge28" class="edge">
<title>3&#45;&gt;12</title>
<path fill="none" stroke="grey" stroke-width="2" d="M219.79,-647.87C228.01,-623.56 243.13,-578.82 252.87,-550.01"/>
<polygon fill="grey" stroke="grey" stroke-width="2" points="256.3,-550.78 256.19,-540.19 249.67,-548.54 256.3,-550.78"/>
</g>
<!-- 4&#45;&gt;1 -->
<g id="edge6" class="edge">
<title>4&#45;&gt;1</title>
<path fill="none" stroke="grey" stroke-width="2" d="M57.36,-647.7C52.87,-639.64 47.44,-629.89 42.48,-620.98"/>
<polygon fill="grey" stroke="grey" stroke-width="2" points="45.45,-619.14 37.53,-612.1 39.34,-622.54 45.45,-619.14"/>
</g>
<!-- 5 -->
<g id="node6" class="node">
<title>5</title>
<path fill="none" stroke="#56c9d8" stroke-width="2" d="M400.5,-108C400.5,-108 349.5,-108 349.5,-108 343.5,-108 337.5,-102 337.5,-96 337.5,-96 337.5,-84 337.5,-84 337.5,-78 343.5,-72 349.5,-72 349.5,-72 400.5,-72 400.5,-72 406.5,-72 412.5,-78 412.5,-84 412.5,-84 412.5,-96 412.5,-96 412.5,-102 406.5,-108 400.5,-108"/>
<text text-anchor="middle" x="375" y="-87.5" font-family="sans" font-size="10.00">plot_dimred</text>
</g>
<!-- 5&#45;&gt;0 -->
<g id="edge1" class="edge">
<title>5&#45;&gt;0</title>
<path fill="none" stroke="grey" stroke-width="2" d="M367.09,-71.7C363.45,-63.73 359.05,-54.1 355.01,-45.26"/>
<polygon fill="grey" stroke="grey" stroke-width="2" points="358.16,-43.74 350.82,-36.1 351.79,-46.65 358.16,-43.74"/>
</g>
<!-- 6&#45;&gt;5 -->
<g id="edge11" class="edge">
<title>6&#45;&gt;5</title>
<path fill="none" stroke="grey" stroke-width="2" d="M469.37,-575.96C483.97,-567.02 500.2,-554.82 511,-540 574.9,-452.29 584,-415.52 584,-307 584,-307 584,-307 584,-233 584,-155.5 484.47,-117.34 422.78,-101.13"/>
<polygon fill="grey" stroke="grey" stroke-width="2" points="423.4,-97.68 412.85,-98.63 421.69,-104.47 423.4,-97.68"/>
</g>
<!-- 8 -->
<g id="node9" class="node">
<title>8</title>
<path fill="none" stroke="#d8cb56" stroke-width="2" d="M231.5,-468C231.5,-468 106.5,-468 106.5,-468 100.5,-468 94.5,-462 94.5,-456 94.5,-456 94.5,-444 94.5,-444 94.5,-438 100.5,-432 106.5,-432 106.5,-432 231.5,-432 231.5,-432 237.5,-432 243.5,-438 243.5,-444 243.5,-444 243.5,-456 243.5,-456 243.5,-462 237.5,-468 231.5,-468"/>
<text text-anchor="middle" x="169" y="-447.5" font-family="sans" font-size="10.00">quantify_counts_aggregate</text>
</g>
<!-- 6&#45;&gt;8 -->
<g id="edge20" class="edge">
<title>6&#45;&gt;8</title>
<path fill="none" stroke="grey" stroke-width="2" d="M419.39,-575.67C397.09,-552.74 358.3,-514.04 341,-504 314.17,-488.43 282.28,-476.96 253.29,-468.76"/>
<polygon fill="grey" stroke="grey" stroke-width="2" points="254.16,-465.37 243.59,-466.11 252.31,-472.12 254.16,-465.37"/>
</g>
<!-- 6&#45;&gt;9 -->
<g id="edge21" class="edge">
<title>6&#45;&gt;9</title>
<path fill="none" stroke="grey" stroke-width="2" d="M370.96,-579.58C322.13,-569.45 253.35,-555.09 183.82,-540.17"/>
<polygon fill="grey" stroke="grey" stroke-width="2" points="184.52,-536.74 174.01,-538.06 183.05,-543.58 184.52,-536.74"/>
</g>
<!-- 10 -->
<g id="node11" class="node">
<title>10</title>
<path fill="none" stroke="#70d856" stroke-width="2" d="M436,-396C436,-396 380,-396 380,-396 374,-396 368,-390 368,-384 368,-384 368,-372 368,-372 368,-366 374,-360 380,-360 380,-360 436,-360 436,-360 442,-360 448,-366 448,-372 448,-372 448,-384 448,-384 448,-390 442,-396 436,-396"/>
<text text-anchor="middle" x="408" y="-375.5" font-family="sans" font-size="10.00">filter_regions</text>
</g>
<!-- 6&#45;&gt;10 -->
<g id="edge25" class="edge">
<title>6&#45;&gt;10</title>
<path fill="none" stroke="grey" stroke-width="2" d="M454.14,-575.87C483.83,-545.68 536.67,-481.53 507,-432 496.07,-413.76 476.49,-401.44 457.6,-393.31"/>
<polygon fill="grey" stroke="grey" stroke-width="2" points="458.72,-389.99 448.14,-389.54 456.13,-396.49 458.72,-389.99"/>
</g>
<!-- 11 -->
<g id="node12" class="node">
<title>11</title>
<path fill="none" stroke="#56d89a" stroke-width="2" d="M486,-468C486,-468 356,-468 356,-468 350,-468 344,-462 344,-456 344,-456 344,-444 344,-444 344,-438 350,-432 356,-432 356,-432 486,-432 486,-432 492,-432 498,-438 498,-444 498,-444 498,-456 498,-456 498,-462 492,-468 486,-468"/>
<text text-anchor="middle" x="421" y="-447.5" font-family="sans" font-size="10.00">quantify_support_aggregate</text>
</g>
<!-- 6&#45;&gt;11 -->
<g id="edge27" class="edge">
<title>6&#45;&gt;11</title>
<path fill="none" stroke="grey" stroke-width="2" d="M434.19,-575.87C431.63,-551.67 426.94,-507.21 423.89,-478.39"/>
<polygon fill="grey" stroke="grey" stroke-width="2" points="427.35,-477.77 422.82,-468.19 420.39,-478.5 427.35,-477.77"/>
</g>
<!-- 6&#45;&gt;12 -->
<g id="edge29" class="edge">
<title>6&#45;&gt;12</title>
<path fill="none" stroke="grey" stroke-width="2" d="M393.43,-575.88C369.44,-566.22 339.27,-554.09 313.9,-543.88"/>
<polygon fill="grey" stroke="grey" stroke-width="2" points="315.01,-540.55 304.43,-540.07 312.4,-547.05 315.01,-540.55"/>
</g>
<!-- 14 -->
<g id="node15" class="node">
<title>14</title>
<path fill="none" stroke="#b6d856" stroke-width="2" d="M318,-324C318,-324 250,-324 250,-324 244,-324 238,-318 238,-312 238,-312 238,-300 238,-300 238,-294 244,-288 250,-288 250,-288 318,-288 318,-288 324,-288 330,-294 330,-300 330,-300 330,-312 330,-312 330,-318 324,-324 318,-324"/>
<text text-anchor="middle" x="284" y="-303.5" font-family="sans" font-size="10.00">normalize_CQN</text>
</g>
<!-- 6&#45;&gt;14 -->
<g id="edge32" class="edge">
<title>6&#45;&gt;14</title>
<path fill="none" stroke="grey" stroke-width="2" d="M426.15,-575.67C415.14,-557.01 396.19,-526.94 376,-504 359.98,-485.8 348.26,-488.3 335,-468 307.51,-425.91 293.97,-367.99 288.02,-334.31"/>
<polygon fill="grey" stroke="grey" stroke-width="2" points="291.45,-333.57 286.35,-324.29 284.54,-334.72 291.45,-333.57"/>
</g>
<!-- 19 -->
<g id="node20" class="node">
<title>19</title>
<path fill="none" stroke="#566bd8" stroke-width="2" d="M888,-468C888,-468 774,-468 774,-468 768,-468 762,-462 762,-456 762,-456 762,-444 762,-444 762,-438 768,-432 774,-432 774,-432 888,-432 888,-432 894,-432 900,-438 900,-444 900,-444 900,-456 900,-456 900,-462 894,-468 888,-468"/>
<text text-anchor="middle" x="831" y="-447.5" font-family="sans" font-size="10.00">uropa_region_annotation</text>
</g>
<!-- 6&#45;&gt;19 -->
<g id="edge48" class="edge">
<title>6&#45;&gt;19</title>
<path fill="none" stroke="grey" stroke-width="2" d="M501.12,-576.74C537.36,-567.15 583.08,-554.13 623,-540 680.19,-519.75 744.1,-491.54 785.79,-472.34"/>
<polygon fill="grey" stroke="grey" stroke-width="2" points="787.51,-475.4 795.11,-468.03 784.57,-469.05 787.51,-475.4"/>
</g>
<!-- 20 -->
<g id="node21" class="node">
<title>20</title>
<path fill="none" stroke="#5682d8" stroke-width="2" d="M842.5,-540C842.5,-540 779.5,-540 779.5,-540 773.5,-540 767.5,-534 767.5,-528 767.5,-528 767.5,-516 767.5,-516 767.5,-510 773.5,-504 779.5,-504 779.5,-504 842.5,-504 842.5,-504 848.5,-504 854.5,-510 854.5,-516 854.5,-516 854.5,-528 854.5,-528 854.5,-534 848.5,-540 842.5,-540"/>
<text text-anchor="middle" x="811" y="-519.5" font-family="sans" font-size="10.00">uropa_prepare</text>
</g>
<!-- 6&#45;&gt;20 -->
<g id="edge49" class="edge">
<title>6&#45;&gt;20</title>
<path fill="none" stroke="grey" stroke-width="2" d="M501.02,-582.13C561.28,-571.88 653.36,-555.78 733,-540 740.93,-538.43 749.29,-536.69 757.47,-534.95"/>
<polygon fill="grey" stroke="grey" stroke-width="2" points="758.29,-538.35 767.33,-532.82 756.82,-531.51 758.29,-538.35"/>
</g>
<!-- 21 -->
<g id="node22" class="node">
<title>21</title>
<path fill="none" stroke="#d86e56" stroke-width="2" d="M732,-468C732,-468 614,-468 614,-468 608,-468 602,-462 602,-456 602,-456 602,-444 602,-444 602,-438 608,-432 614,-432 614,-432 732,-432 732,-432 738,-432 744,-438 744,-444 744,-444 744,-456 744,-456 744,-462 738,-468 732,-468"/>
<text text-anchor="middle" x="673" y="-447.5" font-family="sans" font-size="10.00">homer_region_annotation</text>
</g>
<!-- 6&#45;&gt;21 -->
<g id="edge50" class="edge">
<title>6&#45;&gt;21</title>
<path fill="none" stroke="grey" stroke-width="2" d="M501.19,-577.64C529.3,-569.2 561.68,-556.94 588,-540 614.57,-522.9 638.8,-495.86 654.54,-476.07"/>
<polygon fill="grey" stroke="grey" stroke-width="2" points="657.37,-478.12 660.74,-468.08 651.84,-473.83 657.37,-478.12"/>
</g>
<!-- 7 -->
<g id="node8" class="node">
<title>7</title>
<path fill="none" stroke="#d8b456" stroke-width="2" d="M356,-180C356,-180 318,-180 318,-180 312,-180 306,-174 306,-168 306,-168 306,-156 306,-156 306,-150 312,-144 318,-144 318,-144 356,-144 356,-144 362,-144 368,-150 368,-156 368,-156 368,-168 368,-168 368,-174 362,-180 356,-180"/>
<text text-anchor="middle" x="337" y="-159.5" font-family="sans" font-size="10.00">do_UMAP</text>
</g>
<!-- 7&#45;&gt;5 -->
<g id="edge10" class="edge">
<title>7&#45;&gt;5</title>
<path fill="none" stroke="grey" stroke-width="2" d="M346.39,-143.7C350.76,-135.64 356.06,-125.89 360.9,-116.98"/>
<polygon fill="grey" stroke="grey" stroke-width="2" points="364.02,-118.56 365.71,-108.1 357.87,-115.22 364.02,-118.56"/>
</g>
<!-- 8&#45;&gt;7 -->
<g id="edge15" class="edge">
<title>8&#45;&gt;7</title>
<path fill="none" stroke="grey" stroke-width="2" d="M169.8,-431.72C172.57,-390.04 184.86,-282.48 239,-216 253.8,-197.83 276.55,-184.98 296.4,-176.5"/>
<polygon fill="grey" stroke="grey" stroke-width="2" points="297.9,-179.66 305.87,-172.67 295.28,-173.17 297.9,-179.66"/>
</g>
<!-- 8&#45;&gt;10 -->
<g id="edge24" class="edge">
<title>8&#45;&gt;10</title>
<path fill="none" stroke="grey" stroke-width="2" d="M227.16,-431.97C267.24,-420.23 319.95,-404.79 358.12,-393.61"/>
<polygon fill="grey" stroke="grey" stroke-width="2" points="359.37,-396.89 367.98,-390.72 357.4,-390.17 359.37,-396.89"/>
</g>
<!-- 16 -->
<g id="node17" class="node">
<title>16</title>
<path fill="none" stroke="#9fd856" stroke-width="2" d="M428,-180C428,-180 398,-180 398,-180 392,-180 386,-174 386,-168 386,-168 386,-156 386,-156 386,-150 392,-144 398,-144 398,-144 428,-144 428,-144 434,-144 440,-150 440,-156 440,-156 440,-168 440,-168 440,-174 434,-180 428,-180"/>
<text text-anchor="middle" x="413" y="-159.5" font-family="sans" font-size="10.00">do_PCA</text>
</g>
<!-- 8&#45;&gt;16 -->
<g id="edge36" class="edge">
<title>8&#45;&gt;16</title>
<path fill="none" stroke="grey" stroke-width="2" d="M243.7,-441.83C316.99,-433.64 422.61,-418.42 457,-396 526.46,-350.73 547.66,-287.69 506,-216 493.91,-195.19 470.26,-181.88 449.83,-173.79"/>
<polygon fill="grey" stroke="grey" stroke-width="2" points="451.02,-170.5 440.43,-170.34 448.61,-177.07 451.02,-170.5"/>
</g>
<!-- 17 -->
<g id="node18" class="node">
<title>17</title>
<path fill="none" stroke="#56d8b1" stroke-width="2" d="M203.5,-180C203.5,-180 138.5,-180 138.5,-180 132.5,-180 126.5,-174 126.5,-168 126.5,-168 126.5,-156 126.5,-156 126.5,-150 132.5,-144 138.5,-144 138.5,-144 203.5,-144 203.5,-144 209.5,-144 215.5,-150 215.5,-156 215.5,-156 215.5,-168 215.5,-168 215.5,-174 209.5,-180 203.5,-180"/>
<text text-anchor="middle" x="171" y="-159.5" font-family="sans" font-size="10.00">plot_mean_var</text>
</g>
<!-- 8&#45;&gt;17 -->
<g id="edge41" class="edge">
<title>8&#45;&gt;17</title>
<path fill="none" stroke="grey" stroke-width="2" d="M135.16,-431.96C121.62,-423.22 107.48,-411.17 100,-396 92.93,-381.65 97.25,-375.76 100,-360 111.11,-296.39 140.99,-226.21 158.24,-189.2"/>
<polygon fill="grey" stroke="grey" stroke-width="2" points="161.43,-190.64 162.54,-180.1 155.1,-187.65 161.43,-190.64"/>
</g>
<!-- 9&#45;&gt;8 -->
<g id="edge19" class="edge">
<title>9&#45;&gt;8</title>
<path fill="none" stroke="grey" stroke-width="2" d="M121.57,-503.7C129.2,-495.22 138.52,-484.86 146.88,-475.58"/>
<polygon fill="grey" stroke="grey" stroke-width="2" points="149.52,-477.88 153.61,-468.1 144.31,-473.2 149.52,-477.88"/>
</g>
<!-- 10&#45;&gt;7 -->
<g id="edge14" class="edge">
<title>10&#45;&gt;7</title>
<path fill="none" stroke="grey" stroke-width="2" d="M426.6,-359.76C435.53,-350.2 445.29,-337.53 450,-324 455.26,-308.89 455.75,-302.93 450,-288 433.81,-245.94 396.18,-209.23 368.78,-186.67"/>
<polygon fill="grey" stroke="grey" stroke-width="2" points="370.63,-183.66 360.64,-180.13 366.24,-189.12 370.63,-183.66"/>
</g>
<!-- 13 -->
<g id="node14" class="node">
<title>13</title>
<path fill="none" stroke="#56d8c9" stroke-width="2" d="M429.5,-324C429.5,-324 360.5,-324 360.5,-324 354.5,-324 348.5,-318 348.5,-312 348.5,-312 348.5,-300 348.5,-300 348.5,-294 354.5,-288 360.5,-288 360.5,-288 429.5,-288 429.5,-288 435.5,-288 441.5,-294 441.5,-300 441.5,-300 441.5,-312 441.5,-312 441.5,-318 435.5,-324 429.5,-324"/>
<text text-anchor="middle" x="395" y="-303.5" font-family="sans" font-size="10.00">normalize_TMM</text>
</g>
<!-- 10&#45;&gt;13 -->
<g id="edge30" class="edge">
<title>10&#45;&gt;13</title>
<path fill="none" stroke="grey" stroke-width="2" d="M404.79,-359.7C403.35,-351.98 401.63,-342.71 400.04,-334.11"/>
<polygon fill="grey" stroke="grey" stroke-width="2" points="403.44,-333.3 398.18,-324.1 396.56,-334.58 403.44,-333.3"/>
</g>
<!-- 10&#45;&gt;14 -->
<g id="edge31" class="edge">
<title>10&#45;&gt;14</title>
<path fill="none" stroke="grey" stroke-width="2" d="M377.67,-359.88C361.3,-350.64 340.92,-339.13 323.35,-329.21"/>
<polygon fill="grey" stroke="grey" stroke-width="2" points="324.88,-326.06 314.45,-324.19 321.44,-332.15 324.88,-326.06"/>
</g>
<!-- 10&#45;&gt;16 -->
<g id="edge35" class="edge">
<title>10&#45;&gt;16</title>
<path fill="none" stroke="grey" stroke-width="2" d="M446.78,-359.78C461.18,-351.24 475.96,-339.4 484,-324 506.2,-281.44 505.51,-258.91 484,-216 476.48,-201 462.47,-189.16 448.87,-180.51"/>
<polygon fill="grey" stroke="grey" stroke-width="2" points="450.46,-177.38 440.07,-175.28 446.88,-183.4 450.46,-177.38"/>
</g>
<!-- 10&#45;&gt;17 -->
<g id="edge40" class="edge">
<title>10&#45;&gt;17</title>
<path fill="none" stroke="grey" stroke-width="2" d="M367.8,-371.37C329.78,-364.66 272.26,-350.8 229,-324 191.84,-300.98 178,-292.68 162,-252 154.17,-232.09 157.37,-207.84 162,-189.69"/>
<polygon fill="grey" stroke="grey" stroke-width="2" points="165.38,-190.61 164.74,-180.04 158.64,-188.7 165.38,-190.61"/>
</g>
<!-- 11&#45;&gt;10 -->
<g id="edge23" class="edge">
<title>11&#45;&gt;10</title>
<path fill="none" stroke="grey" stroke-width="2" d="M417.79,-431.7C416.35,-423.98 414.63,-414.71 413.04,-406.11"/>
<polygon fill="grey" stroke="grey" stroke-width="2" points="416.44,-405.3 411.18,-396.1 409.56,-406.58 416.44,-405.3"/>
</g>
<!-- 12&#45;&gt;11 -->
<g id="edge26" class="edge">
<title>12&#45;&gt;11</title>
<path fill="none" stroke="grey" stroke-width="2" d="M300.9,-503.88C322.63,-494.31 349.9,-482.3 372.96,-472.15"/>
<polygon fill="grey" stroke="grey" stroke-width="2" points="374.49,-475.3 382.23,-468.07 371.67,-468.89 374.49,-475.3"/>
</g>
<!-- 13&#45;&gt;7 -->
<g id="edge18" class="edge">
<title>13&#45;&gt;7</title>
<path fill="none" stroke="grey" stroke-width="2" d="M388,-287.87C378.03,-263.46 359.64,-218.43 347.88,-189.64"/>
<polygon fill="grey" stroke="grey" stroke-width="2" points="351.04,-188.12 344.02,-180.19 344.56,-190.77 351.04,-188.12"/>
</g>
<!-- 15 -->
<g id="node16" class="node">
<title>15</title>
<path fill="none" stroke="#ced856" stroke-width="2" d="M316,-252C316,-252 268,-252 268,-252 262,-252 256,-246 256,-240 256,-240 256,-228 256,-228 256,-222 262,-216 268,-216 268,-216 316,-216 316,-216 322,-216 328,-222 328,-228 328,-228 328,-240 328,-240 328,-246 322,-252 316,-252"/>
<text text-anchor="middle" x="292" y="-231.5" font-family="sans" font-size="10.00">select_HVR</text>
</g>
<!-- 13&#45;&gt;15 -->
<g id="edge34" class="edge">
<title>13&#45;&gt;15</title>
<path fill="none" stroke="grey" stroke-width="2" d="M369.8,-287.88C356.59,-278.89 340.21,-267.76 325.89,-258.03"/>
<polygon fill="grey" stroke="grey" stroke-width="2" points="327.53,-254.92 317.29,-252.19 323.6,-260.71 327.53,-254.92"/>
</g>
<!-- 13&#45;&gt;16 -->
<g id="edge39" class="edge">
<title>13&#45;&gt;16</title>
<path fill="none" stroke="grey" stroke-width="2" d="M400.02,-287.97C402.86,-277.66 406.18,-264.18 408,-252 411.07,-231.47 412.29,-208.01 412.77,-190.34"/>
<polygon fill="grey" stroke="grey" stroke-width="2" points="416.27,-190.23 412.97,-180.16 409.27,-190.08 416.27,-190.23"/>
</g>
<!-- 13&#45;&gt;17 -->
<g id="edge44" class="edge">
<title>13&#45;&gt;17</title>
<path fill="none" stroke="grey" stroke-width="2" d="M348.13,-289.56C308.12,-276.17 255.7,-258.01 247,-252 222.49,-235.09 201.14,-208.37 187.36,-188.62"/>
<polygon fill="grey" stroke="grey" stroke-width="2" points="190.08,-186.41 181.57,-180.09 184.29,-190.33 190.08,-186.41"/>
</g>
<!-- 14&#45;&gt;7 -->
<g id="edge17" class="edge">
<title>14&#45;&gt;7</title>
<path fill="none" stroke="grey" stroke-width="2" d="M267.54,-287.67C252.17,-269.29 233.46,-239.68 247,-216 257.65,-197.37 277.69,-184.63 296.17,-176.33"/>
<polygon fill="grey" stroke="grey" stroke-width="2" points="297.74,-179.46 305.62,-172.38 295.05,-173 297.74,-179.46"/>
</g>
<!-- 14&#45;&gt;15 -->
<g id="edge33" class="edge">
<title>14&#45;&gt;15</title>
<path fill="none" stroke="grey" stroke-width="2" d="M285.98,-287.7C286.86,-279.98 287.92,-270.71 288.9,-262.11"/>
<polygon fill="grey" stroke="grey" stroke-width="2" points="292.39,-262.44 290.05,-252.1 285.43,-261.64 292.39,-262.44"/>
</g>
<!-- 14&#45;&gt;16 -->
<g id="edge38" class="edge">
<title>14&#45;&gt;16</title>
<path fill="none" stroke="grey" stroke-width="2" d="M302.02,-287.67C312.44,-277.48 325.69,-264.23 337,-252 356.49,-230.91 377.63,-205.98 392.65,-187.87"/>
<polygon fill="grey" stroke="grey" stroke-width="2" points="395.43,-190.01 399.1,-180.07 390.03,-185.55 395.43,-190.01"/>
</g>
<!-- 14&#45;&gt;17 -->
<g id="edge43" class="edge">
<title>14&#45;&gt;17</title>
<path fill="none" stroke="grey" stroke-width="2" d="M237.78,-294.1C215.27,-286.27 190.08,-273.24 176,-252 164.08,-234.02 163.66,-209.23 165.75,-190.37"/>
<polygon fill="grey" stroke="grey" stroke-width="2" points="169.24,-190.71 167.16,-180.33 162.3,-189.74 169.24,-190.71"/>
</g>
<!-- 15&#45;&gt;7 -->
<g id="edge16" class="edge">
<title>15&#45;&gt;7</title>
<path fill="none" stroke="grey" stroke-width="2" d="M303.12,-215.7C308.36,-207.56 314.7,-197.69 320.48,-188.7"/>
<polygon fill="grey" stroke="grey" stroke-width="2" points="323.54,-190.41 326,-180.1 317.65,-186.62 323.54,-190.41"/>
</g>
<!-- 15&#45;&gt;16 -->
<g id="edge37" class="edge">
<title>15&#45;&gt;16</title>
<path fill="none" stroke="grey" stroke-width="2" d="M321.6,-215.88C338.28,-206.23 359.25,-194.1 376.89,-183.89"/>
<polygon fill="grey" stroke="grey" stroke-width="2" points="378.87,-186.79 385.77,-178.75 375.37,-180.73 378.87,-186.79"/>
</g>
<!-- 15&#45;&gt;17 -->
<g id="edge42" class="edge">
<title>15&#45;&gt;17</title>
<path fill="none" stroke="grey" stroke-width="2" d="M262.4,-215.88C246.43,-206.64 226.54,-195.13 209.39,-185.21"/>
<polygon fill="grey" stroke="grey" stroke-width="2" points="211.12,-182.17 200.71,-180.19 207.62,-188.23 211.12,-182.17"/>
</g>
<!-- 16&#45;&gt;5 -->
<g id="edge12" class="edge">
<title>16&#45;&gt;5</title>
<path fill="none" stroke="grey" stroke-width="2" d="M403.61,-143.7C399.24,-135.64 393.94,-125.89 389.1,-116.98"/>
<polygon fill="grey" stroke="grey" stroke-width="2" points="392.13,-115.22 384.29,-108.1 385.98,-118.56 392.13,-115.22"/>
</g>
<!-- 17&#45;&gt;0 -->
<g id="edge4" class="edge">
<title>17&#45;&gt;0</title>
<path fill="none" stroke="grey" stroke-width="2" d="M191.75,-143.87C222.35,-118.6 279.71,-71.25 314.32,-42.68"/>
<polygon fill="grey" stroke="grey" stroke-width="2" points="316.7,-45.25 322.18,-36.19 312.24,-39.86 316.7,-45.25"/>
</g>
<!-- 18 -->
<g id="node19" class="node">
<title>18</title>
<path fill="none" stroke="#59d856" stroke-width="2" d="M760,-396C760,-396 624,-396 624,-396 618,-396 612,-390 612,-384 612,-384 612,-372 612,-372 612,-366 618,-360 624,-360 624,-360 760,-360 760,-360 766,-360 772,-366 772,-372 772,-372 772,-384 772,-384 772,-390 766,-396 760,-396"/>
<text text-anchor="middle" x="692" y="-375.5" font-family="sans" font-size="10.00">region_annotation_aggregate</text>
</g>
<!-- 18&#45;&gt;0 -->
<g id="edge3" class="edge">
<title>18&#45;&gt;0</title>
<path fill="none" stroke="grey" stroke-width="2" d="M684.92,-359.85C674.69,-333.49 657,-281.21 657,-235 657,-235 657,-235 657,-161 657,-40.66 463.15,-21.76 380.07,-19.19"/>
<polygon fill="grey" stroke="grey" stroke-width="2" points="380.13,-15.69 370.04,-18.94 379.95,-22.69 380.13,-15.69"/>
</g>
<!-- 19&#45;&gt;18 -->
<g id="edge45" class="edge">
<title>19&#45;&gt;18</title>
<path fill="none" stroke="grey" stroke-width="2" d="M797,-431.88C778.4,-422.51 755.17,-410.81 735.29,-400.8"/>
<polygon fill="grey" stroke="grey" stroke-width="2" points="736.64,-397.56 726.13,-396.19 733.49,-403.81 736.64,-397.56"/>
</g>
<!-- 20&#45;&gt;19 -->
<g id="edge47" class="edge">
<title>20&#45;&gt;19</title>
<path fill="none" stroke="grey" stroke-width="2" d="M815.94,-503.7C818.17,-495.9 820.85,-486.51 823.33,-477.83"/>
<polygon fill="grey" stroke="grey" stroke-width="2" points="826.73,-478.68 826.11,-468.1 820,-476.76 826.73,-478.68"/>
</g>
<!-- 21&#45;&gt;18 -->
<g id="edge46" class="edge">
<title>21&#45;&gt;18</title>
<path fill="none" stroke="grey" stroke-width="2" d="M677.7,-431.7C679.81,-423.9 682.36,-414.51 684.72,-405.83"/>
<polygon fill="grey" stroke="grey" stroke-width="2" points="688.12,-406.67 687.36,-396.1 681.36,-404.84 688.12,-406.67"/>
</g>
</g>
</svg>
