<?xml version="1.0" encoding="UTF-8" standalone="no"?>
<!DOCTYPE svg PUBLIC "-//W3C//DTD SVG 1.1//EN"
 "http://www.w3.org/Graphics/SVG/1.1/DTD/svg11.dtd">
<!-- Generated by graphviz version 2.47.0 (20210327.0129)
 -->
<!-- Title: snakemake_dag Pages: 1 -->
<svg width="381pt" height="476pt"
 viewBox="0.00 0.00 380.99 476.00" xmlns="http://www.w3.org/2000/svg" xmlns:xlink="http://www.w3.org/1999/xlink">
<g id="graph0" class="graph" transform="scale(1 1) rotate(0) translate(4 472)">
<title>snakemake_dag</title>
<polygon fill="white" stroke="transparent" points="-4,4 -4,-472 376.99,-472 376.99,4 -4,4"/>
<!-- 0 -->
<g id="node1" class="node">
<title>0</title>
<path fill="none" stroke="#59d856" stroke-width="2" d="M140.99,-36C140.99,-36 110.99,-36 110.99,-36 104.99,-36 98.99,-30 98.99,-24 98.99,-24 98.99,-12 98.99,-12 98.99,-6 104.99,0 110.99,0 110.99,0 140.99,0 140.99,0 146.99,0 152.99,-6 152.99,-12 152.99,-12 152.99,-24 152.99,-24 152.99,-30 146.99,-36 140.99,-36"/>
<text text-anchor="middle" x="125.99" y="-15.5" font-family="sans" font-size="10.00">all</text>
</g>
<!-- 1 -->
<g id="node2" class="node">
<title>1</title>
<path fill="none" stroke="#56a9d8" stroke-width="2" d="M63.99,-324C63.99,-324 33.99,-324 33.99,-324 27.99,-324 21.99,-318 21.99,-312 21.99,-312 21.99,-300 21.99,-300 21.99,-294 27.99,-288 33.99,-288 33.99,-288 63.99,-288 63.99,-288 69.99,-288 75.99,-294 75.99,-300 75.99,-300 75.99,-312 75.99,-312 75.99,-318 69.99,-324 63.99,-324"/>
<text text-anchor="middle" x="48.99" y="-303.5" font-family="sans" font-size="10.00">multiqc</text>
</g>
<!-- 1&#45;&gt;0 -->
<g id="edge3" class="edge">
<title>1&#45;&gt;0</title>
<path fill="none" stroke="grey" stroke-width="2" d="M49.07,-287.72C49.62,-257.85 52.57,-194.87 66.99,-144 77.2,-107.97 96.89,-69.41 110.71,-44.8"/>
<polygon fill="grey" stroke="grey" stroke-width="2" points="113.76,-46.51 115.68,-36.09 107.68,-43.04 113.76,-46.51"/>
</g>
<!-- 2 -->
<g id="node3" class="node">
<title>2</title>
<path fill="none" stroke="#56d8a9" stroke-width="2" d="M108.49,-468C108.49,-468 47.49,-468 47.49,-468 41.49,-468 35.49,-462 35.49,-456 35.49,-456 35.49,-444 35.49,-444 35.49,-438 41.49,-432 47.49,-432 47.49,-432 108.49,-432 108.49,-432 114.49,-432 120.49,-438 120.49,-444 120.49,-444 120.49,-456 120.49,-456 120.49,-462 114.49,-468 108.49,-468"/>
<text text-anchor="middle" x="77.99" y="-447.5" font-family="sans" font-size="10.00">bowtie2_align</text>
</g>
<!-- 2&#45;&gt;1 -->
<g id="edge6" class="edge">
<title>2&#45;&gt;1</title>
<path fill="none" stroke="grey" stroke-width="2" d="M41.48,-431.92C27.39,-423.29 12.82,-411.35 4.99,-396 -2.27,-381.75 -0.44,-375.05 4.99,-360 8.75,-349.6 15.53,-339.8 22.66,-331.52"/>
<polygon fill="grey" stroke="grey" stroke-width="2" points="25.31,-333.81 29.52,-324.08 20.17,-329.06 25.31,-333.81"/>
</g>
<!-- 3 -->
<g id="node4" class="node">
<title>3</title>
<path fill="none" stroke="#d85656" stroke-width="2" d="M220.99,-396C220.99,-396 166.99,-396 166.99,-396 160.99,-396 154.99,-390 154.99,-384 154.99,-384 154.99,-372 154.99,-372 154.99,-366 160.99,-360 166.99,-360 166.99,-360 220.99,-360 220.99,-360 226.99,-360 232.99,-366 232.99,-372 232.99,-372 232.99,-384 232.99,-384 232.99,-390 226.99,-396 220.99,-396"/>
<text text-anchor="middle" x="193.99" y="-375.5" font-family="sans" font-size="10.00">peak_calling</text>
</g>
<!-- 2&#45;&gt;3 -->
<g id="edge9" class="edge">
<title>2&#45;&gt;3</title>
<path fill="none" stroke="grey" stroke-width="2" d="M106.37,-431.88C121.54,-422.72 140.4,-411.34 156.73,-401.48"/>
<polygon fill="grey" stroke="grey" stroke-width="2" points="158.75,-404.35 165.51,-396.19 155.14,-398.36 158.75,-404.35"/>
</g>
<!-- 5 -->
<g id="node6" class="node">
<title>5</title>
<path fill="none" stroke="#d88556" stroke-width="2" d="M73.49,-396C73.49,-396 26.49,-396 26.49,-396 20.49,-396 14.49,-390 14.49,-384 14.49,-384 14.49,-372 14.49,-372 14.49,-366 20.49,-360 26.49,-360 26.49,-360 73.49,-360 73.49,-360 79.49,-360 85.49,-366 85.49,-372 85.49,-372 85.49,-384 85.49,-384 85.49,-390 79.49,-396 73.49,-396"/>
<text text-anchor="middle" x="49.99" y="-375.5" font-family="sans" font-size="10.00">misc_tasks</text>
</g>
<!-- 2&#45;&gt;5 -->
<g id="edge10" class="edge">
<title>2&#45;&gt;5</title>
<path fill="none" stroke="grey" stroke-width="2" d="M71.07,-431.7C67.92,-423.81 64.11,-414.3 60.61,-405.55"/>
<polygon fill="grey" stroke="grey" stroke-width="2" points="63.8,-404.09 56.83,-396.1 57.3,-406.69 63.8,-404.09"/>
</g>
<!-- 10 -->
<g id="node11" class="node">
<title>10</title>
<path fill="none" stroke="#d6d856" stroke-width="2" d="M199.99,-252C199.99,-252 87.99,-252 87.99,-252 81.99,-252 75.99,-246 75.99,-240 75.99,-240 75.99,-228 75.99,-228 75.99,-222 81.99,-216 87.99,-216 87.99,-216 199.99,-216 199.99,-216 205.99,-216 211.99,-222 211.99,-228 211.99,-228 211.99,-240 211.99,-240 211.99,-246 205.99,-252 199.99,-252"/>
<text text-anchor="middle" x="143.99" y="-231.5" font-family="sans" font-size="10.00">quantify_counts_sample</text>
</g>
<!-- 2&#45;&gt;10 -->
<g id="edge17" class="edge">
<title>2&#45;&gt;10</title>
<path fill="none" stroke="grey" stroke-width="2" d="M83.28,-431.85C94.75,-394.68 121.96,-306.44 135.72,-261.82"/>
<polygon fill="grey" stroke="grey" stroke-width="2" points="139.07,-262.82 138.68,-252.23 132.38,-260.76 139.07,-262.82"/>
</g>
<!-- 3&#45;&gt;1 -->
<g id="edge5" class="edge">
<title>3&#45;&gt;1</title>
<path fill="none" stroke="grey" stroke-width="2" d="M158.52,-359.88C136.37,-349.18 107.9,-335.44 85.55,-324.65"/>
<polygon fill="grey" stroke="grey" stroke-width="2" points="86.9,-321.42 76.38,-320.22 83.86,-327.72 86.9,-321.42"/>
</g>
<!-- 7 -->
<g id="node8" class="node">
<title>7</title>
<path fill="none" stroke="#56d8d8" stroke-width="2" d="M357.99,-252C357.99,-252 241.99,-252 241.99,-252 235.99,-252 229.99,-246 229.99,-240 229.99,-240 229.99,-228 229.99,-228 229.99,-222 235.99,-216 241.99,-216 241.99,-216 357.99,-216 357.99,-216 363.99,-216 369.99,-222 369.99,-228 369.99,-228 369.99,-240 369.99,-240 369.99,-246 363.99,-252 357.99,-252"/>
<text text-anchor="middle" x="299.99" y="-231.5" font-family="sans" font-size="10.00">quantify_support_sample</text>
</g>
<!-- 3&#45;&gt;7 -->
<g id="edge13" class="edge">
<title>3&#45;&gt;7</title>
<path fill="none" stroke="grey" stroke-width="2" d="M233.39,-361.57C250.47,-352.97 269.22,-340.59 280.99,-324 293.74,-306.03 298.23,-281.24 299.69,-262.39"/>
<polygon fill="grey" stroke="grey" stroke-width="2" points="303.19,-262.51 300.22,-252.33 296.2,-262.13 303.19,-262.51"/>
</g>
<!-- 8 -->
<g id="node9" class="node">
<title>8</title>
<path fill="none" stroke="#56d882" stroke-width="2" d="M259.99,-324C259.99,-324 153.99,-324 153.99,-324 147.99,-324 141.99,-318 141.99,-312 141.99,-312 141.99,-300 141.99,-300 141.99,-294 147.99,-288 153.99,-288 153.99,-288 259.99,-288 259.99,-288 265.99,-288 271.99,-294 271.99,-300 271.99,-300 271.99,-312 271.99,-312 271.99,-318 265.99,-324 259.99,-324"/>
<text text-anchor="middle" x="206.99" y="-303.5" font-family="sans" font-size="10.00">get_consensus_regions</text>
</g>
<!-- 3&#45;&gt;8 -->
<g id="edge14" class="edge">
<title>3&#45;&gt;8</title>
<path fill="none" stroke="grey" stroke-width="2" d="M197.2,-359.7C198.64,-351.98 200.36,-342.71 201.96,-334.11"/>
<polygon fill="grey" stroke="grey" stroke-width="2" points="205.43,-334.58 203.81,-324.1 198.55,-333.3 205.43,-334.58"/>
</g>
<!-- 4 -->
<g id="node5" class="node">
<title>4</title>
<path fill="none" stroke="#afd856" stroke-width="2" d="M223.49,-468C223.49,-468 164.49,-468 164.49,-468 158.49,-468 152.49,-462 152.49,-456 152.49,-456 152.49,-444 152.49,-444 152.49,-438 158.49,-432 164.49,-432 164.49,-432 223.49,-432 223.49,-432 229.49,-432 235.49,-438 235.49,-444 235.49,-444 235.49,-456 235.49,-456 235.49,-462 229.49,-468 223.49,-468"/>
<text text-anchor="middle" x="193.99" y="-447.5" font-family="sans" font-size="10.00">install_homer</text>
</g>
<!-- 4&#45;&gt;3 -->
<g id="edge8" class="edge">
<title>4&#45;&gt;3</title>
<path fill="none" stroke="grey" stroke-width="2" d="M193.99,-431.7C193.99,-423.98 193.99,-414.71 193.99,-406.11"/>
<polygon fill="grey" stroke="grey" stroke-width="2" points="197.49,-406.1 193.99,-396.1 190.49,-406.1 197.49,-406.1"/>
</g>
<!-- 5&#45;&gt;1 -->
<g id="edge7" class="edge">
<title>5&#45;&gt;1</title>
<path fill="none" stroke="grey" stroke-width="2" d="M49.74,-359.7C49.63,-351.98 49.5,-342.71 49.38,-334.11"/>
<polygon fill="grey" stroke="grey" stroke-width="2" points="52.88,-334.05 49.24,-324.1 45.88,-334.15 52.88,-334.05"/>
</g>
<!-- 6 -->
<g id="node7" class="node">
<title>6</title>
<path fill="none" stroke="#5682d8" stroke-width="2" d="M360.99,-108C360.99,-108 230.99,-108 230.99,-108 224.99,-108 218.99,-102 218.99,-96 218.99,-96 218.99,-84 218.99,-84 218.99,-78 224.99,-72 230.99,-72 230.99,-72 360.99,-72 360.99,-72 366.99,-72 372.99,-78 372.99,-84 372.99,-84 372.99,-96 372.99,-96 372.99,-102 366.99,-108 360.99,-108"/>
<text text-anchor="middle" x="295.99" y="-87.5" font-family="sans" font-size="10.00">quantify_support_aggregate</text>
</g>
<!-- 6&#45;&gt;0 -->
<g id="edge4" class="edge">
<title>6&#45;&gt;0</title>
<path fill="none" stroke="grey" stroke-width="2" d="M254.4,-71.88C226.3,-60.3 189.55,-45.17 162.56,-34.06"/>
<polygon fill="grey" stroke="grey" stroke-width="2" points="163.68,-30.73 153.1,-30.16 161.01,-37.2 163.68,-30.73"/>
</g>
<!-- 7&#45;&gt;6 -->
<g id="edge11" class="edge">
<title>7&#45;&gt;6</title>
<path fill="none" stroke="grey" stroke-width="2" d="M299.51,-215.87C298.83,-191.67 297.57,-147.21 296.76,-118.39"/>
<polygon fill="grey" stroke="grey" stroke-width="2" points="300.26,-118.09 296.48,-108.19 293.26,-118.28 300.26,-118.09"/>
</g>
<!-- 8&#45;&gt;7 -->
<g id="edge12" class="edge">
<title>8&#45;&gt;7</title>
<path fill="none" stroke="grey" stroke-width="2" d="M229.98,-287.7C241.81,-278.8 256.38,-267.82 269.17,-258.2"/>
<polygon fill="grey" stroke="grey" stroke-width="2" points="271.38,-260.91 277.27,-252.1 267.17,-255.32 271.38,-260.91"/>
</g>
<!-- 8&#45;&gt;10 -->
<g id="edge16" class="edge">
<title>8&#45;&gt;10</title>
<path fill="none" stroke="grey" stroke-width="2" d="M191.42,-287.7C183.79,-279.22 174.47,-268.86 166.12,-259.58"/>
<polygon fill="grey" stroke="grey" stroke-width="2" points="168.68,-257.2 159.39,-252.1 163.47,-261.88 168.68,-257.2"/>
</g>
<!-- 9 -->
<g id="node10" class="node">
<title>9</title>
<path fill="none" stroke="#80d856" stroke-width="2" d="M212.49,-180C212.49,-180 87.49,-180 87.49,-180 81.49,-180 75.49,-174 75.49,-168 75.49,-168 75.49,-156 75.49,-156 75.49,-150 81.49,-144 87.49,-144 87.49,-144 212.49,-144 212.49,-144 218.49,-144 224.49,-150 224.49,-156 224.49,-156 224.49,-168 224.49,-168 224.49,-174 218.49,-180 212.49,-180"/>
<text text-anchor="middle" x="149.99" y="-159.5" font-family="sans" font-size="10.00">quantify_counts_aggregate</text>
</g>
<!-- 9&#45;&gt;0 -->
<g id="edge1" class="edge">
<title>9&#45;&gt;0</title>
<path fill="none" stroke="grey" stroke-width="2" d="M133.95,-143.85C125.98,-134.12 117.17,-121.27 112.99,-108 106.58,-87.61 110.74,-63.58 116,-45.63"/>
<polygon fill="grey" stroke="grey" stroke-width="2" points="119.34,-46.68 119.07,-36.09 112.68,-44.54 119.34,-46.68"/>
</g>
<!-- 11 -->
<g id="node12" class="node">
<title>11</title>
<path fill="none" stroke="#d8ac56" stroke-width="2" d="M184.49,-108C184.49,-108 133.49,-108 133.49,-108 127.49,-108 121.49,-102 121.49,-96 121.49,-96 121.49,-84 121.49,-84 121.49,-78 127.49,-72 133.49,-72 133.49,-72 184.49,-72 184.49,-72 190.49,-72 196.49,-78 196.49,-84 196.49,-84 196.49,-96 196.49,-96 196.49,-102 190.49,-108 184.49,-108"/>
<text text-anchor="middle" x="158.99" y="-87.5" font-family="sans" font-size="10.00">plot_dimred</text>
</g>
<!-- 9&#45;&gt;11 -->
<g id="edge18" class="edge">
<title>9&#45;&gt;11</title>
<path fill="none" stroke="grey" stroke-width="2" d="M152.22,-143.7C153.21,-135.98 154.4,-126.71 155.51,-118.11"/>
<polygon fill="grey" stroke="grey" stroke-width="2" points="158.99,-118.47 156.79,-108.1 152.05,-117.58 158.99,-118.47"/>
</g>
<!-- 10&#45;&gt;9 -->
<g id="edge15" class="edge">
<title>10&#45;&gt;9</title>
<path fill="none" stroke="grey" stroke-width="2" d="M145.47,-215.7C146.14,-207.98 146.93,-198.71 147.67,-190.11"/>
<polygon fill="grey" stroke="grey" stroke-width="2" points="151.16,-190.37 148.53,-180.1 144.18,-189.77 151.16,-190.37"/>
</g>
<!-- 11&#45;&gt;0 -->
<g id="edge2" class="edge">
<title>11&#45;&gt;0</title>
<path fill="none" stroke="grey" stroke-width="2" d="M150.83,-71.7C147.08,-63.73 142.54,-54.1 138.37,-45.26"/>
<polygon fill="grey" stroke="grey" stroke-width="2" points="141.48,-43.66 134.05,-36.1 135.15,-46.64 141.48,-43.66"/>
</g>
</g>
</svg>
