<?xml version="1.0" encoding="UTF-8" standalone="no"?>
<!DOCTYPE svg PUBLIC "-//W3C//DTD SVG 1.1//EN"
 "http://www.w3.org/Graphics/SVG/1.1/DTD/svg11.dtd">
<!-- Generated by graphviz version 2.47.0 (20210327.0129)
 -->
<!-- Title: snakemake_dag Pages: 1 -->
<svg width="196pt" height="260pt"
 viewBox="0.00 0.00 195.53 260.00" xmlns="http://www.w3.org/2000/svg" xmlns:xlink="http://www.w3.org/1999/xlink">
<g id="graph0" class="graph" transform="scale(1 1) rotate(0) translate(4 256)">
<title>snakemake_dag</title>
<polygon fill="white" stroke="transparent" points="-4,4 -4,-256 191.53,-256 191.53,4 -4,4"/>
<!-- 0 -->
<g id="node1" class="node">
<title>0</title>
<path fill="none" stroke="#59d856" stroke-width="2" d="M64.03,-36C64.03,-36 34.03,-36 34.03,-36 28.03,-36 22.03,-30 22.03,-24 22.03,-24 22.03,-12 22.03,-12 22.03,-6 28.03,0 34.03,0 34.03,0 64.03,0 64.03,0 70.03,0 76.03,-6 76.03,-12 76.03,-12 76.03,-24 76.03,-24 76.03,-30 70.03,-36 64.03,-36"/>
<text text-anchor="middle" x="49.03" y="-15.5" font-family="sans" font-size="10.00">all</text>
</g>
<!-- 1 -->
<g id="node2" class="node">
<title>1</title>
<path fill="none" stroke="#56d8a9" stroke-width="2" d="M64.03,-108C64.03,-108 34.03,-108 34.03,-108 28.03,-108 22.03,-102 22.03,-96 22.03,-96 22.03,-84 22.03,-84 22.03,-78 28.03,-72 34.03,-72 34.03,-72 64.03,-72 64.03,-72 70.03,-72 76.03,-78 76.03,-84 76.03,-84 76.03,-96 76.03,-96 76.03,-102 70.03,-108 64.03,-108"/>
<text text-anchor="middle" x="49.03" y="-87.5" font-family="sans" font-size="10.00">mutliqc</text>
</g>
<!-- 1&#45;&gt;0 -->
<g id="edge1" class="edge">
<title>1&#45;&gt;0</title>
<path fill="none" stroke="grey" stroke-width="2" d="M49.03,-71.7C49.03,-63.98 49.03,-54.71 49.03,-46.11"/>
<polygon fill="grey" stroke="grey" stroke-width="2" points="52.53,-46.1 49.03,-36.1 45.53,-46.1 52.53,-46.1"/>
</g>
<!-- 2 -->
<g id="node3" class="node">
<title>2</title>
<path fill="none" stroke="#d85656" stroke-width="2" d="M74.53,-252C74.53,-252 13.53,-252 13.53,-252 7.53,-252 1.53,-246 1.53,-240 1.53,-240 1.53,-228 1.53,-228 1.53,-222 7.53,-216 13.53,-216 13.53,-216 74.53,-216 74.53,-216 80.53,-216 86.53,-222 86.53,-228 86.53,-228 86.53,-240 86.53,-240 86.53,-246 80.53,-252 74.53,-252"/>
<text text-anchor="middle" x="44.03" y="-231.5" font-family="sans" font-size="10.00">bowtie2_align</text>
</g>
<!-- 2&#45;&gt;1 -->
<g id="edge3" class="edge">
<title>2&#45;&gt;1</title>
<path fill="none" stroke="grey" stroke-width="2" d="M26.3,-215.6C17.79,-206 8.5,-193.34 4.03,-180 -1.05,-164.83 -1.49,-159.02 4.03,-144 7.81,-133.7 14.59,-124.02 21.75,-115.84"/>
<polygon fill="grey" stroke="grey" stroke-width="2" points="24.37,-118.16 28.65,-108.47 19.26,-113.38 24.37,-118.16"/>
</g>
<!-- 3 -->
<g id="node4" class="node">
<title>3</title>
<path fill="none" stroke="#afd856" stroke-width="2" d="M169.03,-180C169.03,-180 115.03,-180 115.03,-180 109.03,-180 103.03,-174 103.03,-168 103.03,-168 103.03,-156 103.03,-156 103.03,-150 109.03,-144 115.03,-144 115.03,-144 169.03,-144 169.03,-144 175.03,-144 181.03,-150 181.03,-156 181.03,-156 181.03,-168 181.03,-168 181.03,-174 175.03,-180 169.03,-180"/>
<text text-anchor="middle" x="142.03" y="-159.5" font-family="sans" font-size="10.00">peak_calling</text>
</g>
<!-- 2&#45;&gt;3 -->
<g id="edge6" class="edge">
<title>2&#45;&gt;3</title>
<path fill="none" stroke="grey" stroke-width="2" d="M68,-215.88C80.58,-206.89 96.16,-195.76 109.78,-186.03"/>
<polygon fill="grey" stroke="grey" stroke-width="2" points="111.86,-188.85 117.96,-180.19 107.79,-183.15 111.86,-188.85"/>
</g>
<!-- 5 -->
<g id="node6" class="node">
<title>5</title>
<path fill="none" stroke="#56a9d8" stroke-width="2" d="M72.53,-180C72.53,-180 25.53,-180 25.53,-180 19.53,-180 13.53,-174 13.53,-168 13.53,-168 13.53,-156 13.53,-156 13.53,-150 19.53,-144 25.53,-144 25.53,-144 72.53,-144 72.53,-144 78.53,-144 84.53,-150 84.53,-156 84.53,-156 84.53,-168 84.53,-168 84.53,-174 78.53,-180 72.53,-180"/>
<text text-anchor="middle" x="49.03" y="-159.5" font-family="sans" font-size="10.00">misc_tasks</text>
</g>
<!-- 2&#45;&gt;5 -->
<g id="edge7" class="edge">
<title>2&#45;&gt;5</title>
<path fill="none" stroke="grey" stroke-width="2" d="M45.26,-215.7C45.82,-207.98 46.48,-198.71 47.09,-190.11"/>
<polygon fill="grey" stroke="grey" stroke-width="2" points="50.59,-190.33 47.81,-180.1 43.6,-189.83 50.59,-190.33"/>
</g>
<!-- 3&#45;&gt;1 -->
<g id="edge2" class="edge">
<title>3&#45;&gt;1</title>
<path fill="none" stroke="grey" stroke-width="2" d="M119.04,-143.7C107.21,-134.8 92.64,-123.82 79.85,-114.2"/>
<polygon fill="grey" stroke="grey" stroke-width="2" points="81.85,-111.32 71.75,-108.1 77.64,-116.91 81.85,-111.32"/>
</g>
<!-- 4 -->
<g id="node5" class="node">
<title>4</title>
<path fill="none" stroke="#d8ac56" stroke-width="2" d="M175.53,-252C175.53,-252 116.53,-252 116.53,-252 110.53,-252 104.53,-246 104.53,-240 104.53,-240 104.53,-228 104.53,-228 104.53,-222 110.53,-216 116.53,-216 116.53,-216 175.53,-216 175.53,-216 181.53,-216 187.53,-222 187.53,-228 187.53,-228 187.53,-240 187.53,-240 187.53,-246 181.53,-252 175.53,-252"/>
<text text-anchor="middle" x="146.03" y="-231.5" font-family="sans" font-size="10.00">install_homer</text>
</g>
<!-- 4&#45;&gt;3 -->
<g id="edge5" class="edge">
<title>4&#45;&gt;3</title>
<path fill="none" stroke="grey" stroke-width="2" d="M145.04,-215.7C144.6,-207.98 144.07,-198.71 143.58,-190.11"/>
<polygon fill="grey" stroke="grey" stroke-width="2" points="147.07,-189.89 143.01,-180.1 140.08,-190.29 147.07,-189.89"/>
</g>
<!-- 5&#45;&gt;1 -->
<g id="edge4" class="edge">
<title>5&#45;&gt;1</title>
<path fill="none" stroke="grey" stroke-width="2" d="M49.03,-143.7C49.03,-135.98 49.03,-126.71 49.03,-118.11"/>
<polygon fill="grey" stroke="grey" stroke-width="2" points="52.53,-118.1 49.03,-108.1 45.53,-118.1 52.53,-118.1"/>
</g>
</g>
</svg>
