<?xml version="1.0" encoding="UTF-8" standalone="no"?>
<!DOCTYPE svg PUBLIC "-//W3C//DTD SVG 1.1//EN"
 "http://www.w3.org/Graphics/SVG/1.1/DTD/svg11.dtd">
<!-- Generated by graphviz version 2.40.1 (0)
 -->
<!-- Title: snakemake_dag Pages: 1 -->
<svg width="954pt" height="476pt"
 viewBox="0.00 0.00 954.48 476.00" xmlns="http://www.w3.org/2000/svg" xmlns:xlink="http://www.w3.org/1999/xlink">
<g id="graph0" class="graph" transform="scale(1 1) rotate(0) translate(4 472)">
<title>snakemake_dag</title>
<polygon fill="#ffffff" stroke="transparent" points="-4,4 -4,-472 950.4791,-472 950.4791,4 -4,4"/>
<!-- 0 -->
<g id="node1" class="node">
<title>0</title>
<path fill="none" stroke="#56c9d8" stroke-width="2" d="M585.4791,-36C585.4791,-36 555.4791,-36 555.4791,-36 549.4791,-36 543.4791,-30 543.4791,-24 543.4791,-24 543.4791,-12 543.4791,-12 543.4791,-6 549.4791,0 555.4791,0 555.4791,0 585.4791,0 585.4791,0 591.4791,0 597.4791,-6 597.4791,-12 597.4791,-12 597.4791,-24 597.4791,-24 597.4791,-30 591.4791,-36 585.4791,-36"/>
<text text-anchor="middle" x="570.4791" y="-15.5" font-family="sans" font-size="10.00" fill="#000000">all</text>
</g>
<!-- 1 -->
<g id="node2" class="node">
<title>1</title>
<path fill="none" stroke="#56d8a2" stroke-width="2" d="M188.4791,-180C188.4791,-180 158.4791,-180 158.4791,-180 152.4791,-180 146.4791,-174 146.4791,-168 146.4791,-168 146.4791,-156 146.4791,-156 146.4791,-150 152.4791,-144 158.4791,-144 158.4791,-144 188.4791,-144 188.4791,-144 194.4791,-144 200.4791,-150 200.4791,-156 200.4791,-156 200.4791,-168 200.4791,-168 200.4791,-174 194.4791,-180 188.4791,-180"/>
<text text-anchor="middle" x="173.4791" y="-159.5" font-family="sans" font-size="10.00" fill="#000000">multiqc</text>
</g>
<!-- 1&#45;&gt;0 -->
<g id="edge1" class="edge">
<title>1&#45;&gt;0</title>
<path fill="none" stroke="#c0c0c0" stroke-width="2" d="M200.7665,-152.1023C270.4015,-126.8443 454.7538,-59.9759 533.7263,-31.331"/>
<polygon fill="#c0c0c0" stroke="#c0c0c0" stroke-width="2" points="535.0565,-34.5717 543.2638,-27.8716 532.6696,-27.9912 535.0565,-34.5717"/>
</g>
<!-- 9 -->
<g id="node10" class="node">
<title>9</title>
<path fill="none" stroke="#a7d856" stroke-width="2" d="M258.4791,-108C258.4791,-108 172.4791,-108 172.4791,-108 166.4791,-108 160.4791,-102 160.4791,-96 160.4791,-96 160.4791,-84 160.4791,-84 160.4791,-78 166.4791,-72 172.4791,-72 172.4791,-72 258.4791,-72 258.4791,-72 264.4791,-72 270.4791,-78 270.4791,-84 270.4791,-84 270.4791,-96 270.4791,-96 270.4791,-102 264.4791,-108 258.4791,-108"/>
<text text-anchor="middle" x="215.4791" y="-87.5" font-family="sans" font-size="10.00" fill="#000000">sample_annotation</text>
</g>
<!-- 1&#45;&gt;9 -->
<g id="edge23" class="edge">
<title>1&#45;&gt;9</title>
<path fill="none" stroke="#c0c0c0" stroke-width="2" d="M184.0775,-143.8314C188.7668,-135.7925 194.3819,-126.1666 199.5589,-117.2918"/>
<polygon fill="#c0c0c0" stroke="#c0c0c0" stroke-width="2" points="202.7225,-118.8146 204.738,-108.4133 196.676,-115.2875 202.7225,-118.8146"/>
</g>
<!-- 2 -->
<g id="node3" class="node">
<title>2</title>
<path fill="none" stroke="#56d892" stroke-width="2" d="M136.4791,-468C136.4791,-468 106.4791,-468 106.4791,-468 100.4791,-468 94.4791,-462 94.4791,-456 94.4791,-456 94.4791,-444 94.4791,-444 94.4791,-438 100.4791,-432 106.4791,-432 106.4791,-432 136.4791,-432 136.4791,-432 142.4791,-432 148.4791,-438 148.4791,-444 148.4791,-444 148.4791,-456 148.4791,-456 148.4791,-462 142.4791,-468 136.4791,-468"/>
<text text-anchor="middle" x="121.4791" y="-447.5" font-family="sans" font-size="10.00" fill="#000000">align</text>
</g>
<!-- 2&#45;&gt;1 -->
<g id="edge12" class="edge">
<title>2&#45;&gt;1</title>
<path fill="none" stroke="#c0c0c0" stroke-width="2" d="M102.2896,-431.8515C91.559,-421.5325 78.0545,-408.2596 66.4791,-396 37.2876,-365.0831 18.4347,-363.8036 3.4791,-324 -2.1485,-309.0224 .8179,-303.7771 3.4791,-288 9.1131,-254.5977 4.7951,-240.2182 28.4791,-216 57.3748,-186.4526 103.9091,-172.9165 136.445,-166.8185"/>
<polygon fill="#c0c0c0" stroke="#c0c0c0" stroke-width="2" points="137.2166,-170.2372 146.4766,-165.0892 136.0273,-163.339 137.2166,-170.2372"/>
</g>
<!-- 3 -->
<g id="node4" class="node">
<title>3</title>
<path fill="none" stroke="#d89c56" stroke-width="2" d="M386.4791,-396C386.4791,-396 332.4791,-396 332.4791,-396 326.4791,-396 320.4791,-390 320.4791,-384 320.4791,-384 320.4791,-372 320.4791,-372 320.4791,-366 326.4791,-360 332.4791,-360 332.4791,-360 386.4791,-360 386.4791,-360 392.4791,-360 398.4791,-366 398.4791,-372 398.4791,-372 398.4791,-384 398.4791,-384 398.4791,-390 392.4791,-396 386.4791,-396"/>
<text text-anchor="middle" x="359.4791" y="-375.5" font-family="sans" font-size="10.00" fill="#000000">peak_calling</text>
</g>
<!-- 2&#45;&gt;3 -->
<g id="edge14" class="edge">
<title>2&#45;&gt;3</title>
<path fill="none" stroke="#c0c0c0" stroke-width="2" d="M148.5514,-442.4953C184.6939,-432.3856 250.6417,-413.6219 306.4791,-396 307.8981,-395.5522 309.337,-395.0935 310.7883,-394.6269"/>
<polygon fill="#c0c0c0" stroke="#c0c0c0" stroke-width="2" points="312.0499,-397.8968 320.4677,-391.4632 309.8751,-391.2432 312.0499,-397.8968"/>
</g>
<!-- 5 -->
<g id="node6" class="node">
<title>5</title>
<path fill="none" stroke="#8fd856" stroke-width="2" d="M62.4791,-324C62.4791,-324 24.4791,-324 24.4791,-324 18.4791,-324 12.4791,-318 12.4791,-312 12.4791,-312 12.4791,-300 12.4791,-300 12.4791,-294 18.4791,-288 24.4791,-288 24.4791,-288 62.4791,-288 62.4791,-288 68.4791,-288 74.4791,-294 74.4791,-300 74.4791,-300 74.4791,-312 74.4791,-312 74.4791,-318 68.4791,-324 62.4791,-324"/>
<text text-anchor="middle" x="43.4791" y="-303.5" font-family="sans" font-size="10.00" fill="#000000">coverage</text>
</g>
<!-- 2&#45;&gt;5 -->
<g id="edge15" class="edge">
<title>2&#45;&gt;5</title>
<path fill="none" stroke="#c0c0c0" stroke-width="2" d="M109.7841,-431.7344C103.2891,-421.3788 95.19,-408.1082 88.4791,-396 77.0466,-375.3728 65.1577,-351.4727 56.473,-333.4877"/>
<polygon fill="#c0c0c0" stroke="#c0c0c0" stroke-width="2" points="59.4812,-331.6662 52.0011,-324.163 53.1695,-334.6932 59.4812,-331.6662"/>
</g>
<!-- 6 -->
<g id="node7" class="node">
<title>6</title>
<path fill="none" stroke="#d85656" stroke-width="2" d="M203.9791,-252C203.9791,-252 142.9791,-252 142.9791,-252 136.9791,-252 130.9791,-246 130.9791,-240 130.9791,-240 130.9791,-228 130.9791,-228 130.9791,-222 136.9791,-216 142.9791,-216 142.9791,-216 203.9791,-216 203.9791,-216 209.9791,-216 215.9791,-222 215.9791,-228 215.9791,-228 215.9791,-240 215.9791,-240 215.9791,-246 209.9791,-252 203.9791,-252"/>
<text text-anchor="middle" x="173.4791" y="-231.5" font-family="sans" font-size="10.00" fill="#000000">symlink_stats</text>
</g>
<!-- 2&#45;&gt;6 -->
<g id="edge18" class="edge">
<title>2&#45;&gt;6</title>
<path fill="none" stroke="#c0c0c0" stroke-width="2" d="M117.1927,-431.6684C110.8771,-400.7351 101.8116,-336.778 121.4791,-288 125.8016,-277.2796 133.3835,-267.4983 141.443,-259.2948"/>
<polygon fill="#c0c0c0" stroke="#c0c0c0" stroke-width="2" points="144.0521,-261.644 148.899,-252.2228 139.2349,-256.5652 144.0521,-261.644"/>
</g>
<!-- 7 -->
<g id="node8" class="node">
<title>7</title>
<path fill="none" stroke="#78d856" stroke-width="2" d="M213.9791,-324C213.9791,-324 142.9791,-324 142.9791,-324 136.9791,-324 130.9791,-318 130.9791,-312 130.9791,-312 130.9791,-300 130.9791,-300 130.9791,-294 136.9791,-288 142.9791,-288 142.9791,-288 213.9791,-288 213.9791,-288 219.9791,-288 225.9791,-294 225.9791,-300 225.9791,-300 225.9791,-312 225.9791,-312 225.9791,-318 219.9791,-324 213.9791,-324"/>
<text text-anchor="middle" x="178.4791" y="-303.5" font-family="sans" font-size="10.00" fill="#000000">aggregate_stats</text>
</g>
<!-- 2&#45;&gt;7 -->
<g id="edge20" class="edge">
<title>2&#45;&gt;7</title>
<path fill="none" stroke="#c0c0c0" stroke-width="2" d="M128.6982,-431.7623C138.506,-406.9846 156.1258,-362.4714 167.5565,-333.5939"/>
<polygon fill="#c0c0c0" stroke="#c0c0c0" stroke-width="2" points="170.8924,-334.6759 171.3186,-324.0896 164.3838,-332.0995 170.8924,-334.6759"/>
</g>
<!-- 13 -->
<g id="node14" class="node">
<title>13</title>
<path fill="none" stroke="#bed856" stroke-width="2" d="M396.4791,-252C396.4791,-252 284.4791,-252 284.4791,-252 278.4791,-252 272.4791,-246 272.4791,-240 272.4791,-240 272.4791,-228 272.4791,-228 272.4791,-222 278.4791,-216 284.4791,-216 284.4791,-216 396.4791,-216 396.4791,-216 402.4791,-216 408.4791,-222 408.4791,-228 408.4791,-228 408.4791,-240 408.4791,-240 408.4791,-246 402.4791,-252 396.4791,-252"/>
<text text-anchor="middle" x="340.4791" y="-231.5" font-family="sans" font-size="10.00" fill="#000000">quantify_counts_sample</text>
</g>
<!-- 2&#45;&gt;13 -->
<g id="edge30" class="edge">
<title>2&#45;&gt;13</title>
<path fill="none" stroke="#c0c0c0" stroke-width="2" d="M139.7742,-431.9555C178.7433,-393.5203 270.0256,-303.4884 314.7978,-259.3295"/>
<polygon fill="#c0c0c0" stroke="#c0c0c0" stroke-width="2" points="317.4201,-261.6591 322.082,-252.1451 312.5046,-256.6753 317.4201,-261.6591"/>
</g>
<!-- 3&#45;&gt;1 -->
<g id="edge10" class="edge">
<title>3&#45;&gt;1</title>
<path fill="none" stroke="#c0c0c0" stroke-width="2" d="M344.8558,-359.7114C320.4616,-329.3732 269.6758,-266.934 224.4791,-216 216.1382,-206.6003 206.7571,-196.5317 198.3363,-187.6656"/>
<polygon fill="#c0c0c0" stroke="#c0c0c0" stroke-width="2" points="200.6723,-185.044 191.2338,-180.2308 195.6107,-189.8794 200.6723,-185.044"/>
</g>
<!-- 3&#45;&gt;6 -->
<g id="edge19" class="edge">
<title>3&#45;&gt;6</title>
<path fill="none" stroke="#c0c0c0" stroke-width="2" d="M335.9221,-359.7623C302.6598,-334.0108 241.8626,-286.942 204.8197,-258.2637"/>
<polygon fill="#c0c0c0" stroke="#c0c0c0" stroke-width="2" points="206.8947,-255.4438 196.8449,-252.0896 202.6095,-260.9789 206.8947,-255.4438"/>
</g>
<!-- 3&#45;&gt;7 -->
<g id="edge21" class="edge">
<title>3&#45;&gt;7</title>
<path fill="none" stroke="#c0c0c0" stroke-width="2" d="M320.2048,-362.3771C294.8142,-352.2769 261.4023,-338.986 233.3972,-327.8459"/>
<polygon fill="#c0c0c0" stroke="#c0c0c0" stroke-width="2" points="234.3245,-324.448 223.739,-324.0039 231.7371,-330.9523 234.3245,-324.448"/>
</g>
<!-- 11 -->
<g id="node12" class="node">
<title>11</title>
<path fill="none" stroke="#569ad8" stroke-width="2" d="M554.4791,-252C554.4791,-252 438.4791,-252 438.4791,-252 432.4791,-252 426.4791,-246 426.4791,-240 426.4791,-240 426.4791,-228 426.4791,-228 426.4791,-222 432.4791,-216 438.4791,-216 438.4791,-216 554.4791,-216 554.4791,-216 560.4791,-216 566.4791,-222 566.4791,-228 566.4791,-228 566.4791,-240 566.4791,-240 566.4791,-246 560.4791,-252 554.4791,-252"/>
<text text-anchor="middle" x="496.4791" y="-231.5" font-family="sans" font-size="10.00" fill="#000000">quantify_support_sample</text>
</g>
<!-- 3&#45;&gt;11 -->
<g id="edge27" class="edge">
<title>3&#45;&gt;11</title>
<path fill="none" stroke="#c0c0c0" stroke-width="2" d="M376.8302,-359.7623C401.0211,-334.3354 444.9849,-288.1253 472.3549,-259.3569"/>
<polygon fill="#c0c0c0" stroke="#c0c0c0" stroke-width="2" points="474.9118,-261.7471 479.2688,-252.0896 469.8403,-256.9221 474.9118,-261.7471"/>
</g>
<!-- 12 -->
<g id="node13" class="node">
<title>12</title>
<path fill="none" stroke="#56d8d0" stroke-width="2" d="M683.4791,-324C683.4791,-324 577.4791,-324 577.4791,-324 571.4791,-324 565.4791,-318 565.4791,-312 565.4791,-312 565.4791,-300 565.4791,-300 565.4791,-294 571.4791,-288 577.4791,-288 577.4791,-288 683.4791,-288 683.4791,-288 689.4791,-288 695.4791,-294 695.4791,-300 695.4791,-300 695.4791,-312 695.4791,-312 695.4791,-318 689.4791,-324 683.4791,-324"/>
<text text-anchor="middle" x="630.4791" y="-303.5" font-family="sans" font-size="10.00" fill="#000000">get_consensus_regions</text>
</g>
<!-- 3&#45;&gt;12 -->
<g id="edge28" class="edge">
<title>3&#45;&gt;12</title>
<path fill="none" stroke="#c0c0c0" stroke-width="2" d="M398.5954,-367.6075C439.4771,-356.7459 504.6283,-339.4364 555.4768,-325.9268"/>
<polygon fill="#c0c0c0" stroke="#c0c0c0" stroke-width="2" points="556.6783,-329.2291 565.4443,-323.2786 554.8809,-322.4638 556.6783,-329.2291"/>
</g>
<!-- 4 -->
<g id="node5" class="node">
<title>4</title>
<path fill="none" stroke="#56b1d8" stroke-width="2" d="M599.9791,-468C599.9791,-468 540.9791,-468 540.9791,-468 534.9791,-468 528.9791,-462 528.9791,-456 528.9791,-456 528.9791,-444 528.9791,-444 528.9791,-438 534.9791,-432 540.9791,-432 540.9791,-432 599.9791,-432 599.9791,-432 605.9791,-432 611.9791,-438 611.9791,-444 611.9791,-444 611.9791,-456 611.9791,-456 611.9791,-462 605.9791,-468 599.9791,-468"/>
<text text-anchor="middle" x="570.4791" y="-447.5" font-family="sans" font-size="10.00" fill="#000000">install_homer</text>
</g>
<!-- 4&#45;&gt;3 -->
<g id="edge13" class="edge">
<title>4&#45;&gt;3</title>
<path fill="none" stroke="#c0c0c0" stroke-width="2" d="M528.7923,-435.7751C494.2116,-423.9751 444.9791,-407.1753 408.5102,-394.731"/>
<polygon fill="#c0c0c0" stroke="#c0c0c0" stroke-width="2" points="409.1799,-391.2614 398.5854,-391.3443 406.9192,-397.8863 409.1799,-391.2614"/>
</g>
<!-- 18 -->
<g id="node19" class="node">
<title>18</title>
<path fill="none" stroke="#d88556" stroke-width="2" d="M934.4791,-252C934.4791,-252 816.4791,-252 816.4791,-252 810.4791,-252 804.4791,-246 804.4791,-240 804.4791,-240 804.4791,-228 804.4791,-228 804.4791,-222 810.4791,-216 816.4791,-216 816.4791,-216 934.4791,-216 934.4791,-216 940.4791,-216 946.4791,-222 946.4791,-228 946.4791,-228 946.4791,-240 946.4791,-240 946.4791,-246 940.4791,-252 934.4791,-252"/>
<text text-anchor="middle" x="875.4791" y="-231.5" font-family="sans" font-size="10.00" fill="#000000">homer_region_annotation</text>
</g>
<!-- 4&#45;&gt;18 -->
<g id="edge40" class="edge">
<title>4&#45;&gt;18</title>
<path fill="none" stroke="#c0c0c0" stroke-width="2" d="M595.9586,-431.9555C650.7912,-393.1232 779.9933,-301.6227 841.6244,-257.9758"/>
<polygon fill="#c0c0c0" stroke="#c0c0c0" stroke-width="2" points="843.7196,-260.7808 849.8576,-252.1451 839.674,-255.0683 843.7196,-260.7808"/>
</g>
<!-- 5&#45;&gt;1 -->
<g id="edge11" class="edge">
<title>5&#45;&gt;1</title>
<path fill="none" stroke="#c0c0c0" stroke-width="2" d="M37.3545,-287.7289C32.0314,-268.2313 27.1925,-237.2804 41.4791,-216 62.4961,-184.6946 105.2185,-171.5255 136.3856,-165.9932"/>
<polygon fill="#c0c0c0" stroke="#c0c0c0" stroke-width="2" points="137.1361,-169.4181 146.4643,-164.3947 136.0395,-162.5045 137.1361,-169.4181"/>
</g>
<!-- 5&#45;&gt;6 -->
<g id="edge16" class="edge">
<title>5&#45;&gt;6</title>
<path fill="none" stroke="#c0c0c0" stroke-width="2" d="M74.6173,-288.7542C91.7884,-279.2441 113.3335,-267.3114 131.924,-257.0151"/>
<polygon fill="#c0c0c0" stroke="#c0c0c0" stroke-width="2" points="133.7287,-260.0166 140.7808,-252.1098 130.3371,-253.8931 133.7287,-260.0166"/>
</g>
<!-- 8 -->
<g id="node9" class="node">
<title>8</title>
<path fill="none" stroke="#61d856" stroke-width="2" d="M100.4791,-252C100.4791,-252 62.4791,-252 62.4791,-252 56.4791,-252 50.4791,-246 50.4791,-240 50.4791,-240 50.4791,-228 50.4791,-228 50.4791,-222 56.4791,-216 62.4791,-216 62.4791,-216 100.4791,-216 100.4791,-216 106.4791,-216 112.4791,-222 112.4791,-228 112.4791,-228 112.4791,-240 112.4791,-240 112.4791,-246 106.4791,-252 100.4791,-252"/>
<text text-anchor="middle" x="81.4791" y="-231.5" font-family="sans" font-size="10.00" fill="#000000">ucsc_hub</text>
</g>
<!-- 5&#45;&gt;8 -->
<g id="edge22" class="edge">
<title>5&#45;&gt;8</title>
<path fill="none" stroke="#c0c0c0" stroke-width="2" d="M53.0681,-287.8314C57.3109,-279.7925 62.3912,-270.1666 67.0751,-261.2918"/>
<polygon fill="#c0c0c0" stroke="#c0c0c0" stroke-width="2" points="70.1887,-262.8908 71.761,-252.4133 63.998,-259.6235 70.1887,-262.8908"/>
</g>
<!-- 6&#45;&gt;1 -->
<g id="edge8" class="edge">
<title>6&#45;&gt;1</title>
<path fill="none" stroke="#c0c0c0" stroke-width="2" d="M173.4791,-215.8314C173.4791,-208.131 173.4791,-198.9743 173.4791,-190.4166"/>
<polygon fill="#c0c0c0" stroke="#c0c0c0" stroke-width="2" points="176.9792,-190.4132 173.4791,-180.4133 169.9792,-190.4133 176.9792,-190.4132"/>
</g>
<!-- 7&#45;&gt;6 -->
<g id="edge17" class="edge">
<title>7&#45;&gt;6</title>
<path fill="none" stroke="#c0c0c0" stroke-width="2" d="M177.2174,-287.8314C176.6826,-280.131 176.0468,-270.9743 175.4525,-262.4166"/>
<polygon fill="#c0c0c0" stroke="#c0c0c0" stroke-width="2" points="178.9423,-262.1467 174.7578,-252.4133 171.9591,-262.6317 178.9423,-262.1467"/>
</g>
<!-- 8&#45;&gt;1 -->
<g id="edge9" class="edge">
<title>8&#45;&gt;1</title>
<path fill="none" stroke="#c0c0c0" stroke-width="2" d="M104.6946,-215.8314C116.0261,-206.9632 129.8255,-196.1637 142.0818,-186.5718"/>
<polygon fill="#c0c0c0" stroke="#c0c0c0" stroke-width="2" points="144.5531,-189.0822 150.271,-180.1628 140.2389,-183.5697 144.5531,-189.0822"/>
</g>
<!-- 9&#45;&gt;0 -->
<g id="edge6" class="edge">
<title>9&#45;&gt;0</title>
<path fill="none" stroke="#c0c0c0" stroke-width="2" d="M270.5583,-78.829C343.6131,-64.0123 470.6112,-38.2549 533.2953,-25.5415"/>
<polygon fill="#c0c0c0" stroke="#c0c0c0" stroke-width="2" points="534.0411,-28.9616 543.1458,-23.5437 532.6496,-22.1013 534.0411,-28.9616"/>
</g>
<!-- 10 -->
<g id="node11" class="node">
<title>10</title>
<path fill="none" stroke="#d8b456" stroke-width="2" d="M506.4791,-180C506.4791,-180 418.4791,-180 418.4791,-180 412.4791,-180 406.4791,-174 406.4791,-168 406.4791,-168 406.4791,-156 406.4791,-156 406.4791,-150 412.4791,-144 418.4791,-144 418.4791,-144 506.4791,-144 506.4791,-144 512.4791,-144 518.4791,-150 518.4791,-156 518.4791,-156 518.4791,-168 518.4791,-168 518.4791,-174 512.4791,-180 506.4791,-180"/>
<text text-anchor="middle" x="462.4791" y="-159.5" font-family="sans" font-size="10.00" fill="#000000">quantify_aggregate</text>
</g>
<!-- 10&#45;&gt;0 -->
<g id="edge2" class="edge">
<title>10&#45;&gt;0</title>
<path fill="none" stroke="#c0c0c0" stroke-width="2" d="M462.208,-143.7616C462.7941,-124.2919 466.3314,-93.3647 481.4791,-72 494.3863,-53.7954 515.5476,-40.5893 533.9979,-31.7951"/>
<polygon fill="#c0c0c0" stroke="#c0c0c0" stroke-width="2" points="535.655,-34.8876 543.341,-27.5954 532.7851,-28.503 535.655,-34.8876"/>
</g>
<!-- 11&#45;&gt;10 -->
<g id="edge24" class="edge">
<title>11&#45;&gt;10</title>
<path fill="none" stroke="#c0c0c0" stroke-width="2" d="M487.8995,-215.8314C484.1433,-207.8771 479.6534,-198.369 475.4994,-189.5723"/>
<polygon fill="#c0c0c0" stroke="#c0c0c0" stroke-width="2" points="478.6093,-187.9612 471.1743,-180.4133 472.2795,-190.9503 478.6093,-187.9612"/>
</g>
<!-- 12&#45;&gt;11 -->
<g id="edge26" class="edge">
<title>12&#45;&gt;11</title>
<path fill="none" stroke="#c0c0c0" stroke-width="2" d="M596.6652,-287.8314C579.2084,-278.4516 557.7304,-266.9112 539.1439,-256.9244"/>
<polygon fill="#c0c0c0" stroke="#c0c0c0" stroke-width="2" points="540.7477,-253.8129 530.2821,-252.1628 537.4345,-259.9792 540.7477,-253.8129"/>
</g>
<!-- 12&#45;&gt;13 -->
<g id="edge29" class="edge">
<title>12&#45;&gt;13</title>
<path fill="none" stroke="#c0c0c0" stroke-width="2" d="M565.3974,-289.8418C521.9129,-279.0456 464.483,-264.7872 418.5399,-253.3806"/>
<polygon fill="#c0c0c0" stroke="#c0c0c0" stroke-width="2" points="419.171,-249.9311 408.6222,-250.9183 417.4842,-256.7248 419.171,-249.9311"/>
</g>
<!-- 15 -->
<g id="node16" class="node">
<title>15</title>
<path fill="none" stroke="#56d8b9" stroke-width="2" d="M699.9791,-180C699.9791,-180 632.9791,-180 632.9791,-180 626.9791,-180 620.9791,-174 620.9791,-168 620.9791,-168 620.9791,-156 620.9791,-156 620.9791,-150 626.9791,-144 632.9791,-144 632.9791,-144 699.9791,-144 699.9791,-144 705.9791,-144 711.9791,-150 711.9791,-156 711.9791,-156 711.9791,-168 711.9791,-168 711.9791,-174 705.9791,-180 699.9791,-180"/>
<text text-anchor="middle" x="666.4791" y="-159.5" font-family="sans" font-size="10.00" fill="#000000">uropa_gencode</text>
</g>
<!-- 12&#45;&gt;15 -->
<g id="edge36" class="edge">
<title>12&#45;&gt;15</title>
<path fill="none" stroke="#c0c0c0" stroke-width="2" d="M678.4711,-287.9585C694.0753,-279.5363 709.6378,-267.7985 718.4791,-252 726.2928,-238.0377 724.4623,-230.8392 718.4791,-216 714.1566,-205.2796 706.5747,-195.4983 698.5153,-187.2948"/>
<polygon fill="#c0c0c0" stroke="#c0c0c0" stroke-width="2" points="700.7233,-184.5652 691.0592,-180.2228 695.9061,-189.644 700.7233,-184.5652"/>
</g>
<!-- 16 -->
<g id="node17" class="node">
<title>16</title>
<path fill="none" stroke="#d6d856" stroke-width="2" d="M697.9791,-252C697.9791,-252 634.9791,-252 634.9791,-252 628.9791,-252 622.9791,-246 622.9791,-240 622.9791,-240 622.9791,-228 622.9791,-228 622.9791,-222 628.9791,-216 634.9791,-216 634.9791,-216 697.9791,-216 697.9791,-216 703.9791,-216 709.9791,-222 709.9791,-228 709.9791,-228 709.9791,-240 709.9791,-240 709.9791,-246 703.9791,-252 697.9791,-252"/>
<text text-anchor="middle" x="666.4791" y="-231.5" font-family="sans" font-size="10.00" fill="#000000">uropa_prepare</text>
</g>
<!-- 12&#45;&gt;16 -->
<g id="edge37" class="edge">
<title>12&#45;&gt;16</title>
<path fill="none" stroke="#c0c0c0" stroke-width="2" d="M639.5634,-287.8314C643.5406,-279.8771 648.2946,-270.369 652.693,-261.5723"/>
<polygon fill="#c0c0c0" stroke="#c0c0c0" stroke-width="2" points="655.9308,-262.9228 657.2725,-252.4133 649.6698,-259.7923 655.9308,-262.9228"/>
</g>
<!-- 17 -->
<g id="node18" class="node">
<title>17</title>
<path fill="none" stroke="#d8c356" stroke-width="2" d="M590.9791,-180C590.9791,-180 549.9791,-180 549.9791,-180 543.9791,-180 537.9791,-174 537.9791,-168 537.9791,-168 537.9791,-156 537.9791,-156 537.9791,-150 543.9791,-144 549.9791,-144 549.9791,-144 590.9791,-144 590.9791,-144 596.9791,-144 602.9791,-150 602.9791,-156 602.9791,-156 602.9791,-168 602.9791,-168 602.9791,-174 596.9791,-180 590.9791,-180"/>
<text text-anchor="middle" x="570.4791" y="-159.5" font-family="sans" font-size="10.00" fill="#000000">uropa_reg</text>
</g>
<!-- 12&#45;&gt;17 -->
<g id="edge39" class="edge">
<title>12&#45;&gt;17</title>
<path fill="none" stroke="#c0c0c0" stroke-width="2" d="M622.8801,-287.7623C612.556,-262.9846 594.0088,-218.4714 581.9766,-189.5939"/>
<polygon fill="#c0c0c0" stroke="#c0c0c0" stroke-width="2" points="585.0934,-187.9742 578.0164,-180.0896 578.6319,-190.6666 585.0934,-187.9742"/>
</g>
<!-- 12&#45;&gt;18 -->
<g id="edge41" class="edge">
<title>12&#45;&gt;18</title>
<path fill="none" stroke="#c0c0c0" stroke-width="2" d="M691.9867,-287.9243C726.0621,-277.9103 768.5909,-265.412 804.1228,-254.97"/>
<polygon fill="#c0c0c0" stroke="#c0c0c0" stroke-width="2" points="805.3388,-258.2608 813.9462,-252.0831 803.365,-251.5448 805.3388,-258.2608"/>
</g>
<!-- 19 -->
<g id="node20" class="node">
<title>19</title>
<path fill="none" stroke="#566bd8" stroke-width="2" d="M834.4791,-180C834.4791,-180 742.4791,-180 742.4791,-180 736.4791,-180 730.4791,-174 730.4791,-168 730.4791,-168 730.4791,-156 730.4791,-156 730.4791,-150 736.4791,-144 742.4791,-144 742.4791,-144 834.4791,-144 834.4791,-144 840.4791,-144 846.4791,-150 846.4791,-156 846.4791,-156 846.4791,-168 846.4791,-168 846.4791,-174 840.4791,-180 834.4791,-180"/>
<text text-anchor="middle" x="788.4791" y="-159.5" font-family="sans" font-size="10.00" fill="#000000">bedtools_annotation</text>
</g>
<!-- 12&#45;&gt;19 -->
<g id="edge42" class="edge">
<title>12&#45;&gt;19</title>
<path fill="none" stroke="#c0c0c0" stroke-width="2" d="M679.0449,-287.9644C698.1809,-279.1861 719.3836,-267.2002 735.4791,-252 754.0878,-234.4264 768.2885,-208.8707 777.2849,-189.4779"/>
<polygon fill="#c0c0c0" stroke="#c0c0c0" stroke-width="2" points="780.5258,-190.8037 781.3951,-180.2445 774.1308,-187.9568 780.5258,-190.8037"/>
</g>
<!-- 13&#45;&gt;10 -->
<g id="edge25" class="edge">
<title>13&#45;&gt;10</title>
<path fill="none" stroke="#c0c0c0" stroke-width="2" d="M371.2649,-215.8314C386.8694,-206.6221 406.0031,-195.3301 422.7095,-185.4706"/>
<polygon fill="#c0c0c0" stroke="#c0c0c0" stroke-width="2" points="424.87,-188.2596 431.7032,-180.1628 421.3122,-182.2312 424.87,-188.2596"/>
</g>
<!-- 14 -->
<g id="node15" class="node">
<title>14</title>
<path fill="none" stroke="#56d863" stroke-width="2" d="M638.4791,-108C638.4791,-108 502.4791,-108 502.4791,-108 496.4791,-108 490.4791,-102 490.4791,-96 490.4791,-96 490.4791,-84 490.4791,-84 490.4791,-78 496.4791,-72 502.4791,-72 502.4791,-72 638.4791,-72 638.4791,-72 644.4791,-72 650.4791,-78 650.4791,-84 650.4791,-84 650.4791,-96 650.4791,-96 650.4791,-102 644.4791,-108 638.4791,-108"/>
<text text-anchor="middle" x="570.4791" y="-87.5" font-family="sans" font-size="10.00" fill="#000000">region_annotation_aggregate</text>
</g>
<!-- 14&#45;&gt;0 -->
<g id="edge3" class="edge">
<title>14&#45;&gt;0</title>
<path fill="none" stroke="#c0c0c0" stroke-width="2" d="M570.4791,-71.8314C570.4791,-64.131 570.4791,-54.9743 570.4791,-46.4166"/>
<polygon fill="#c0c0c0" stroke="#c0c0c0" stroke-width="2" points="573.9792,-46.4132 570.4791,-36.4133 566.9792,-46.4133 573.9792,-46.4132"/>
</g>
<!-- 15&#45;&gt;14 -->
<g id="edge32" class="edge">
<title>15&#45;&gt;14</title>
<path fill="none" stroke="#c0c0c0" stroke-width="2" d="M642.2542,-143.8314C630.3163,-134.8779 615.7535,-123.9558 602.8731,-114.2955"/>
<polygon fill="#c0c0c0" stroke="#c0c0c0" stroke-width="2" points="604.7962,-111.3629 594.6962,-108.1628 600.5962,-116.9629 604.7962,-111.3629"/>
</g>
<!-- 16&#45;&gt;15 -->
<g id="edge35" class="edge">
<title>16&#45;&gt;15</title>
<path fill="none" stroke="#c0c0c0" stroke-width="2" d="M666.4791,-215.8314C666.4791,-208.131 666.4791,-198.9743 666.4791,-190.4166"/>
<polygon fill="#c0c0c0" stroke="#c0c0c0" stroke-width="2" points="669.9792,-190.4132 666.4791,-180.4133 662.9792,-190.4133 669.9792,-190.4132"/>
</g>
<!-- 16&#45;&gt;17 -->
<g id="edge38" class="edge">
<title>16&#45;&gt;17</title>
<path fill="none" stroke="#c0c0c0" stroke-width="2" d="M642.2542,-215.8314C630.3163,-206.8779 615.7535,-195.9558 602.8731,-186.2955"/>
<polygon fill="#c0c0c0" stroke="#c0c0c0" stroke-width="2" points="604.7962,-183.3629 594.6962,-180.1628 600.5962,-188.9629 604.7962,-183.3629"/>
</g>
<!-- 17&#45;&gt;14 -->
<g id="edge31" class="edge">
<title>17&#45;&gt;14</title>
<path fill="none" stroke="#c0c0c0" stroke-width="2" d="M570.4791,-143.8314C570.4791,-136.131 570.4791,-126.9743 570.4791,-118.4166"/>
<polygon fill="#c0c0c0" stroke="#c0c0c0" stroke-width="2" points="573.9792,-118.4132 570.4791,-108.4133 566.9792,-118.4133 573.9792,-118.4132"/>
</g>
<!-- 18&#45;&gt;14 -->
<g id="edge34" class="edge">
<title>18&#45;&gt;14</title>
<path fill="none" stroke="#c0c0c0" stroke-width="2" d="M876.8871,-215.6554C877.3734,-195.1964 874.7269,-162.5481 855.4791,-144 793.9455,-84.7033 749.6487,-121.9377 660.4514,-107.9935"/>
<polygon fill="#c0c0c0" stroke="#c0c0c0" stroke-width="2" points="660.9725,-104.5316 650.5193,-106.2582 659.7677,-111.4271 660.9725,-104.5316"/>
</g>
<!-- 19&#45;&gt;14 -->
<g id="edge33" class="edge">
<title>19&#45;&gt;14</title>
<path fill="none" stroke="#c0c0c0" stroke-width="2" d="M733.7499,-143.9243C703.6889,-133.9959 666.2341,-121.6255 634.7837,-111.2382"/>
<polygon fill="#c0c0c0" stroke="#c0c0c0" stroke-width="2" points="635.824,-107.8959 625.2308,-108.0831 633.6287,-114.5428 635.824,-107.8959"/>
</g>
<!-- 20 -->
<g id="node21" class="node">
<title>20</title>
<path fill="none" stroke="#d86e56" stroke-width="2" d="M727.9791,-108C727.9791,-108 680.9791,-108 680.9791,-108 674.9791,-108 668.9791,-102 668.9791,-96 668.9791,-96 668.9791,-84 668.9791,-84 668.9791,-78 674.9791,-72 680.9791,-72 680.9791,-72 727.9791,-72 727.9791,-72 733.9791,-72 739.9791,-78 739.9791,-84 739.9791,-84 739.9791,-96 739.9791,-96 739.9791,-102 733.9791,-108 727.9791,-108"/>
<text text-anchor="middle" x="704.4791" y="-87.5" font-family="sans" font-size="10.00" fill="#000000">env_export</text>
</g>
<!-- 20&#45;&gt;0 -->
<g id="edge5" class="edge">
<title>20&#45;&gt;0</title>
<path fill="none" stroke="#c0c0c0" stroke-width="2" d="M670.6652,-71.8314C651.1211,-61.33 626.5367,-48.1205 606.6126,-37.415"/>
<polygon fill="#c0c0c0" stroke="#c0c0c0" stroke-width="2" points="608.0011,-34.1879 597.5355,-32.5378 604.6878,-40.3541 608.0011,-34.1879"/>
</g>
<!-- 21 -->
<g id="node22" class="node">
<title>21</title>
<path fill="none" stroke="#5682d8" stroke-width="2" d="M828.9791,-108C828.9791,-108 769.9791,-108 769.9791,-108 763.9791,-108 757.9791,-102 757.9791,-96 757.9791,-96 757.9791,-84 757.9791,-84 757.9791,-78 763.9791,-72 769.9791,-72 769.9791,-72 828.9791,-72 828.9791,-72 834.9791,-72 840.9791,-78 840.9791,-84 840.9791,-84 840.9791,-96 840.9791,-96 840.9791,-102 834.9791,-108 828.9791,-108"/>
<text text-anchor="middle" x="799.4791" y="-87.5" font-family="sans" font-size="10.00" fill="#000000">config_export</text>
</g>
<!-- 21&#45;&gt;0 -->
<g id="edge4" class="edge">
<title>21&#45;&gt;0</title>
<path fill="none" stroke="#c0c0c0" stroke-width="2" d="M757.7825,-75.1127C754.6398,-74.043 751.5125,-72.9949 748.4791,-72 699.9556,-56.0855 643.4607,-39.2277 607.3572,-28.6643"/>
<polygon fill="#c0c0c0" stroke="#c0c0c0" stroke-width="2" points="608.3185,-25.2989 597.7384,-25.8578 606.3578,-32.0187 608.3185,-25.2989"/>
</g>
<!-- 22 -->
<g id="node23" class="node">
<title>22</title>
<path fill="none" stroke="#56d87b" stroke-width="2" d="M927.9791,-108C927.9791,-108 870.9791,-108 870.9791,-108 864.9791,-108 858.9791,-102 858.9791,-96 858.9791,-96 858.9791,-84 858.9791,-84 858.9791,-78 864.9791,-72 870.9791,-72 870.9791,-72 927.9791,-72 927.9791,-72 933.9791,-72 939.9791,-78 939.9791,-84 939.9791,-84 939.9791,-96 939.9791,-96 939.9791,-102 933.9791,-108 927.9791,-108"/>
<text text-anchor="middle" x="899.4791" y="-87.5" font-family="sans" font-size="10.00" fill="#000000">annot_export</text>
</g>
<!-- 22&#45;&gt;0 -->
<g id="edge7" class="edge">
<title>22&#45;&gt;0</title>
<path fill="none" stroke="#c0c0c0" stroke-width="2" d="M858.7142,-74.7447C855.6067,-73.7601 852.5036,-72.8318 849.4791,-72 764.2984,-48.575 661.7789,-31.5004 607.8508,-23.3531"/>
<polygon fill="#c0c0c0" stroke="#c0c0c0" stroke-width="2" points="608.1396,-19.8576 597.7326,-21.8435 607.1066,-26.7809 608.1396,-19.8576"/>
</g>
</g>
</svg>
