<?xml version="1.0" encoding="UTF-8" standalone="no"?>
<!DOCTYPE svg PUBLIC "-//W3C//DTD SVG 1.1//EN"
 "http://www.w3.org/Graphics/SVG/1.1/DTD/svg11.dtd">
<!-- Generated by graphviz version 2.40.1 (0)
 -->
<!-- Title: snakemake_dag Pages: 1 -->
<svg width="988pt" height="548pt"
 viewBox="0.00 0.00 988.03 548.00" xmlns="http://www.w3.org/2000/svg" xmlns:xlink="http://www.w3.org/1999/xlink">
<g id="graph0" class="graph" transform="scale(1 1) rotate(0) translate(4 544)">
<title>snakemake_dag</title>
<polygon fill="#ffffff" stroke="transparent" points="-4,4 -4,-544 984.0344,-544 984.0344,4 -4,4"/>
<!-- 0 -->
<g id="node1" class="node">
<title>0</title>
<path fill="none" stroke="#56d873" stroke-width="2" d="M657.5344,-36C657.5344,-36 627.5344,-36 627.5344,-36 621.5344,-36 615.5344,-30 615.5344,-24 615.5344,-24 615.5344,-12 615.5344,-12 615.5344,-6 621.5344,0 627.5344,0 627.5344,0 657.5344,0 657.5344,0 663.5344,0 669.5344,-6 669.5344,-12 669.5344,-12 669.5344,-24 669.5344,-24 669.5344,-30 663.5344,-36 657.5344,-36"/>
<text text-anchor="middle" x="642.5344" y="-15.5" font-family="sans" font-size="10.00" fill="#000000">all</text>
</g>
<!-- 1 -->
<g id="node2" class="node">
<title>1</title>
<path fill="none" stroke="#56d863" stroke-width="2" d="M259.5344,-252C259.5344,-252 229.5344,-252 229.5344,-252 223.5344,-252 217.5344,-246 217.5344,-240 217.5344,-240 217.5344,-228 217.5344,-228 217.5344,-222 223.5344,-216 229.5344,-216 229.5344,-216 259.5344,-216 259.5344,-216 265.5344,-216 271.5344,-222 271.5344,-228 271.5344,-228 271.5344,-240 271.5344,-240 271.5344,-246 265.5344,-252 259.5344,-252"/>
<text text-anchor="middle" x="244.5344" y="-231.5" font-family="sans" font-size="10.00" fill="#000000">multiqc</text>
</g>
<!-- 1&#45;&gt;0 -->
<g id="edge4" class="edge">
<title>1&#45;&gt;0</title>
<path fill="none" stroke="#c0c0c0" stroke-width="2" d="M271.75,-216.0195C287.3118,-205.6412 307.1364,-192.2556 324.5344,-180 390.8118,-133.3123 399.2454,-108.6981 471.5344,-72 515.2449,-49.81 569.8761,-34.4881 605.4581,-25.9802"/>
<polygon fill="#c0c0c0" stroke="#c0c0c0" stroke-width="2" points="606.4656,-29.3393 615.4096,-23.6599 604.8761,-22.5221 606.4656,-29.3393"/>
</g>
<!-- 8 -->
<g id="node9" class="node">
<title>8</title>
<path fill="none" stroke="#56d88a" stroke-width="2" d="M303.5344,-180C303.5344,-180 217.5344,-180 217.5344,-180 211.5344,-180 205.5344,-174 205.5344,-168 205.5344,-168 205.5344,-156 205.5344,-156 205.5344,-150 211.5344,-144 217.5344,-144 217.5344,-144 303.5344,-144 303.5344,-144 309.5344,-144 315.5344,-150 315.5344,-156 315.5344,-156 315.5344,-168 315.5344,-168 315.5344,-174 309.5344,-180 303.5344,-180"/>
<text text-anchor="middle" x="260.5344" y="-159.5" font-family="sans" font-size="10.00" fill="#000000">sample_annotation</text>
</g>
<!-- 1&#45;&gt;8 -->
<g id="edge22" class="edge">
<title>1&#45;&gt;8</title>
<path fill="none" stroke="#c0c0c0" stroke-width="2" d="M248.5718,-215.8314C250.283,-208.131 252.3178,-198.9743 254.2196,-190.4166"/>
<polygon fill="#c0c0c0" stroke="#c0c0c0" stroke-width="2" points="257.6898,-190.9344 256.4425,-180.4133 250.8565,-189.4159 257.6898,-190.9344"/>
</g>
<!-- 2 -->
<g id="node3" class="node">
<title>2</title>
<path fill="none" stroke="#88d856" stroke-width="2" d="M159.5344,-540C159.5344,-540 129.5344,-540 129.5344,-540 123.5344,-540 117.5344,-534 117.5344,-528 117.5344,-528 117.5344,-516 117.5344,-516 117.5344,-510 123.5344,-504 129.5344,-504 129.5344,-504 159.5344,-504 159.5344,-504 165.5344,-504 171.5344,-510 171.5344,-516 171.5344,-516 171.5344,-528 171.5344,-528 171.5344,-534 165.5344,-540 159.5344,-540"/>
<text text-anchor="middle" x="144.5344" y="-519.5" font-family="sans" font-size="10.00" fill="#000000">align</text>
</g>
<!-- 2&#45;&gt;1 -->
<g id="edge12" class="edge">
<title>2&#45;&gt;1</title>
<path fill="none" stroke="#c0c0c0" stroke-width="2" d="M117.3098,-515.3114C80.6647,-505.6941 18.5468,-487.0151 5.5344,-468 -3.5016,-454.7958 .4747,-447.1789 5.5344,-432 31.1738,-355.0816 52.8591,-336.8972 117.5344,-288 144.7337,-267.4362 180.9416,-253.0473 207.7357,-244.3231"/>
<polygon fill="#c0c0c0" stroke="#c0c0c0" stroke-width="2" points="209.013,-247.5906 217.5054,-241.2557 206.9162,-240.912 209.013,-247.5906"/>
</g>
<!-- 3 -->
<g id="node4" class="node">
<title>3</title>
<path fill="none" stroke="#56a9d8" stroke-width="2" d="M452.5344,-468C452.5344,-468 398.5344,-468 398.5344,-468 392.5344,-468 386.5344,-462 386.5344,-456 386.5344,-456 386.5344,-444 386.5344,-444 386.5344,-438 392.5344,-432 398.5344,-432 398.5344,-432 452.5344,-432 452.5344,-432 458.5344,-432 464.5344,-438 464.5344,-444 464.5344,-444 464.5344,-456 464.5344,-456 464.5344,-462 458.5344,-468 452.5344,-468"/>
<text text-anchor="middle" x="425.5344" y="-447.5" font-family="sans" font-size="10.00" fill="#000000">peak_calling</text>
</g>
<!-- 2&#45;&gt;3 -->
<g id="edge13" class="edge">
<title>2&#45;&gt;3</title>
<path fill="none" stroke="#c0c0c0" stroke-width="2" d="M171.7331,-515.0309C218.9966,-502.9207 316.9104,-477.8325 376.3517,-462.602"/>
<polygon fill="#c0c0c0" stroke="#c0c0c0" stroke-width="2" points="377.4461,-465.9347 386.2644,-460.0621 375.7086,-459.1538 377.4461,-465.9347"/>
</g>
<!-- 5 -->
<g id="node6" class="node">
<title>5</title>
<path fill="none" stroke="#d8ac56" stroke-width="2" d="M200.0344,-324C200.0344,-324 139.0344,-324 139.0344,-324 133.0344,-324 127.0344,-318 127.0344,-312 127.0344,-312 127.0344,-300 127.0344,-300 127.0344,-294 133.0344,-288 139.0344,-288 139.0344,-288 200.0344,-288 200.0344,-288 206.0344,-288 212.0344,-294 212.0344,-300 212.0344,-300 212.0344,-312 212.0344,-312 212.0344,-318 206.0344,-324 200.0344,-324"/>
<text text-anchor="middle" x="169.5344" y="-303.5" font-family="sans" font-size="10.00" fill="#000000">symlink_stats</text>
</g>
<!-- 2&#45;&gt;5 -->
<g id="edge17" class="edge">
<title>2&#45;&gt;5</title>
<path fill="none" stroke="#c0c0c0" stroke-width="2" d="M134.1968,-503.7707C118.1902,-472.9882 91.3515,-409.2475 112.5344,-360 117.2835,-348.9589 125.5229,-339.1176 134.285,-330.9593"/>
<polygon fill="#c0c0c0" stroke="#c0c0c0" stroke-width="2" points="136.7794,-333.4291 142.0449,-324.2354 132.1954,-328.1388 136.7794,-333.4291"/>
</g>
<!-- 6 -->
<g id="node7" class="node">
<title>6</title>
<path fill="none" stroke="#56d0d8" stroke-width="2" d="M205.0344,-396C205.0344,-396 134.0344,-396 134.0344,-396 128.0344,-396 122.0344,-390 122.0344,-384 122.0344,-384 122.0344,-372 122.0344,-372 122.0344,-366 128.0344,-360 134.0344,-360 134.0344,-360 205.0344,-360 205.0344,-360 211.0344,-360 217.0344,-366 217.0344,-372 217.0344,-372 217.0344,-384 217.0344,-384 217.0344,-390 211.0344,-396 205.0344,-396"/>
<text text-anchor="middle" x="169.5344" y="-375.5" font-family="sans" font-size="10.00" fill="#000000">aggregate_stats</text>
</g>
<!-- 2&#45;&gt;6 -->
<g id="edge20" class="edge">
<title>2&#45;&gt;6</title>
<path fill="none" stroke="#c0c0c0" stroke-width="2" d="M147.7006,-503.7623C151.9835,-479.0928 159.6629,-434.8598 164.6779,-405.9731"/>
<polygon fill="#c0c0c0" stroke="#c0c0c0" stroke-width="2" points="168.1316,-406.541 166.3938,-396.0896 161.2348,-405.3435 168.1316,-406.541"/>
</g>
<!-- 7 -->
<g id="node8" class="node">
<title>7</title>
<path fill="none" stroke="#78d856" stroke-width="2" d="M84.0344,-468C84.0344,-468 27.0344,-468 27.0344,-468 21.0344,-468 15.0344,-462 15.0344,-456 15.0344,-456 15.0344,-444 15.0344,-444 15.0344,-438 21.0344,-432 27.0344,-432 27.0344,-432 84.0344,-432 84.0344,-432 90.0344,-432 96.0344,-438 96.0344,-444 96.0344,-444 96.0344,-456 96.0344,-456 96.0344,-462 90.0344,-468 84.0344,-468"/>
<text text-anchor="middle" x="55.5344" y="-447.5" font-family="sans" font-size="10.00" fill="#000000">tss_coverage</text>
</g>
<!-- 2&#45;&gt;7 -->
<g id="edge21" class="edge">
<title>2&#45;&gt;7</title>
<path fill="none" stroke="#c0c0c0" stroke-width="2" d="M122.0759,-503.8314C111.1139,-494.9632 97.7645,-484.1637 85.9079,-474.5718"/>
<polygon fill="#c0c0c0" stroke="#c0c0c0" stroke-width="2" points="87.9615,-471.7313 77.9856,-468.1628 83.5588,-477.1734 87.9615,-471.7313"/>
</g>
<!-- 12 -->
<g id="node13" class="node">
<title>12</title>
<path fill="none" stroke="#566bd8" stroke-width="2" d="M396.5344,-324C396.5344,-324 284.5344,-324 284.5344,-324 278.5344,-324 272.5344,-318 272.5344,-312 272.5344,-312 272.5344,-300 272.5344,-300 272.5344,-294 278.5344,-288 284.5344,-288 284.5344,-288 396.5344,-288 396.5344,-288 402.5344,-288 408.5344,-294 408.5344,-300 408.5344,-300 408.5344,-312 408.5344,-312 408.5344,-318 402.5344,-324 396.5344,-324"/>
<text text-anchor="middle" x="340.5344" y="-303.5" font-family="sans" font-size="10.00" fill="#000000">quantify_counts_sample</text>
</g>
<!-- 2&#45;&gt;12 -->
<g id="edge30" class="edge">
<title>2&#45;&gt;12</title>
<path fill="none" stroke="#c0c0c0" stroke-width="2" d="M160.9081,-503.9555C195.7124,-465.5997 277.1427,-375.8602 317.3012,-331.6038"/>
<polygon fill="#c0c0c0" stroke="#c0c0c0" stroke-width="2" points="319.9414,-333.9027 324.0694,-324.1451 314.7575,-329.1987 319.9414,-333.9027"/>
</g>
<!-- 3&#45;&gt;1 -->
<g id="edge10" class="edge">
<title>3&#45;&gt;1</title>
<path fill="none" stroke="#c0c0c0" stroke-width="2" d="M393.91,-431.837C377.4936,-421.9352 357.3986,-409.059 340.5344,-396 322.0122,-381.6571 275.042,-344.405 263.5344,-324 252.8455,-305.0468 248.1524,-280.7727 246.1006,-262.2114"/>
<polygon fill="#c0c0c0" stroke="#c0c0c0" stroke-width="2" points="249.5657,-261.6673 245.1725,-252.0263 242.5946,-262.3027 249.5657,-261.6673"/>
</g>
<!-- 3&#45;&gt;5 -->
<g id="edge15" class="edge">
<title>3&#45;&gt;5</title>
<path fill="none" stroke="#c0c0c0" stroke-width="2" d="M386.2905,-433.7871C362.9846,-423.7313 333.0886,-410.078 307.5344,-396 270.686,-375.6999 230.6261,-349.0176 203.2085,-329.9878"/>
<polygon fill="#c0c0c0" stroke="#c0c0c0" stroke-width="2" points="204.9738,-326.9516 194.771,-324.0959 200.9661,-332.6908 204.9738,-326.9516"/>
</g>
<!-- 3&#45;&gt;6 -->
<g id="edge19" class="edge">
<title>3&#45;&gt;6</title>
<path fill="none" stroke="#c0c0c0" stroke-width="2" d="M386.4825,-439.2666C347.2799,-428.4595 285.1712,-411.2504 231.5344,-396 230.0857,-395.5881 228.6182,-395.1698 227.138,-394.747"/>
<polygon fill="#c0c0c0" stroke="#c0c0c0" stroke-width="2" points="227.8239,-391.3027 217.2464,-391.9096 225.8937,-398.0313 227.8239,-391.3027"/>
</g>
<!-- 10 -->
<g id="node11" class="node">
<title>10</title>
<path fill="none" stroke="#d8d356" stroke-width="2" d="M554.5344,-324C554.5344,-324 438.5344,-324 438.5344,-324 432.5344,-324 426.5344,-318 426.5344,-312 426.5344,-312 426.5344,-300 426.5344,-300 426.5344,-294 432.5344,-288 438.5344,-288 438.5344,-288 554.5344,-288 554.5344,-288 560.5344,-288 566.5344,-294 566.5344,-300 566.5344,-300 566.5344,-312 566.5344,-312 566.5344,-318 560.5344,-324 554.5344,-324"/>
<text text-anchor="middle" x="496.5344" y="-303.5" font-family="sans" font-size="10.00" fill="#000000">quantify_support_sample</text>
</g>
<!-- 3&#45;&gt;10 -->
<g id="edge25" class="edge">
<title>3&#45;&gt;10</title>
<path fill="none" stroke="#c0c0c0" stroke-width="2" d="M451.4367,-431.7762C462.7929,-422.401 475.1852,-410.001 482.5344,-396 492.4869,-377.0392 495.8275,-352.9537 496.7664,-334.4712"/>
<polygon fill="#c0c0c0" stroke="#c0c0c0" stroke-width="2" points="500.2695,-334.4188 497.0735,-324.3175 493.2727,-334.2071 500.2695,-334.4188"/>
</g>
<!-- 11 -->
<g id="node12" class="node">
<title>11</title>
<path fill="none" stroke="#d86e56" stroke-width="2" d="M666.5344,-396C666.5344,-396 560.5344,-396 560.5344,-396 554.5344,-396 548.5344,-390 548.5344,-384 548.5344,-384 548.5344,-372 548.5344,-372 548.5344,-366 554.5344,-360 560.5344,-360 560.5344,-360 666.5344,-360 666.5344,-360 672.5344,-360 678.5344,-366 678.5344,-372 678.5344,-372 678.5344,-384 678.5344,-384 678.5344,-390 672.5344,-396 666.5344,-396"/>
<text text-anchor="middle" x="613.5344" y="-375.5" font-family="sans" font-size="10.00" fill="#000000">get_consensus_regions</text>
</g>
<!-- 3&#45;&gt;11 -->
<g id="edge27" class="edge">
<title>3&#45;&gt;11</title>
<path fill="none" stroke="#c0c0c0" stroke-width="2" d="M464.9453,-434.9064C491.6633,-424.674 527.3857,-410.9931 557.1084,-399.6099"/>
<polygon fill="#c0c0c0" stroke="#c0c0c0" stroke-width="2" points="558.4421,-402.8471 566.5289,-396.0021 555.9385,-396.3101 558.4421,-402.8471"/>
</g>
<!-- 21 -->
<g id="node22" class="node">
<title>21</title>
<path fill="none" stroke="#56d8c9" stroke-width="2" d="M923.0344,-180C923.0344,-180 844.0344,-180 844.0344,-180 838.0344,-180 832.0344,-174 832.0344,-168 832.0344,-168 832.0344,-156 832.0344,-156 832.0344,-150 838.0344,-144 844.0344,-144 844.0344,-144 923.0344,-144 923.0344,-144 929.0344,-144 935.0344,-150 935.0344,-156 935.0344,-156 935.0344,-168 935.0344,-168 935.0344,-174 929.0344,-180 923.0344,-180"/>
<text text-anchor="middle" x="883.5344" y="-159.5" font-family="sans" font-size="10.00" fill="#000000">homer_aggregate</text>
</g>
<!-- 3&#45;&gt;21 -->
<g id="edge45" class="edge">
<title>3&#45;&gt;21</title>
<path fill="none" stroke="#c0c0c0" stroke-width="2" d="M464.8686,-446.8907C577.1742,-437.1078 895.1059,-402.8057 955.5344,-324 988.3548,-281.1983 942.5001,-221.0811 910.3051,-187.4128"/>
<polygon fill="#c0c0c0" stroke="#c0c0c0" stroke-width="2" points="912.7762,-184.9339 903.2746,-180.2465 907.7793,-189.8361 912.7762,-184.9339"/>
</g>
<!-- 4 -->
<g id="node5" class="node">
<title>4</title>
<path fill="none" stroke="#61d856" stroke-width="2" d="M748.0344,-540C748.0344,-540 689.0344,-540 689.0344,-540 683.0344,-540 677.0344,-534 677.0344,-528 677.0344,-528 677.0344,-516 677.0344,-516 677.0344,-510 683.0344,-504 689.0344,-504 689.0344,-504 748.0344,-504 748.0344,-504 754.0344,-504 760.0344,-510 760.0344,-516 760.0344,-516 760.0344,-528 760.0344,-528 760.0344,-534 754.0344,-540 748.0344,-540"/>
<text text-anchor="middle" x="718.5344" y="-519.5" font-family="sans" font-size="10.00" fill="#000000">install_homer</text>
</g>
<!-- 4&#45;&gt;3 -->
<g id="edge14" class="edge">
<title>4&#45;&gt;3</title>
<path fill="none" stroke="#c0c0c0" stroke-width="2" d="M676.8658,-511.7606C623.5082,-498.6489 531.1893,-475.963 474.5235,-462.0383"/>
<polygon fill="#c0c0c0" stroke="#c0c0c0" stroke-width="2" points="475.2647,-458.6164 464.7184,-459.6288 473.5942,-465.4141 475.2647,-458.6164"/>
</g>
<!-- 19 -->
<g id="node20" class="node">
<title>19</title>
<path fill="none" stroke="#56d8b1" stroke-width="2" d="M934.5344,-324C934.5344,-324 816.5344,-324 816.5344,-324 810.5344,-324 804.5344,-318 804.5344,-312 804.5344,-312 804.5344,-300 804.5344,-300 804.5344,-294 810.5344,-288 816.5344,-288 816.5344,-288 934.5344,-288 934.5344,-288 940.5344,-288 946.5344,-294 946.5344,-300 946.5344,-300 946.5344,-312 946.5344,-312 946.5344,-318 940.5344,-324 934.5344,-324"/>
<text text-anchor="middle" x="875.5344" y="-303.5" font-family="sans" font-size="10.00" fill="#000000">homer_region_annotation</text>
</g>
<!-- 4&#45;&gt;19 -->
<g id="edge43" class="edge">
<title>4&#45;&gt;19</title>
<path fill="none" stroke="#c0c0c0" stroke-width="2" d="M731.6501,-503.9555C759.3559,-465.8379 823.9475,-376.973 856.321,-332.4337"/>
<polygon fill="#c0c0c0" stroke="#c0c0c0" stroke-width="2" points="859.2972,-334.2919 862.3456,-324.1451 853.6349,-330.1762 859.2972,-334.2919"/>
</g>
<!-- 5&#45;&gt;1 -->
<g id="edge11" class="edge">
<title>5&#45;&gt;1</title>
<path fill="none" stroke="#c0c0c0" stroke-width="2" d="M188.46,-287.8314C197.52,-279.1337 208.5153,-268.5783 218.3609,-259.1265"/>
<polygon fill="#c0c0c0" stroke="#c0c0c0" stroke-width="2" points="220.8247,-261.613 225.6148,-252.1628 215.977,-256.5633 220.8247,-261.613"/>
</g>
<!-- 6&#45;&gt;5 -->
<g id="edge16" class="edge">
<title>6&#45;&gt;5</title>
<path fill="none" stroke="#c0c0c0" stroke-width="2" d="M169.5344,-359.8314C169.5344,-352.131 169.5344,-342.9743 169.5344,-334.4166"/>
<polygon fill="#c0c0c0" stroke="#c0c0c0" stroke-width="2" points="173.0345,-334.4132 169.5344,-324.4133 166.0345,-334.4133 173.0345,-334.4132"/>
</g>
<!-- 7&#45;&gt;5 -->
<g id="edge18" class="edge">
<title>7&#45;&gt;5</title>
<path fill="none" stroke="#c0c0c0" stroke-width="2" d="M56.4238,-431.6918C58.2175,-412.1625 63.5799,-381.1847 79.5344,-360 89.5201,-346.7407 103.7949,-336.0803 118.0421,-327.848"/>
<polygon fill="#c0c0c0" stroke="#c0c0c0" stroke-width="2" points="119.7663,-330.8944 126.8708,-323.0346 116.4155,-324.7485 119.7663,-330.8944"/>
</g>
<!-- 8&#45;&gt;0 -->
<g id="edge3" class="edge">
<title>8&#45;&gt;0</title>
<path fill="none" stroke="#c0c0c0" stroke-width="2" d="M274.8963,-143.9587C292.5192,-123.1438 324.4148,-89.5393 359.5344,-72 402.2226,-50.6808 538.4733,-31.1451 605.1139,-22.5762"/>
<polygon fill="#c0c0c0" stroke="#c0c0c0" stroke-width="2" points="605.7075,-26.029 615.1867,-21.2965 604.8253,-19.0848 605.7075,-26.029"/>
</g>
<!-- 9 -->
<g id="node10" class="node">
<title>9</title>
<path fill="none" stroke="#c6d856" stroke-width="2" d="M516.5344,-180C516.5344,-180 428.5344,-180 428.5344,-180 422.5344,-180 416.5344,-174 416.5344,-168 416.5344,-168 416.5344,-156 416.5344,-156 416.5344,-150 422.5344,-144 428.5344,-144 428.5344,-144 516.5344,-144 516.5344,-144 522.5344,-144 528.5344,-150 528.5344,-156 528.5344,-156 528.5344,-168 528.5344,-168 528.5344,-174 522.5344,-180 516.5344,-180"/>
<text text-anchor="middle" x="472.5344" y="-159.5" font-family="sans" font-size="10.00" fill="#000000">quantify_aggregate</text>
</g>
<!-- 9&#45;&gt;0 -->
<g id="edge1" class="edge">
<title>9&#45;&gt;0</title>
<path fill="none" stroke="#c0c0c0" stroke-width="2" d="M471.4639,-143.8549C471.2872,-123.8837 474.1004,-91.9698 491.5344,-72 520.3239,-39.0228 570.7115,-26.1838 605.3056,-21.1855"/>
<polygon fill="#c0c0c0" stroke="#c0c0c0" stroke-width="2" points="606.0228,-24.6221 615.4933,-19.8725 605.1279,-17.6796 606.0228,-24.6221"/>
</g>
<!-- 14 -->
<g id="node15" class="node">
<title>14</title>
<path fill="none" stroke="#5692d8" stroke-width="2" d="M602.5344,-108C602.5344,-108 512.5344,-108 512.5344,-108 506.5344,-108 500.5344,-102 500.5344,-96 500.5344,-96 500.5344,-84 500.5344,-84 500.5344,-78 506.5344,-72 512.5344,-72 512.5344,-72 602.5344,-72 602.5344,-72 608.5344,-72 614.5344,-78 614.5344,-84 614.5344,-84 614.5344,-96 614.5344,-96 614.5344,-102 608.5344,-108 602.5344,-108"/>
<text text-anchor="middle" x="557.5344" y="-87.5" font-family="sans" font-size="10.00" fill="#000000">map_consensus_tss</text>
</g>
<!-- 9&#45;&gt;14 -->
<g id="edge32" class="edge">
<title>9&#45;&gt;14</title>
<path fill="none" stroke="#c0c0c0" stroke-width="2" d="M493.9835,-143.8314C504.3521,-135.0485 516.9573,-124.3712 528.1989,-114.8489"/>
<polygon fill="#c0c0c0" stroke="#c0c0c0" stroke-width="2" points="530.7239,-117.297 536.0921,-108.1628 526.1994,-111.9556 530.7239,-117.297"/>
</g>
<!-- 10&#45;&gt;9 -->
<g id="edge23" class="edge">
<title>10&#45;&gt;9</title>
<path fill="none" stroke="#c0c0c0" stroke-width="2" d="M493.4947,-287.7623C489.3832,-263.0928 482.011,-218.8598 477.1965,-189.9731"/>
<polygon fill="#c0c0c0" stroke="#c0c0c0" stroke-width="2" points="480.6458,-189.3781 475.5493,-180.0896 473.741,-190.529 480.6458,-189.3781"/>
</g>
<!-- 11&#45;&gt;10 -->
<g id="edge26" class="edge">
<title>11&#45;&gt;10</title>
<path fill="none" stroke="#c0c0c0" stroke-width="2" d="M584.0103,-359.8314C569.0453,-350.6221 550.6958,-339.3301 534.6741,-329.4706"/>
<polygon fill="#c0c0c0" stroke="#c0c0c0" stroke-width="2" points="536.3999,-326.423 526.049,-324.1628 532.7312,-332.3847 536.3999,-326.423"/>
</g>
<!-- 11&#45;&gt;12 -->
<g id="edge29" class="edge">
<title>11&#45;&gt;12</title>
<path fill="none" stroke="#c0c0c0" stroke-width="2" d="M548.4909,-360.8457C509.5075,-350.5643 459.695,-337.427 418.5958,-326.5876"/>
<polygon fill="#c0c0c0" stroke="#c0c0c0" stroke-width="2" points="419.4512,-323.1936 408.8892,-324.0277 417.666,-329.9622 419.4512,-323.1936"/>
</g>
<!-- 16 -->
<g id="node17" class="node">
<title>16</title>
<path fill="none" stroke="#b6d856" stroke-width="2" d="M714.0344,-252C714.0344,-252 647.0344,-252 647.0344,-252 641.0344,-252 635.0344,-246 635.0344,-240 635.0344,-240 635.0344,-228 635.0344,-228 635.0344,-222 641.0344,-216 647.0344,-216 647.0344,-216 714.0344,-216 714.0344,-216 720.0344,-216 726.0344,-222 726.0344,-228 726.0344,-228 726.0344,-240 726.0344,-240 726.0344,-246 720.0344,-252 714.0344,-252"/>
<text text-anchor="middle" x="680.5344" y="-231.5" font-family="sans" font-size="10.00" fill="#000000">uropa_gencode</text>
</g>
<!-- 11&#45;&gt;16 -->
<g id="edge37" class="edge">
<title>11&#45;&gt;16</title>
<path fill="none" stroke="#c0c0c0" stroke-width="2" d="M620.6176,-359.8511C627.908,-341.5166 639.8242,-312.4804 651.5344,-288 655.7834,-279.1173 660.7495,-269.6011 665.3592,-261.0697"/>
<polygon fill="#c0c0c0" stroke="#c0c0c0" stroke-width="2" points="668.4414,-262.7282 670.1706,-252.2754 662.3004,-259.3684 668.4414,-262.7282"/>
</g>
<!-- 17 -->
<g id="node18" class="node">
<title>17</title>
<path fill="none" stroke="#d8bc56" stroke-width="2" d="M736.0344,-324C736.0344,-324 673.0344,-324 673.0344,-324 667.0344,-324 661.0344,-318 661.0344,-312 661.0344,-312 661.0344,-300 661.0344,-300 661.0344,-294 667.0344,-288 673.0344,-288 673.0344,-288 736.0344,-288 736.0344,-288 742.0344,-288 748.0344,-294 748.0344,-300 748.0344,-300 748.0344,-312 748.0344,-312 748.0344,-318 742.0344,-324 736.0344,-324"/>
<text text-anchor="middle" x="704.5344" y="-303.5" font-family="sans" font-size="10.00" fill="#000000">uropa_prepare</text>
</g>
<!-- 11&#45;&gt;17 -->
<g id="edge39" class="edge">
<title>11&#45;&gt;17</title>
<path fill="none" stroke="#c0c0c0" stroke-width="2" d="M636.4975,-359.8314C647.7059,-350.9632 661.3553,-340.1637 673.4783,-330.5718"/>
<polygon fill="#c0c0c0" stroke="#c0c0c0" stroke-width="2" points="675.908,-333.1125 681.5786,-324.1628 671.5646,-327.6229 675.908,-333.1125"/>
</g>
<!-- 18 -->
<g id="node19" class="node">
<title>18</title>
<path fill="none" stroke="#d85656" stroke-width="2" d="M797.0344,-252C797.0344,-252 756.0344,-252 756.0344,-252 750.0344,-252 744.0344,-246 744.0344,-240 744.0344,-240 744.0344,-228 744.0344,-228 744.0344,-222 750.0344,-216 756.0344,-216 756.0344,-216 797.0344,-216 797.0344,-216 803.0344,-216 809.0344,-222 809.0344,-228 809.0344,-228 809.0344,-240 809.0344,-240 809.0344,-246 803.0344,-252 797.0344,-252"/>
<text text-anchor="middle" x="776.5344" y="-231.5" font-family="sans" font-size="10.00" fill="#000000">uropa_reg</text>
</g>
<!-- 11&#45;&gt;18 -->
<g id="edge40" class="edge">
<title>11&#45;&gt;18</title>
<path fill="none" stroke="#c0c0c0" stroke-width="2" d="M678.7928,-367.5876C706.4613,-359.9521 736.8053,-346.7593 756.5344,-324 771.2188,-307.0601 775.8218,-281.7159 776.9792,-262.2346"/>
<polygon fill="#c0c0c0" stroke="#c0c0c0" stroke-width="2" points="780.4816,-262.2142 777.3098,-252.1053 773.4853,-261.9858 780.4816,-262.2142"/>
</g>
<!-- 11&#45;&gt;19 -->
<g id="edge42" class="edge">
<title>11&#45;&gt;19</title>
<path fill="none" stroke="#c0c0c0" stroke-width="2" d="M678.635,-360.1097C715.3627,-350.0166 761.4351,-337.3555 799.7775,-326.8187"/>
<polygon fill="#c0c0c0" stroke="#c0c0c0" stroke-width="2" points="801.1441,-330.073 809.8592,-324.0481 799.2892,-323.3232 801.1441,-330.073"/>
</g>
<!-- 20 -->
<g id="node21" class="node">
<title>20</title>
<path fill="none" stroke="#56c1d8" stroke-width="2" d="M604.5344,-252C604.5344,-252 512.5344,-252 512.5344,-252 506.5344,-252 500.5344,-246 500.5344,-240 500.5344,-240 500.5344,-228 500.5344,-228 500.5344,-222 506.5344,-216 512.5344,-216 512.5344,-216 604.5344,-216 604.5344,-216 610.5344,-216 616.5344,-222 616.5344,-228 616.5344,-228 616.5344,-240 616.5344,-240 616.5344,-246 610.5344,-252 604.5344,-252"/>
<text text-anchor="middle" x="558.5344" y="-231.5" font-family="sans" font-size="10.00" fill="#000000">bedtools_annotation</text>
</g>
<!-- 11&#45;&gt;20 -->
<g id="edge44" class="edge">
<title>11&#45;&gt;20</title>
<path fill="none" stroke="#c0c0c0" stroke-width="2" d="M606.5686,-359.7623C597.1049,-334.9846 580.1033,-290.4714 569.0737,-261.5939"/>
<polygon fill="#c0c0c0" stroke="#c0c0c0" stroke-width="2" points="572.2813,-260.1826 565.4436,-252.0896 565.7421,-262.6803 572.2813,-260.1826"/>
</g>
<!-- 12&#45;&gt;9 -->
<g id="edge24" class="edge">
<title>12&#45;&gt;9</title>
<path fill="none" stroke="#c0c0c0" stroke-width="2" d="M357.2523,-287.7623C380.461,-262.4436 422.5594,-216.5182 448.953,-187.7251"/>
<polygon fill="#c0c0c0" stroke="#c0c0c0" stroke-width="2" points="451.775,-189.8262 455.9522,-180.0896 446.6149,-185.0961 451.775,-189.8262"/>
</g>
<!-- 13 -->
<g id="node14" class="node">
<title>13</title>
<path fill="none" stroke="#56d8a2" stroke-width="2" d="M461.5344,-396C461.5344,-396 361.5344,-396 361.5344,-396 355.5344,-396 349.5344,-390 349.5344,-384 349.5344,-384 349.5344,-372 349.5344,-372 349.5344,-366 355.5344,-360 361.5344,-360 361.5344,-360 461.5344,-360 461.5344,-360 467.5344,-360 473.5344,-366 473.5344,-372 473.5344,-372 473.5344,-384 473.5344,-384 473.5344,-390 467.5344,-396 461.5344,-396"/>
<text text-anchor="middle" x="411.5344" y="-375.5" font-family="sans" font-size="10.00" fill="#000000">get_promoter_regions</text>
</g>
<!-- 13&#45;&gt;12 -->
<g id="edge28" class="edge">
<title>13&#45;&gt;12</title>
<path fill="none" stroke="#c0c0c0" stroke-width="2" d="M393.6181,-359.8314C385.1902,-351.2848 374.9933,-340.9443 365.7984,-331.6198"/>
<polygon fill="#c0c0c0" stroke="#c0c0c0" stroke-width="2" points="368.2055,-329.0761 358.6919,-324.4133 363.2212,-333.9912 368.2055,-329.0761"/>
</g>
<!-- 14&#45;&gt;0 -->
<g id="edge7" class="edge">
<title>14&#45;&gt;0</title>
<path fill="none" stroke="#c0c0c0" stroke-width="2" d="M578.9835,-71.8314C589.3521,-63.0485 601.9573,-52.3712 613.1989,-42.8489"/>
<polygon fill="#c0c0c0" stroke="#c0c0c0" stroke-width="2" points="615.7239,-45.297 621.0921,-36.1628 611.1994,-39.9556 615.7239,-45.297"/>
</g>
<!-- 15 -->
<g id="node16" class="node">
<title>15</title>
<path fill="none" stroke="#9fd856" stroke-width="2" d="M729.5344,-180C729.5344,-180 593.5344,-180 593.5344,-180 587.5344,-180 581.5344,-174 581.5344,-168 581.5344,-168 581.5344,-156 581.5344,-156 581.5344,-150 587.5344,-144 593.5344,-144 593.5344,-144 729.5344,-144 729.5344,-144 735.5344,-144 741.5344,-150 741.5344,-156 741.5344,-156 741.5344,-168 741.5344,-168 741.5344,-174 735.5344,-180 729.5344,-180"/>
<text text-anchor="middle" x="661.5344" y="-159.5" font-family="sans" font-size="10.00" fill="#000000">region_annotation_aggregate</text>
</g>
<!-- 15&#45;&gt;0 -->
<g id="edge5" class="edge">
<title>15&#45;&gt;0</title>
<path fill="none" stroke="#c0c0c0" stroke-width="2" d="M659.128,-143.7623C655.8873,-119.201 650.0878,-75.2474 646.2755,-46.3541"/>
<polygon fill="#c0c0c0" stroke="#c0c0c0" stroke-width="2" points="649.6993,-45.5458 644.9212,-36.0896 642.7595,-46.4616 649.6993,-45.5458"/>
</g>
<!-- 15&#45;&gt;14 -->
<g id="edge31" class="edge">
<title>15&#45;&gt;14</title>
<path fill="none" stroke="#c0c0c0" stroke-width="2" d="M635.2908,-143.8314C622.2349,-134.7927 606.2809,-123.7476 592.2297,-114.0198"/>
<polygon fill="#c0c0c0" stroke="#c0c0c0" stroke-width="2" points="593.9837,-110.9773 583.7696,-108.1628 589.9992,-116.7326 593.9837,-110.9773"/>
</g>
<!-- 16&#45;&gt;15 -->
<g id="edge34" class="edge">
<title>16&#45;&gt;15</title>
<path fill="none" stroke="#c0c0c0" stroke-width="2" d="M675.7399,-215.8314C673.6855,-208.0463 671.2383,-198.7729 668.9588,-190.1347"/>
<polygon fill="#c0c0c0" stroke="#c0c0c0" stroke-width="2" points="672.3292,-189.1892 666.3934,-180.4133 665.5609,-190.9753 672.3292,-189.1892"/>
</g>
<!-- 17&#45;&gt;16 -->
<g id="edge38" class="edge">
<title>17&#45;&gt;16</title>
<path fill="none" stroke="#c0c0c0" stroke-width="2" d="M698.4782,-287.8314C695.8831,-280.0463 692.792,-270.7729 689.9126,-262.1347"/>
<polygon fill="#c0c0c0" stroke="#c0c0c0" stroke-width="2" points="693.1549,-260.7933 686.6721,-252.4133 686.5141,-263.0069 693.1549,-260.7933"/>
</g>
<!-- 17&#45;&gt;18 -->
<g id="edge41" class="edge">
<title>17&#45;&gt;18</title>
<path fill="none" stroke="#c0c0c0" stroke-width="2" d="M722.703,-287.8314C731.2496,-279.2848 741.59,-268.9443 750.9145,-259.6198"/>
<polygon fill="#c0c0c0" stroke="#c0c0c0" stroke-width="2" points="753.5249,-261.9592 758.1211,-252.4133 748.5751,-257.0095 753.5249,-261.9592"/>
</g>
<!-- 18&#45;&gt;15 -->
<g id="edge36" class="edge">
<title>18&#45;&gt;15</title>
<path fill="none" stroke="#c0c0c0" stroke-width="2" d="M747.515,-215.8314C732.8058,-206.6221 714.7699,-195.3301 699.0222,-185.4706"/>
<polygon fill="#c0c0c0" stroke="#c0c0c0" stroke-width="2" points="700.8776,-182.5029 690.5444,-180.1628 697.163,-188.436 700.8776,-182.5029"/>
</g>
<!-- 19&#45;&gt;15 -->
<g id="edge35" class="edge">
<title>19&#45;&gt;15</title>
<path fill="none" stroke="#c0c0c0" stroke-width="2" d="M868.2302,-287.8826C859.1911,-267.6321 841.9474,-235.1746 817.5344,-216 798.2199,-200.8299 774.3561,-189.7652 751.153,-181.7571"/>
<polygon fill="#c0c0c0" stroke="#c0c0c0" stroke-width="2" points="752.2065,-178.4192 741.6136,-178.6184 750.0187,-185.0686 752.2065,-178.4192"/>
</g>
<!-- 20&#45;&gt;15 -->
<g id="edge33" class="edge">
<title>20&#45;&gt;15</title>
<path fill="none" stroke="#c0c0c0" stroke-width="2" d="M584.5256,-215.8314C597.456,-206.7927 613.2565,-195.7476 627.1727,-186.0198"/>
<polygon fill="#c0c0c0" stroke="#c0c0c0" stroke-width="2" points="629.3606,-188.7608 635.5514,-180.1628 625.3501,-183.0235 629.3606,-188.7608"/>
</g>
<!-- 21&#45;&gt;0 -->
<g id="edge8" class="edge">
<title>21&#45;&gt;0</title>
<path fill="none" stroke="#c0c0c0" stroke-width="2" d="M831.9057,-156.7982C792.3669,-150.6122 738.2177,-137.1544 699.5344,-108 678.3371,-92.0243 662.9925,-65.6755 653.6004,-45.6049"/>
<polygon fill="#c0c0c0" stroke="#c0c0c0" stroke-width="2" points="656.7348,-44.0397 649.4683,-36.3294 650.3406,-46.8883 656.7348,-44.0397"/>
</g>
<!-- 22 -->
<g id="node23" class="node">
<title>22</title>
<path fill="none" stroke="#d87d56" stroke-width="2" d="M768.0344,-108C768.0344,-108 721.0344,-108 721.0344,-108 715.0344,-108 709.0344,-102 709.0344,-96 709.0344,-96 709.0344,-84 709.0344,-84 709.0344,-78 715.0344,-72 721.0344,-72 721.0344,-72 768.0344,-72 768.0344,-72 774.0344,-72 780.0344,-78 780.0344,-84 780.0344,-84 780.0344,-96 780.0344,-96 780.0344,-102 774.0344,-108 768.0344,-108"/>
<text text-anchor="middle" x="744.5344" y="-87.5" font-family="sans" font-size="10.00" fill="#000000">env_export</text>
</g>
<!-- 22&#45;&gt;0 -->
<g id="edge2" class="edge">
<title>22&#45;&gt;0</title>
<path fill="none" stroke="#c0c0c0" stroke-width="2" d="M718.7955,-71.8314C705.9906,-62.7927 690.3435,-51.7476 676.5624,-42.0198"/>
<polygon fill="#c0c0c0" stroke="#c0c0c0" stroke-width="2" points="678.4531,-39.0703 668.265,-36.1628 674.4163,-44.7891 678.4531,-39.0703"/>
</g>
<!-- 23 -->
<g id="node24" class="node">
<title>23</title>
<path fill="none" stroke="#5682d8" stroke-width="2" d="M869.0344,-108C869.0344,-108 810.0344,-108 810.0344,-108 804.0344,-108 798.0344,-102 798.0344,-96 798.0344,-96 798.0344,-84 798.0344,-84 798.0344,-78 804.0344,-72 810.0344,-72 810.0344,-72 869.0344,-72 869.0344,-72 875.0344,-72 881.0344,-78 881.0344,-84 881.0344,-84 881.0344,-96 881.0344,-96 881.0344,-102 875.0344,-108 869.0344,-108"/>
<text text-anchor="middle" x="839.5344" y="-87.5" font-family="sans" font-size="10.00" fill="#000000">config_export</text>
</g>
<!-- 23&#45;&gt;0 -->
<g id="edge9" class="edge">
<title>23&#45;&gt;0</title>
<path fill="none" stroke="#c0c0c0" stroke-width="2" d="M797.7557,-74.7307C762.5991,-61.8815 712.8184,-43.6876 679.1895,-31.3968"/>
<polygon fill="#c0c0c0" stroke="#c0c0c0" stroke-width="2" points="680.3263,-28.0859 669.7324,-27.9404 677.9233,-34.6605 680.3263,-28.0859"/>
</g>
<!-- 24 -->
<g id="node25" class="node">
<title>24</title>
<path fill="none" stroke="#d89556" stroke-width="2" d="M968.0344,-108C968.0344,-108 911.0344,-108 911.0344,-108 905.0344,-108 899.0344,-102 899.0344,-96 899.0344,-96 899.0344,-84 899.0344,-84 899.0344,-78 905.0344,-72 911.0344,-72 911.0344,-72 968.0344,-72 968.0344,-72 974.0344,-72 980.0344,-78 980.0344,-84 980.0344,-84 980.0344,-96 980.0344,-96 980.0344,-102 974.0344,-108 968.0344,-108"/>
<text text-anchor="middle" x="939.5344" y="-87.5" font-family="sans" font-size="10.00" fill="#000000">annot_export</text>
</g>
<!-- 24&#45;&gt;0 -->
<g id="edge6" class="edge">
<title>24&#45;&gt;0</title>
<path fill="none" stroke="#c0c0c0" stroke-width="2" d="M899.0201,-74.9153C895.8264,-73.8793 892.6373,-72.8936 889.5344,-72 816.2453,-50.894 728.6595,-33.5626 679.9447,-24.6046"/>
<polygon fill="#c0c0c0" stroke="#c0c0c0" stroke-width="2" points="680.3354,-21.1183 669.8701,-22.7698 679.0811,-28.005 680.3354,-21.1183"/>
</g>
</g>
</svg>
