<?xml version="1.0" encoding="UTF-8" standalone="no"?>
<!DOCTYPE svg PUBLIC "-//W3C//DTD SVG 1.1//EN"
 "http://www.w3.org/Graphics/SVG/1.1/DTD/svg11.dtd">
<!-- Generated by graphviz version 2.40.1 (0)
 -->
<!-- Title: snakemake_dag Pages: 1 -->
<svg width="812pt" height="476pt"
 viewBox="0.00 0.00 812.41 476.00" xmlns="http://www.w3.org/2000/svg" xmlns:xlink="http://www.w3.org/1999/xlink">
<g id="graph0" class="graph" transform="scale(1 1) rotate(0) translate(4 472)">
<title>snakemake_dag</title>
<polygon fill="#ffffff" stroke="transparent" points="-4,4 -4,-472 808.4064,-472 808.4064,4 -4,4"/>
<!-- 0 -->
<g id="node1" class="node">
<title>0</title>
<path fill="none" stroke="#d6d856" stroke-width="2" d="M449.9064,-36C449.9064,-36 419.9064,-36 419.9064,-36 413.9064,-36 407.9064,-30 407.9064,-24 407.9064,-24 407.9064,-12 407.9064,-12 407.9064,-6 413.9064,0 419.9064,0 419.9064,0 449.9064,0 449.9064,0 455.9064,0 461.9064,-6 461.9064,-12 461.9064,-12 461.9064,-24 461.9064,-24 461.9064,-30 455.9064,-36 449.9064,-36"/>
<text text-anchor="middle" x="434.9064" y="-15.5" font-family="sans" font-size="10.00" fill="#000000">all</text>
</g>
<!-- 1 -->
<g id="node2" class="node">
<title>1</title>
<path fill="none" stroke="#56a2d8" stroke-width="2" d="M67.9064,-252C67.9064,-252 37.9064,-252 37.9064,-252 31.9064,-252 25.9064,-246 25.9064,-240 25.9064,-240 25.9064,-228 25.9064,-228 25.9064,-222 31.9064,-216 37.9064,-216 37.9064,-216 67.9064,-216 67.9064,-216 73.9064,-216 79.9064,-222 79.9064,-228 79.9064,-228 79.9064,-240 79.9064,-240 79.9064,-246 73.9064,-252 67.9064,-252"/>
<text text-anchor="middle" x="52.9064" y="-231.5" font-family="sans" font-size="10.00" fill="#000000">multiqc</text>
</g>
<!-- 1&#45;&gt;0 -->
<g id="edge2" class="edge">
<title>1&#45;&gt;0</title>
<path fill="none" stroke="#c0c0c0" stroke-width="2" d="M52.1618,-215.9213C52.3184,-196.0095 55.5857,-164.1487 72.9064,-144 116.4754,-93.3174 314.5488,-44.5953 397.8364,-25.9616"/>
<polygon fill="#c0c0c0" stroke="#c0c0c0" stroke-width="2" points="398.6336,-29.3699 407.6394,-23.7891 397.1189,-22.5358 398.6336,-29.3699"/>
</g>
<!-- 2 -->
<g id="node3" class="node">
<title>2</title>
<path fill="none" stroke="#d8bc56" stroke-width="2" d="M221.9064,-468C221.9064,-468 191.9064,-468 191.9064,-468 185.9064,-468 179.9064,-462 179.9064,-456 179.9064,-456 179.9064,-444 179.9064,-444 179.9064,-438 185.9064,-432 191.9064,-432 191.9064,-432 221.9064,-432 221.9064,-432 227.9064,-432 233.9064,-438 233.9064,-444 233.9064,-444 233.9064,-456 233.9064,-456 233.9064,-462 227.9064,-468 221.9064,-468"/>
<text text-anchor="middle" x="206.9064" y="-447.5" font-family="sans" font-size="10.00" fill="#000000">align</text>
</g>
<!-- 2&#45;&gt;1 -->
<g id="edge8" class="edge">
<title>2&#45;&gt;1</title>
<path fill="none" stroke="#c0c0c0" stroke-width="2" d="M179.6326,-443.0753C132.8207,-429.4841 38.9359,-394.3172 4.9064,-324 -2.0634,-309.5979 -.7797,-302.9555 4.9064,-288 8.9336,-277.4076 16.0964,-267.5662 23.6801,-259.2649"/>
<polygon fill="#c0c0c0" stroke="#c0c0c0" stroke-width="2" points="26.199,-261.695 30.6852,-252.0968 21.1927,-256.8025 26.199,-261.695"/>
</g>
<!-- 3 -->
<g id="node4" class="node">
<title>3</title>
<path fill="none" stroke="#bed856" stroke-width="2" d="M343.9064,-396C343.9064,-396 289.9064,-396 289.9064,-396 283.9064,-396 277.9064,-390 277.9064,-384 277.9064,-384 277.9064,-372 277.9064,-372 277.9064,-366 283.9064,-360 289.9064,-360 289.9064,-360 343.9064,-360 343.9064,-360 349.9064,-360 355.9064,-366 355.9064,-372 355.9064,-372 355.9064,-384 355.9064,-384 355.9064,-390 349.9064,-396 343.9064,-396"/>
<text text-anchor="middle" x="316.9064" y="-375.5" font-family="sans" font-size="10.00" fill="#000000">peak_calling</text>
</g>
<!-- 2&#45;&gt;3 -->
<g id="edge13" class="edge">
<title>2&#45;&gt;3</title>
<path fill="none" stroke="#c0c0c0" stroke-width="2" d="M234.0974,-432.2022C248.1379,-423.0121 265.4595,-411.6744 280.6251,-401.7478"/>
<polygon fill="#c0c0c0" stroke="#c0c0c0" stroke-width="2" points="282.814,-404.4982 289.2642,-396.0931 278.9803,-398.6413 282.814,-404.4982"/>
</g>
<!-- 5 -->
<g id="node6" class="node">
<title>5</title>
<path fill="none" stroke="#d8a456" stroke-width="2" d="M154.9064,-396C154.9064,-396 116.9064,-396 116.9064,-396 110.9064,-396 104.9064,-390 104.9064,-384 104.9064,-384 104.9064,-372 104.9064,-372 104.9064,-366 110.9064,-360 116.9064,-360 116.9064,-360 154.9064,-360 154.9064,-360 160.9064,-360 166.9064,-366 166.9064,-372 166.9064,-372 166.9064,-384 166.9064,-384 166.9064,-390 160.9064,-396 154.9064,-396"/>
<text text-anchor="middle" x="135.9064" y="-375.5" font-family="sans" font-size="10.00" fill="#000000">coverage</text>
</g>
<!-- 2&#45;&gt;5 -->
<g id="edge15" class="edge">
<title>2&#45;&gt;5</title>
<path fill="none" stroke="#c0c0c0" stroke-width="2" d="M188.9901,-431.8314C180.5622,-423.2848 170.3654,-412.9443 161.1704,-403.6198"/>
<polygon fill="#c0c0c0" stroke="#c0c0c0" stroke-width="2" points="163.5776,-401.0761 154.064,-396.4133 158.5933,-405.9912 163.5776,-401.0761"/>
</g>
<!-- 12 -->
<g id="node13" class="node">
<title>12</title>
<path fill="none" stroke="#70d856" stroke-width="2" d="M221.9064,-252C221.9064,-252 109.9064,-252 109.9064,-252 103.9064,-252 97.9064,-246 97.9064,-240 97.9064,-240 97.9064,-228 97.9064,-228 97.9064,-222 103.9064,-216 109.9064,-216 109.9064,-216 221.9064,-216 221.9064,-216 227.9064,-216 233.9064,-222 233.9064,-228 233.9064,-228 233.9064,-240 233.9064,-240 233.9064,-246 227.9064,-252 221.9064,-252"/>
<text text-anchor="middle" x="165.9064" y="-231.5" font-family="sans" font-size="10.00" fill="#000000">quantify_counts_sample</text>
</g>
<!-- 2&#45;&gt;12 -->
<g id="edge25" class="edge">
<title>2&#45;&gt;12</title>
<path fill="none" stroke="#c0c0c0" stroke-width="2" d="M214.8994,-431.8287C227.2742,-400.8603 247.5079,-336.503 225.9064,-288 220.8731,-276.6983 212.176,-266.7696 202.9406,-258.611"/>
<polygon fill="#c0c0c0" stroke="#c0c0c0" stroke-width="2" points="205.0715,-255.8319 195.1248,-252.1828 200.6249,-261.2382 205.0715,-255.8319"/>
</g>
<!-- 3&#45;&gt;1 -->
<g id="edge9" class="edge">
<title>3&#45;&gt;1</title>
<path fill="none" stroke="#c0c0c0" stroke-width="2" d="M303.5347,-359.9642C287.389,-339.4766 258.3313,-306.4972 225.9064,-288 173.8927,-258.328 150.1799,-272.6133 89.7652,-251.8438"/>
<polygon fill="#c0c0c0" stroke="#c0c0c0" stroke-width="2" points="90.7563,-248.4802 80.1622,-248.3574 88.3674,-255.06 90.7563,-248.4802"/>
</g>
<!-- 6 -->
<g id="node7" class="node">
<title>6</title>
<path fill="none" stroke="#568ad8" stroke-width="2" d="M205.4064,-324C205.4064,-324 144.4064,-324 144.4064,-324 138.4064,-324 132.4064,-318 132.4064,-312 132.4064,-312 132.4064,-300 132.4064,-300 132.4064,-294 138.4064,-288 144.4064,-288 144.4064,-288 205.4064,-288 205.4064,-288 211.4064,-288 217.4064,-294 217.4064,-300 217.4064,-300 217.4064,-312 217.4064,-312 217.4064,-318 211.4064,-324 205.4064,-324"/>
<text text-anchor="middle" x="174.9064" y="-303.5" font-family="sans" font-size="10.00" fill="#000000">symlink_stats</text>
</g>
<!-- 3&#45;&gt;6 -->
<g id="edge17" class="edge">
<title>3&#45;&gt;6</title>
<path fill="none" stroke="#c0c0c0" stroke-width="2" d="M281.0738,-359.8314C262.4907,-350.4089 239.6076,-338.8062 219.85,-328.7883"/>
<polygon fill="#c0c0c0" stroke="#c0c0c0" stroke-width="2" points="221.2294,-325.5635 210.7276,-324.1628 218.0637,-331.8069 221.2294,-325.5635"/>
</g>
<!-- 9 -->
<g id="node10" class="node">
<title>9</title>
<path fill="none" stroke="#59d856" stroke-width="2" d="M379.9064,-252C379.9064,-252 263.9064,-252 263.9064,-252 257.9064,-252 251.9064,-246 251.9064,-240 251.9064,-240 251.9064,-228 251.9064,-228 251.9064,-222 257.9064,-216 263.9064,-216 263.9064,-216 379.9064,-216 379.9064,-216 385.9064,-216 391.9064,-222 391.9064,-228 391.9064,-228 391.9064,-240 391.9064,-240 391.9064,-246 385.9064,-252 379.9064,-252"/>
<text text-anchor="middle" x="321.9064" y="-231.5" font-family="sans" font-size="10.00" fill="#000000">quantify_support_sample</text>
</g>
<!-- 3&#45;&gt;9 -->
<g id="edge21" class="edge">
<title>3&#45;&gt;9</title>
<path fill="none" stroke="#c0c0c0" stroke-width="2" d="M317.5397,-359.7623C318.3925,-335.201 319.9187,-291.2474 320.9219,-262.3541"/>
<polygon fill="#c0c0c0" stroke="#c0c0c0" stroke-width="2" points="324.4291,-262.2051 321.2783,-252.0896 317.4333,-261.9621 324.4291,-262.2051"/>
</g>
<!-- 10 -->
<g id="node11" class="node">
<title>10</title>
<path fill="none" stroke="#56d873" stroke-width="2" d="M470.9064,-324C470.9064,-324 364.9064,-324 364.9064,-324 358.9064,-324 352.9064,-318 352.9064,-312 352.9064,-312 352.9064,-300 352.9064,-300 352.9064,-294 358.9064,-288 364.9064,-288 364.9064,-288 470.9064,-288 470.9064,-288 476.9064,-288 482.9064,-294 482.9064,-300 482.9064,-300 482.9064,-312 482.9064,-312 482.9064,-318 476.9064,-324 470.9064,-324"/>
<text text-anchor="middle" x="417.9064" y="-303.5" font-family="sans" font-size="10.00" fill="#000000">get_consensus_regions</text>
</g>
<!-- 3&#45;&gt;10 -->
<g id="edge22" class="edge">
<title>3&#45;&gt;10</title>
<path fill="none" stroke="#c0c0c0" stroke-width="2" d="M342.393,-359.8314C355.0723,-350.7927 370.566,-339.7476 384.212,-330.0198"/>
<polygon fill="#c0c0c0" stroke="#c0c0c0" stroke-width="2" points="386.3169,-332.8176 392.428,-324.1628 382.2535,-327.1176 386.3169,-332.8176"/>
</g>
<!-- 4 -->
<g id="node5" class="node">
<title>4</title>
<path fill="none" stroke="#d86e56" stroke-width="2" d="M384.4064,-468C384.4064,-468 325.4064,-468 325.4064,-468 319.4064,-468 313.4064,-462 313.4064,-456 313.4064,-456 313.4064,-444 313.4064,-444 313.4064,-438 319.4064,-432 325.4064,-432 325.4064,-432 384.4064,-432 384.4064,-432 390.4064,-432 396.4064,-438 396.4064,-444 396.4064,-444 396.4064,-456 396.4064,-456 396.4064,-462 390.4064,-468 384.4064,-468"/>
<text text-anchor="middle" x="354.9064" y="-447.5" font-family="sans" font-size="10.00" fill="#000000">install_homer</text>
</g>
<!-- 4&#45;&gt;3 -->
<g id="edge14" class="edge">
<title>4&#45;&gt;3</title>
<path fill="none" stroke="#c0c0c0" stroke-width="2" d="M345.3174,-431.8314C341.0747,-423.7925 335.9943,-414.1666 331.3104,-405.2918"/>
<polygon fill="#c0c0c0" stroke="#c0c0c0" stroke-width="2" points="334.3875,-403.6235 326.6245,-396.4133 328.1968,-406.8908 334.3875,-403.6235"/>
</g>
<!-- 16 -->
<g id="node17" class="node">
<title>16</title>
<path fill="none" stroke="#56c1d8" stroke-width="2" d="M683.9064,-252C683.9064,-252 565.9064,-252 565.9064,-252 559.9064,-252 553.9064,-246 553.9064,-240 553.9064,-240 553.9064,-228 553.9064,-228 553.9064,-222 559.9064,-216 565.9064,-216 565.9064,-216 683.9064,-216 683.9064,-216 689.9064,-216 695.9064,-222 695.9064,-228 695.9064,-228 695.9064,-240 695.9064,-240 695.9064,-246 689.9064,-252 683.9064,-252"/>
<text text-anchor="middle" x="624.9064" y="-231.5" font-family="sans" font-size="10.00" fill="#000000">homer_region_annotation</text>
</g>
<!-- 4&#45;&gt;16 -->
<g id="edge32" class="edge">
<title>4&#45;&gt;16</title>
<path fill="none" stroke="#c0c0c0" stroke-width="2" d="M377.4621,-431.9555C425.8039,-393.282 539.4435,-302.3703 594.2643,-258.5137"/>
<polygon fill="#c0c0c0" stroke="#c0c0c0" stroke-width="2" points="596.6028,-261.1251 602.2251,-252.1451 592.2299,-255.659 596.6028,-261.1251"/>
</g>
<!-- 5&#45;&gt;1 -->
<g id="edge11" class="edge">
<title>5&#45;&gt;1</title>
<path fill="none" stroke="#c0c0c0" stroke-width="2" d="M125.6561,-359.6691C115.4308,-341.4407 99.2249,-312.706 84.9064,-288 79.8502,-279.2757 74.2685,-269.8033 69.2017,-261.2634"/>
<polygon fill="#c0c0c0" stroke="#c0c0c0" stroke-width="2" points="72.0751,-259.2477 63.955,-252.4423 66.0588,-262.8261 72.0751,-259.2477"/>
</g>
<!-- 5&#45;&gt;6 -->
<g id="edge16" class="edge">
<title>5&#45;&gt;6</title>
<path fill="none" stroke="#c0c0c0" stroke-width="2" d="M145.7478,-359.8314C150.1022,-351.7925 155.3162,-342.1666 160.1234,-333.2918"/>
<polygon fill="#c0c0c0" stroke="#c0c0c0" stroke-width="2" points="163.2472,-334.8732 164.9326,-324.4133 157.0922,-331.5392 163.2472,-334.8732"/>
</g>
<!-- 7 -->
<g id="node8" class="node">
<title>7</title>
<path fill="none" stroke="#56d8a2" stroke-width="2" d="M63.9064,-324C63.9064,-324 25.9064,-324 25.9064,-324 19.9064,-324 13.9064,-318 13.9064,-312 13.9064,-312 13.9064,-300 13.9064,-300 13.9064,-294 19.9064,-288 25.9064,-288 25.9064,-288 63.9064,-288 63.9064,-288 69.9064,-288 75.9064,-294 75.9064,-300 75.9064,-300 75.9064,-312 75.9064,-312 75.9064,-318 69.9064,-324 63.9064,-324"/>
<text text-anchor="middle" x="44.9064" y="-303.5" font-family="sans" font-size="10.00" fill="#000000">ucsc_hub</text>
</g>
<!-- 5&#45;&gt;7 -->
<g id="edge18" class="edge">
<title>5&#45;&gt;7</title>
<path fill="none" stroke="#c0c0c0" stroke-width="2" d="M112.9433,-359.8314C101.7349,-350.9632 88.0855,-340.1637 75.9625,-330.5718"/>
<polygon fill="#c0c0c0" stroke="#c0c0c0" stroke-width="2" points="77.8762,-327.6229 67.8622,-324.1628 73.5327,-333.1125 77.8762,-327.6229"/>
</g>
<!-- 6&#45;&gt;1 -->
<g id="edge10" class="edge">
<title>6&#45;&gt;1</title>
<path fill="none" stroke="#c0c0c0" stroke-width="2" d="M144.1207,-287.8314C127.2896,-277.8983 106.3529,-265.5422 88.7847,-255.1741"/>
<polygon fill="#c0c0c0" stroke="#c0c0c0" stroke-width="2" points="90.3353,-252.0251 79.9443,-249.9568 86.7775,-258.0536 90.3353,-252.0251"/>
</g>
<!-- 7&#45;&gt;1 -->
<g id="edge12" class="edge">
<title>7&#45;&gt;1</title>
<path fill="none" stroke="#c0c0c0" stroke-width="2" d="M46.9252,-287.8314C47.7808,-280.131 48.7982,-270.9743 49.749,-262.4166"/>
<polygon fill="#c0c0c0" stroke="#c0c0c0" stroke-width="2" points="53.2347,-262.7386 50.8605,-252.4133 46.2775,-261.9656 53.2347,-262.7386"/>
</g>
<!-- 8 -->
<g id="node9" class="node">
<title>8</title>
<path fill="none" stroke="#56d88a" stroke-width="2" d="M391.9064,-180C391.9064,-180 261.9064,-180 261.9064,-180 255.9064,-180 249.9064,-174 249.9064,-168 249.9064,-168 249.9064,-156 249.9064,-156 249.9064,-150 255.9064,-144 261.9064,-144 261.9064,-144 391.9064,-144 391.9064,-144 397.9064,-144 403.9064,-150 403.9064,-156 403.9064,-156 403.9064,-168 403.9064,-168 403.9064,-174 397.9064,-180 391.9064,-180"/>
<text text-anchor="middle" x="326.9064" y="-159.5" font-family="sans" font-size="10.00" fill="#000000">quantify_support_aggregate</text>
</g>
<!-- 8&#45;&gt;0 -->
<g id="edge6" class="edge">
<title>8&#45;&gt;0</title>
<path fill="none" stroke="#c0c0c0" stroke-width="2" d="M326.6353,-143.7616C327.2214,-124.2919 330.7587,-93.3647 345.9064,-72 358.8136,-53.7954 379.975,-40.5893 398.4252,-31.7951"/>
<polygon fill="#c0c0c0" stroke="#c0c0c0" stroke-width="2" points="400.0824,-34.8876 407.7683,-27.5954 397.2124,-28.503 400.0824,-34.8876"/>
</g>
<!-- 9&#45;&gt;8 -->
<g id="edge19" class="edge">
<title>9&#45;&gt;8</title>
<path fill="none" stroke="#c0c0c0" stroke-width="2" d="M323.1681,-215.8314C323.7029,-208.131 324.3388,-198.9743 324.9331,-190.4166"/>
<polygon fill="#c0c0c0" stroke="#c0c0c0" stroke-width="2" points="328.4265,-190.6317 325.6277,-180.4133 321.4433,-190.1467 328.4265,-190.6317"/>
</g>
<!-- 10&#45;&gt;9 -->
<g id="edge20" class="edge">
<title>10&#45;&gt;9</title>
<path fill="none" stroke="#c0c0c0" stroke-width="2" d="M393.6816,-287.8314C381.7437,-278.8779 367.1809,-267.9558 354.3004,-258.2955"/>
<polygon fill="#c0c0c0" stroke="#c0c0c0" stroke-width="2" points="356.2236,-255.3629 346.1235,-252.1628 352.0235,-260.9629 356.2236,-255.3629"/>
</g>
<!-- 10&#45;&gt;12 -->
<g id="edge24" class="edge">
<title>10&#45;&gt;12</title>
<path fill="none" stroke="#c0c0c0" stroke-width="2" d="M354.6415,-287.9243C319.4427,-277.8675 275.4745,-265.3052 238.8334,-254.8363"/>
<polygon fill="#c0c0c0" stroke="#c0c0c0" stroke-width="2" points="239.7742,-251.4651 229.1974,-252.0831 237.8511,-258.1958 239.7742,-251.4651"/>
</g>
<!-- 14 -->
<g id="node15" class="node">
<title>14</title>
<path fill="none" stroke="#56d8c1" stroke-width="2" d="M547.9064,-180C547.9064,-180 433.9064,-180 433.9064,-180 427.9064,-180 421.9064,-174 421.9064,-168 421.9064,-168 421.9064,-156 421.9064,-156 421.9064,-150 427.9064,-144 433.9064,-144 433.9064,-144 547.9064,-144 547.9064,-144 553.9064,-144 559.9064,-150 559.9064,-156 559.9064,-156 559.9064,-168 559.9064,-168 559.9064,-174 553.9064,-180 547.9064,-180"/>
<text text-anchor="middle" x="490.9064" y="-159.5" font-family="sans" font-size="10.00" fill="#000000">uropa_region_annotation</text>
</g>
<!-- 10&#45;&gt;14 -->
<g id="edge28" class="edge">
<title>10&#45;&gt;14</title>
<path fill="none" stroke="#c0c0c0" stroke-width="2" d="M419.3004,-287.745C421.3811,-268.8115 426.4933,-238.8368 438.9064,-216 444.6272,-205.4754 452.9559,-195.5385 461.2779,-187.1271"/>
<polygon fill="#c0c0c0" stroke="#c0c0c0" stroke-width="2" points="463.7469,-189.6085 468.5237,-180.1516 458.8921,-184.5656 463.7469,-189.6085"/>
</g>
<!-- 15 -->
<g id="node16" class="node">
<title>15</title>
<path fill="none" stroke="#56d8d8" stroke-width="2" d="M523.4064,-252C523.4064,-252 460.4064,-252 460.4064,-252 454.4064,-252 448.4064,-246 448.4064,-240 448.4064,-240 448.4064,-228 448.4064,-228 448.4064,-222 454.4064,-216 460.4064,-216 460.4064,-216 523.4064,-216 523.4064,-216 529.4064,-216 535.4064,-222 535.4064,-228 535.4064,-228 535.4064,-240 535.4064,-240 535.4064,-246 529.4064,-252 523.4064,-252"/>
<text text-anchor="middle" x="491.9064" y="-231.5" font-family="sans" font-size="10.00" fill="#000000">uropa_prepare</text>
</g>
<!-- 10&#45;&gt;15 -->
<g id="edge30" class="edge">
<title>10&#45;&gt;15</title>
<path fill="none" stroke="#c0c0c0" stroke-width="2" d="M436.5798,-287.8314C445.4313,-279.219 456.155,-268.7851 465.7959,-259.4048"/>
<polygon fill="#c0c0c0" stroke="#c0c0c0" stroke-width="2" points="468.5125,-261.645 473.2391,-252.1628 463.631,-256.6279 468.5125,-261.645"/>
</g>
<!-- 10&#45;&gt;16 -->
<g id="edge31" class="edge">
<title>10&#45;&gt;16</title>
<path fill="none" stroke="#c0c0c0" stroke-width="2" d="M469.8741,-287.9243C498.2952,-278.0387 533.6767,-265.7321 563.4601,-255.3726"/>
<polygon fill="#c0c0c0" stroke="#c0c0c0" stroke-width="2" points="564.6223,-258.6742 572.9174,-252.0831 562.3226,-252.0627 564.6223,-258.6742"/>
</g>
<!-- 11 -->
<g id="node12" class="node">
<title>11</title>
<path fill="none" stroke="#5673d8" stroke-width="2" d="M219.4064,-180C219.4064,-180 94.4064,-180 94.4064,-180 88.4064,-180 82.4064,-174 82.4064,-168 82.4064,-168 82.4064,-156 82.4064,-156 82.4064,-150 88.4064,-144 94.4064,-144 94.4064,-144 219.4064,-144 219.4064,-144 225.4064,-144 231.4064,-150 231.4064,-156 231.4064,-156 231.4064,-168 231.4064,-168 231.4064,-174 225.4064,-180 219.4064,-180"/>
<text text-anchor="middle" x="156.9064" y="-159.5" font-family="sans" font-size="10.00" fill="#000000">quantify_counts_aggregate</text>
</g>
<!-- 11&#45;&gt;0 -->
<g id="edge7" class="edge">
<title>11&#45;&gt;0</title>
<path fill="none" stroke="#c0c0c0" stroke-width="2" d="M190.8834,-143.8986C225.3256,-125.601 280.1944,-96.593 327.9064,-72 351.3235,-59.9297 377.7499,-46.5903 398.4811,-36.1895"/>
<polygon fill="#c0c0c0" stroke="#c0c0c0" stroke-width="2" points="400.2021,-39.242 407.5743,-31.6326 397.066,-32.9838 400.2021,-39.242"/>
</g>
<!-- 12&#45;&gt;11 -->
<g id="edge23" class="edge">
<title>12&#45;&gt;11</title>
<path fill="none" stroke="#c0c0c0" stroke-width="2" d="M163.6353,-215.8314C162.6728,-208.131 161.5282,-198.9743 160.4585,-190.4166"/>
<polygon fill="#c0c0c0" stroke="#c0c0c0" stroke-width="2" points="163.9215,-189.9019 159.2081,-180.4133 156.9755,-190.7702 163.9215,-189.9019"/>
</g>
<!-- 13 -->
<g id="node14" class="node">
<title>13</title>
<path fill="none" stroke="#d88d56" stroke-width="2" d="M502.9064,-108C502.9064,-108 366.9064,-108 366.9064,-108 360.9064,-108 354.9064,-102 354.9064,-96 354.9064,-96 354.9064,-84 354.9064,-84 354.9064,-78 360.9064,-72 366.9064,-72 366.9064,-72 502.9064,-72 502.9064,-72 508.9064,-72 514.9064,-78 514.9064,-84 514.9064,-84 514.9064,-96 514.9064,-96 514.9064,-102 508.9064,-108 502.9064,-108"/>
<text text-anchor="middle" x="434.9064" y="-87.5" font-family="sans" font-size="10.00" fill="#000000">region_annotation_aggregate</text>
</g>
<!-- 13&#45;&gt;0 -->
<g id="edge3" class="edge">
<title>13&#45;&gt;0</title>
<path fill="none" stroke="#c0c0c0" stroke-width="2" d="M434.9064,-71.8314C434.9064,-64.131 434.9064,-54.9743 434.9064,-46.4166"/>
<polygon fill="#c0c0c0" stroke="#c0c0c0" stroke-width="2" points="438.4065,-46.4132 434.9064,-36.4133 431.4065,-46.4133 438.4065,-46.4132"/>
</g>
<!-- 14&#45;&gt;13 -->
<g id="edge26" class="edge">
<title>14&#45;&gt;13</title>
<path fill="none" stroke="#c0c0c0" stroke-width="2" d="M476.7753,-143.8314C470.3254,-135.5386 462.5619,-125.557 455.4813,-116.4533"/>
<polygon fill="#c0c0c0" stroke="#c0c0c0" stroke-width="2" points="458.13,-114.158 449.2279,-108.4133 452.6046,-118.4556 458.13,-114.158"/>
</g>
<!-- 15&#45;&gt;14 -->
<g id="edge29" class="edge">
<title>15&#45;&gt;14</title>
<path fill="none" stroke="#c0c0c0" stroke-width="2" d="M491.6541,-215.8314C491.5471,-208.131 491.42,-198.9743 491.3011,-190.4166"/>
<polygon fill="#c0c0c0" stroke="#c0c0c0" stroke-width="2" points="494.8008,-190.3637 491.1622,-180.4133 487.8015,-190.4609 494.8008,-190.3637"/>
</g>
<!-- 16&#45;&gt;13 -->
<g id="edge27" class="edge">
<title>16&#45;&gt;13</title>
<path fill="none" stroke="#c0c0c0" stroke-width="2" d="M617.6822,-215.7356C608.9001,-195.6575 592.2981,-163.6481 568.9064,-144 552.5752,-130.2824 532.3089,-119.7199 512.5234,-111.7299"/>
<polygon fill="#c0c0c0" stroke="#c0c0c0" stroke-width="2" points="513.7664,-108.458 503.1768,-108.125 511.2474,-114.9891 513.7664,-108.458"/>
</g>
<!-- 17 -->
<g id="node18" class="node">
<title>17</title>
<path fill="none" stroke="#d85656" stroke-width="2" d="M592.4064,-108C592.4064,-108 545.4064,-108 545.4064,-108 539.4064,-108 533.4064,-102 533.4064,-96 533.4064,-96 533.4064,-84 533.4064,-84 533.4064,-78 539.4064,-72 545.4064,-72 545.4064,-72 592.4064,-72 592.4064,-72 598.4064,-72 604.4064,-78 604.4064,-84 604.4064,-84 604.4064,-96 604.4064,-96 604.4064,-102 598.4064,-108 592.4064,-108"/>
<text text-anchor="middle" x="568.9064" y="-87.5" font-family="sans" font-size="10.00" fill="#000000">env_export</text>
</g>
<!-- 17&#45;&gt;0 -->
<g id="edge1" class="edge">
<title>17&#45;&gt;0</title>
<path fill="none" stroke="#c0c0c0" stroke-width="2" d="M535.0926,-71.8314C515.5484,-61.33 490.964,-48.1205 471.0399,-37.415"/>
<polygon fill="#c0c0c0" stroke="#c0c0c0" stroke-width="2" points="472.4284,-34.1879 461.9628,-32.5378 469.1152,-40.3541 472.4284,-34.1879"/>
</g>
<!-- 18 -->
<g id="node19" class="node">
<title>18</title>
<path fill="none" stroke="#88d856" stroke-width="2" d="M693.4064,-108C693.4064,-108 634.4064,-108 634.4064,-108 628.4064,-108 622.4064,-102 622.4064,-96 622.4064,-96 622.4064,-84 622.4064,-84 622.4064,-78 628.4064,-72 634.4064,-72 634.4064,-72 693.4064,-72 693.4064,-72 699.4064,-72 705.4064,-78 705.4064,-84 705.4064,-84 705.4064,-96 705.4064,-96 705.4064,-102 699.4064,-108 693.4064,-108"/>
<text text-anchor="middle" x="663.9064" y="-87.5" font-family="sans" font-size="10.00" fill="#000000">config_export</text>
</g>
<!-- 18&#45;&gt;0 -->
<g id="edge5" class="edge">
<title>18&#45;&gt;0</title>
<path fill="none" stroke="#c0c0c0" stroke-width="2" d="M622.2098,-75.1127C619.0671,-74.043 615.9399,-72.9949 612.9064,-72 564.3829,-56.0855 507.8881,-39.2277 471.7845,-28.6643"/>
<polygon fill="#c0c0c0" stroke="#c0c0c0" stroke-width="2" points="472.7458,-25.2989 462.1657,-25.8578 470.7851,-32.0187 472.7458,-25.2989"/>
</g>
<!-- 19 -->
<g id="node20" class="node">
<title>19</title>
<path fill="none" stroke="#a7d856" stroke-width="2" d="M792.4064,-108C792.4064,-108 735.4064,-108 735.4064,-108 729.4064,-108 723.4064,-102 723.4064,-96 723.4064,-96 723.4064,-84 723.4064,-84 723.4064,-78 729.4064,-72 735.4064,-72 735.4064,-72 792.4064,-72 792.4064,-72 798.4064,-72 804.4064,-78 804.4064,-84 804.4064,-84 804.4064,-96 804.4064,-96 804.4064,-102 798.4064,-108 792.4064,-108"/>
<text text-anchor="middle" x="763.9064" y="-87.5" font-family="sans" font-size="10.00" fill="#000000">annot_export</text>
</g>
<!-- 19&#45;&gt;0 -->
<g id="edge4" class="edge">
<title>19&#45;&gt;0</title>
<path fill="none" stroke="#c0c0c0" stroke-width="2" d="M723.1415,-74.7447C720.0341,-73.7601 716.931,-72.8318 713.9064,-72 628.7257,-48.575 526.2062,-31.5004 472.2781,-23.3531"/>
<polygon fill="#c0c0c0" stroke="#c0c0c0" stroke-width="2" points="472.567,-19.8576 462.1599,-21.8435 471.5339,-26.7809 472.567,-19.8576"/>
</g>
</g>
</svg>
