<?xml version="1.0" encoding="UTF-8" standalone="no"?>
<!DOCTYPE svg PUBLIC "-//W3C//DTD SVG 1.1//EN"
 "http://www.w3.org/Graphics/SVG/1.1/DTD/svg11.dtd">
<!-- Generated by graphviz version 2.40.1 (0)
 -->
<!-- Title: snakemake_dag Pages: 1 -->
<svg width="757pt" height="476pt"
 viewBox="0.00 0.00 757.48 476.00" xmlns="http://www.w3.org/2000/svg" xmlns:xlink="http://www.w3.org/1999/xlink">
<g id="graph0" class="graph" transform="scale(1 1) rotate(0) translate(4 472)">
<title>snakemake_dag</title>
<polygon fill="#ffffff" stroke="transparent" points="-4,4 -4,-472 753.4766,-472 753.4766,4 -4,4"/>
<!-- 0 -->
<g id="node1" class="node">
<title>0</title>
<path fill="none" stroke="#56d892" stroke-width="2" d="M394.9766,-36C394.9766,-36 364.9766,-36 364.9766,-36 358.9766,-36 352.9766,-30 352.9766,-24 352.9766,-24 352.9766,-12 352.9766,-12 352.9766,-6 358.9766,0 364.9766,0 364.9766,0 394.9766,0 394.9766,0 400.9766,0 406.9766,-6 406.9766,-12 406.9766,-12 406.9766,-24 406.9766,-24 406.9766,-30 400.9766,-36 394.9766,-36"/>
<text text-anchor="middle" x="379.9766" y="-15.5" font-family="sans" font-size="10.00" fill="#000000">all</text>
</g>
<!-- 1 -->
<g id="node2" class="node">
<title>1</title>
<path fill="none" stroke="#d87556" stroke-width="2" d="M194.9766,-324C194.9766,-324 164.9766,-324 164.9766,-324 158.9766,-324 152.9766,-318 152.9766,-312 152.9766,-312 152.9766,-300 152.9766,-300 152.9766,-294 158.9766,-288 164.9766,-288 164.9766,-288 194.9766,-288 194.9766,-288 200.9766,-288 206.9766,-294 206.9766,-300 206.9766,-300 206.9766,-312 206.9766,-312 206.9766,-318 200.9766,-324 194.9766,-324"/>
<text text-anchor="middle" x="179.9766" y="-303.5" font-family="sans" font-size="10.00" fill="#000000">multiqc</text>
</g>
<!-- 1&#45;&gt;0 -->
<g id="edge6" class="edge">
<title>1&#45;&gt;0</title>
<path fill="none" stroke="#c0c0c0" stroke-width="2" d="M152.719,-300.0006C113.2149,-290.7319 43.0092,-271.9102 26.9766,-252 -3.2324,-214.4845 -9.2492,-183.7335 17.9766,-144 55.8905,-88.6683 258.5708,-42.3472 343.0103,-25.157"/>
<polygon fill="#c0c0c0" stroke="#c0c0c0" stroke-width="2" points="343.8252,-28.5633 352.9383,-23.1596 342.4444,-21.7008 343.8252,-28.5633"/>
</g>
<!-- 2 -->
<g id="node3" class="node">
<title>2</title>
<path fill="none" stroke="#d85656" stroke-width="2" d="M186.9766,-468C186.9766,-468 156.9766,-468 156.9766,-468 150.9766,-468 144.9766,-462 144.9766,-456 144.9766,-456 144.9766,-444 144.9766,-444 144.9766,-438 150.9766,-432 156.9766,-432 156.9766,-432 186.9766,-432 186.9766,-432 192.9766,-432 198.9766,-438 198.9766,-444 198.9766,-444 198.9766,-456 198.9766,-456 198.9766,-462 192.9766,-468 186.9766,-468"/>
<text text-anchor="middle" x="171.9766" y="-447.5" font-family="sans" font-size="10.00" fill="#000000">align</text>
</g>
<!-- 2&#45;&gt;1 -->
<g id="edge9" class="edge">
<title>2&#45;&gt;1</title>
<path fill="none" stroke="#c0c0c0" stroke-width="2" d="M166.7073,-431.9971C162.0933,-413.7762 156.7364,-384.8265 160.9766,-360 162.4755,-351.2245 165.2517,-341.9785 168.2279,-333.6659"/>
<polygon fill="#c0c0c0" stroke="#c0c0c0" stroke-width="2" points="171.5893,-334.6742 171.885,-324.0835 165.0494,-332.1782 171.5893,-334.6742"/>
</g>
<!-- 3 -->
<g id="node4" class="node">
<title>3</title>
<path fill="none" stroke="#d8cb56" stroke-width="2" d="M315.9766,-396C315.9766,-396 261.9766,-396 261.9766,-396 255.9766,-396 249.9766,-390 249.9766,-384 249.9766,-384 249.9766,-372 249.9766,-372 249.9766,-366 255.9766,-360 261.9766,-360 261.9766,-360 315.9766,-360 315.9766,-360 321.9766,-360 327.9766,-366 327.9766,-372 327.9766,-372 327.9766,-384 327.9766,-384 327.9766,-390 321.9766,-396 315.9766,-396"/>
<text text-anchor="middle" x="288.9766" y="-375.5" font-family="sans" font-size="10.00" fill="#000000">peak_calling</text>
</g>
<!-- 2&#45;&gt;3 -->
<g id="edge11" class="edge">
<title>2&#45;&gt;3</title>
<path fill="none" stroke="#c0c0c0" stroke-width="2" d="M199.1129,-433.3008C214.519,-423.8201 234.0453,-411.8039 250.9579,-401.3962"/>
<polygon fill="#c0c0c0" stroke="#c0c0c0" stroke-width="2" points="252.8459,-404.344 259.5281,-396.1222 249.1772,-398.3824 252.8459,-404.344"/>
</g>
<!-- 5 -->
<g id="node6" class="node">
<title>5</title>
<path fill="none" stroke="#56d8a9" stroke-width="2" d="M219.9766,-396C219.9766,-396 181.9766,-396 181.9766,-396 175.9766,-396 169.9766,-390 169.9766,-384 169.9766,-384 169.9766,-372 169.9766,-372 169.9766,-366 175.9766,-360 181.9766,-360 181.9766,-360 219.9766,-360 219.9766,-360 225.9766,-360 231.9766,-366 231.9766,-372 231.9766,-372 231.9766,-384 231.9766,-384 231.9766,-390 225.9766,-396 219.9766,-396"/>
<text text-anchor="middle" x="200.9766" y="-375.5" font-family="sans" font-size="10.00" fill="#000000">coverage</text>
</g>
<!-- 2&#45;&gt;5 -->
<g id="edge13" class="edge">
<title>2&#45;&gt;5</title>
<path fill="none" stroke="#c0c0c0" stroke-width="2" d="M179.2946,-431.8314C182.4643,-423.9617 186.2466,-414.5712 189.758,-405.8533"/>
<polygon fill="#c0c0c0" stroke="#c0c0c0" stroke-width="2" points="193.0706,-406.9968 193.5602,-396.4133 186.5775,-404.3815 193.0706,-406.9968"/>
</g>
<!-- 10 -->
<g id="node11" class="node">
<title>10</title>
<path fill="none" stroke="#c6d856" stroke-width="2" d="M159.9766,-252C159.9766,-252 47.9766,-252 47.9766,-252 41.9766,-252 35.9766,-246 35.9766,-240 35.9766,-240 35.9766,-228 35.9766,-228 35.9766,-222 41.9766,-216 47.9766,-216 47.9766,-216 159.9766,-216 159.9766,-216 165.9766,-216 171.9766,-222 171.9766,-228 171.9766,-228 171.9766,-240 171.9766,-240 171.9766,-246 165.9766,-252 159.9766,-252"/>
<text text-anchor="middle" x="103.9766" y="-231.5" font-family="sans" font-size="10.00" fill="#000000">quantify_counts_sample</text>
</g>
<!-- 2&#45;&gt;10 -->
<g id="edge19" class="edge">
<title>2&#45;&gt;10</title>
<path fill="none" stroke="#c0c0c0" stroke-width="2" d="M166.296,-431.9555C154.421,-394.235 126.9011,-306.8188 112.7411,-261.8399"/>
<polygon fill="#c0c0c0" stroke="#c0c0c0" stroke-width="2" points="116.0304,-260.6325 109.689,-252.1451 109.3534,-262.7346 116.0304,-260.6325"/>
</g>
<!-- 3&#45;&gt;1 -->
<g id="edge10" class="edge">
<title>3&#45;&gt;1</title>
<path fill="none" stroke="#c0c0c0" stroke-width="2" d="M261.4713,-359.8314C247.5532,-350.6377 230.4927,-339.3684 215.5845,-329.5208"/>
<polygon fill="#c0c0c0" stroke="#c0c0c0" stroke-width="2" points="217.3686,-326.5047 207.0956,-323.9134 213.5105,-332.3455 217.3686,-326.5047"/>
</g>
<!-- 7 -->
<g id="node8" class="node">
<title>7</title>
<path fill="none" stroke="#56d8c9" stroke-width="2" d="M321.9766,-252C321.9766,-252 205.9766,-252 205.9766,-252 199.9766,-252 193.9766,-246 193.9766,-240 193.9766,-240 193.9766,-228 193.9766,-228 193.9766,-222 199.9766,-216 205.9766,-216 205.9766,-216 321.9766,-216 321.9766,-216 327.9766,-216 333.9766,-222 333.9766,-228 333.9766,-228 333.9766,-240 333.9766,-240 333.9766,-246 327.9766,-252 321.9766,-252"/>
<text text-anchor="middle" x="263.9766" y="-231.5" font-family="sans" font-size="10.00" fill="#000000">quantify_support_sample</text>
</g>
<!-- 3&#45;&gt;7 -->
<g id="edge15" class="edge">
<title>3&#45;&gt;7</title>
<path fill="none" stroke="#c0c0c0" stroke-width="2" d="M285.8104,-359.7623C281.5275,-335.0928 273.8481,-290.8598 268.8331,-261.9731"/>
<polygon fill="#c0c0c0" stroke="#c0c0c0" stroke-width="2" points="272.2762,-261.3435 267.1172,-252.0896 265.3794,-262.541 272.2762,-261.3435"/>
</g>
<!-- 8 -->
<g id="node9" class="node">
<title>8</title>
<path fill="none" stroke="#8fd856" stroke-width="2" d="M412.9766,-324C412.9766,-324 306.9766,-324 306.9766,-324 300.9766,-324 294.9766,-318 294.9766,-312 294.9766,-312 294.9766,-300 294.9766,-300 294.9766,-294 300.9766,-288 306.9766,-288 306.9766,-288 412.9766,-288 412.9766,-288 418.9766,-288 424.9766,-294 424.9766,-300 424.9766,-300 424.9766,-312 424.9766,-312 424.9766,-318 418.9766,-324 412.9766,-324"/>
<text text-anchor="middle" x="359.9766" y="-303.5" font-family="sans" font-size="10.00" fill="#000000">get_consensus_regions</text>
</g>
<!-- 3&#45;&gt;8 -->
<g id="edge17" class="edge">
<title>3&#45;&gt;8</title>
<path fill="none" stroke="#c0c0c0" stroke-width="2" d="M306.8929,-359.8314C315.3208,-351.2848 325.5177,-340.9443 334.7126,-331.6198"/>
<polygon fill="#c0c0c0" stroke="#c0c0c0" stroke-width="2" points="337.2898,-333.9912 341.8191,-324.4133 332.3055,-329.0761 337.2898,-333.9912"/>
</g>
<!-- 4 -->
<g id="node5" class="node">
<title>4</title>
<path fill="none" stroke="#59d856" stroke-width="2" d="M428.4766,-468C428.4766,-468 369.4766,-468 369.4766,-468 363.4766,-468 357.4766,-462 357.4766,-456 357.4766,-456 357.4766,-444 357.4766,-444 357.4766,-438 363.4766,-432 369.4766,-432 369.4766,-432 428.4766,-432 428.4766,-432 434.4766,-432 440.4766,-438 440.4766,-444 440.4766,-444 440.4766,-456 440.4766,-456 440.4766,-462 434.4766,-468 428.4766,-468"/>
<text text-anchor="middle" x="398.9766" y="-447.5" font-family="sans" font-size="10.00" fill="#000000">install_homer</text>
</g>
<!-- 4&#45;&gt;3 -->
<g id="edge12" class="edge">
<title>4&#45;&gt;3</title>
<path fill="none" stroke="#c0c0c0" stroke-width="2" d="M371.219,-431.8314C357.2796,-422.7074 340.2168,-411.539 325.2535,-401.7449"/>
<polygon fill="#c0c0c0" stroke="#c0c0c0" stroke-width="2" points="327.0093,-398.711 316.7254,-396.1628 323.1756,-404.5679 327.0093,-398.711"/>
</g>
<!-- 14 -->
<g id="node15" class="node">
<title>14</title>
<path fill="none" stroke="#d88d56" stroke-width="2" d="M625.9766,-252C625.9766,-252 507.9766,-252 507.9766,-252 501.9766,-252 495.9766,-246 495.9766,-240 495.9766,-240 495.9766,-228 495.9766,-228 495.9766,-222 501.9766,-216 507.9766,-216 507.9766,-216 625.9766,-216 625.9766,-216 631.9766,-216 637.9766,-222 637.9766,-228 637.9766,-228 637.9766,-240 637.9766,-240 637.9766,-246 631.9766,-252 625.9766,-252"/>
<text text-anchor="middle" x="566.9766" y="-231.5" font-family="sans" font-size="10.00" fill="#000000">homer_region_annotation</text>
</g>
<!-- 4&#45;&gt;14 -->
<g id="edge26" class="edge">
<title>4&#45;&gt;14</title>
<path fill="none" stroke="#c0c0c0" stroke-width="2" d="M413.0113,-431.9555C442.72,-393.7585 512.0636,-304.6025 546.6331,-260.1559"/>
<polygon fill="#c0c0c0" stroke="#c0c0c0" stroke-width="2" points="549.4871,-262.1874 552.8638,-252.1451 543.9616,-257.8898 549.4871,-262.1874"/>
</g>
<!-- 5&#45;&gt;1 -->
<g id="edge8" class="edge">
<title>5&#45;&gt;1</title>
<path fill="none" stroke="#c0c0c0" stroke-width="2" d="M195.6775,-359.8314C193.4068,-352.0463 190.7021,-342.7729 188.1826,-334.1347"/>
<polygon fill="#c0c0c0" stroke="#c0c0c0" stroke-width="2" points="191.5073,-333.0332 185.3472,-324.4133 184.7872,-334.9933 191.5073,-333.0332"/>
</g>
<!-- 6 -->
<g id="node7" class="node">
<title>6</title>
<path fill="none" stroke="#56c9d8" stroke-width="2" d="M336.9766,-180C336.9766,-180 206.9766,-180 206.9766,-180 200.9766,-180 194.9766,-174 194.9766,-168 194.9766,-168 194.9766,-156 194.9766,-156 194.9766,-150 200.9766,-144 206.9766,-144 206.9766,-144 336.9766,-144 336.9766,-144 342.9766,-144 348.9766,-150 348.9766,-156 348.9766,-156 348.9766,-168 348.9766,-168 348.9766,-174 342.9766,-180 336.9766,-180"/>
<text text-anchor="middle" x="271.9766" y="-159.5" font-family="sans" font-size="10.00" fill="#000000">quantify_support_aggregate</text>
</g>
<!-- 6&#45;&gt;0 -->
<g id="edge5" class="edge">
<title>6&#45;&gt;0</title>
<path fill="none" stroke="#c0c0c0" stroke-width="2" d="M271.7055,-143.7616C272.2916,-124.2919 275.8289,-93.3647 290.9766,-72 303.8838,-53.7954 325.0452,-40.5893 343.4954,-31.7951"/>
<polygon fill="#c0c0c0" stroke="#c0c0c0" stroke-width="2" points="345.1526,-34.8876 352.8385,-27.5954 342.2826,-28.503 345.1526,-34.8876"/>
</g>
<!-- 7&#45;&gt;6 -->
<g id="edge14" class="edge">
<title>7&#45;&gt;6</title>
<path fill="none" stroke="#c0c0c0" stroke-width="2" d="M265.9954,-215.8314C266.851,-208.131 267.8684,-198.9743 268.8192,-190.4166"/>
<polygon fill="#c0c0c0" stroke="#c0c0c0" stroke-width="2" points="272.3049,-190.7386 269.9307,-180.4133 265.3477,-189.9656 272.3049,-190.7386"/>
</g>
<!-- 8&#45;&gt;7 -->
<g id="edge16" class="edge">
<title>8&#45;&gt;7</title>
<path fill="none" stroke="#c0c0c0" stroke-width="2" d="M335.7518,-287.8314C323.8139,-278.8779 309.2511,-267.9558 296.3706,-258.2955"/>
<polygon fill="#c0c0c0" stroke="#c0c0c0" stroke-width="2" points="298.2938,-255.3629 288.1937,-252.1628 294.0938,-260.9629 298.2938,-255.3629"/>
</g>
<!-- 8&#45;&gt;10 -->
<g id="edge20" class="edge">
<title>8&#45;&gt;10</title>
<path fill="none" stroke="#c0c0c0" stroke-width="2" d="M295.7075,-287.9243C259.95,-277.8675 215.2839,-265.3052 178.0611,-254.8363"/>
<polygon fill="#c0c0c0" stroke="#c0c0c0" stroke-width="2" points="178.8464,-251.4214 168.2723,-252.0831 176.9511,-258.1599 178.8464,-251.4214"/>
</g>
<!-- 12 -->
<g id="node13" class="node">
<title>12</title>
<path fill="none" stroke="#afd856" stroke-width="2" d="M492.9766,-180C492.9766,-180 378.9766,-180 378.9766,-180 372.9766,-180 366.9766,-174 366.9766,-168 366.9766,-168 366.9766,-156 366.9766,-156 366.9766,-150 372.9766,-144 378.9766,-144 378.9766,-144 492.9766,-144 492.9766,-144 498.9766,-144 504.9766,-150 504.9766,-156 504.9766,-156 504.9766,-168 504.9766,-168 504.9766,-174 498.9766,-180 492.9766,-180"/>
<text text-anchor="middle" x="435.9766" y="-159.5" font-family="sans" font-size="10.00" fill="#000000">uropa_region_annotation</text>
</g>
<!-- 8&#45;&gt;12 -->
<g id="edge24" class="edge">
<title>8&#45;&gt;12</title>
<path fill="none" stroke="#c0c0c0" stroke-width="2" d="M361.2416,-287.6738C363.2171,-268.682 368.2446,-238.6606 380.9766,-216 386.9589,-205.3527 395.6661,-195.4339 404.3949,-187.0773"/>
<polygon fill="#c0c0c0" stroke="#c0c0c0" stroke-width="2" points="406.9608,-189.4747 412.0033,-180.1568 402.2507,-184.2964 406.9608,-189.4747"/>
</g>
<!-- 13 -->
<g id="node14" class="node">
<title>13</title>
<path fill="none" stroke="#5673d8" stroke-width="2" d="M465.4766,-252C465.4766,-252 402.4766,-252 402.4766,-252 396.4766,-252 390.4766,-246 390.4766,-240 390.4766,-240 390.4766,-228 390.4766,-228 390.4766,-222 396.4766,-216 402.4766,-216 402.4766,-216 465.4766,-216 465.4766,-216 471.4766,-216 477.4766,-222 477.4766,-228 477.4766,-228 477.4766,-240 477.4766,-240 477.4766,-246 471.4766,-252 465.4766,-252"/>
<text text-anchor="middle" x="433.9766" y="-231.5" font-family="sans" font-size="10.00" fill="#000000">uropa_prepare</text>
</g>
<!-- 8&#45;&gt;13 -->
<g id="edge25" class="edge">
<title>8&#45;&gt;13</title>
<path fill="none" stroke="#c0c0c0" stroke-width="2" d="M378.65,-287.8314C387.5015,-279.219 398.2253,-268.7851 407.8661,-259.4048"/>
<polygon fill="#c0c0c0" stroke="#c0c0c0" stroke-width="2" points="410.5828,-261.645 415.3093,-252.1628 405.7013,-256.6279 410.5828,-261.645"/>
</g>
<!-- 8&#45;&gt;14 -->
<g id="edge27" class="edge">
<title>8&#45;&gt;14</title>
<path fill="none" stroke="#c0c0c0" stroke-width="2" d="M411.9443,-287.9243C440.3654,-278.0387 475.7469,-265.7321 505.5303,-255.3726"/>
<polygon fill="#c0c0c0" stroke="#c0c0c0" stroke-width="2" points="506.6925,-258.6742 514.9876,-252.0831 504.3928,-252.0627 506.6925,-258.6742"/>
</g>
<!-- 9 -->
<g id="node10" class="node">
<title>9</title>
<path fill="none" stroke="#d8ac56" stroke-width="2" d="M164.4766,-180C164.4766,-180 39.4766,-180 39.4766,-180 33.4766,-180 27.4766,-174 27.4766,-168 27.4766,-168 27.4766,-156 27.4766,-156 27.4766,-150 33.4766,-144 39.4766,-144 39.4766,-144 164.4766,-144 164.4766,-144 170.4766,-144 176.4766,-150 176.4766,-156 176.4766,-156 176.4766,-168 176.4766,-168 176.4766,-174 170.4766,-180 164.4766,-180"/>
<text text-anchor="middle" x="101.9766" y="-159.5" font-family="sans" font-size="10.00" fill="#000000">quantify_counts_aggregate</text>
</g>
<!-- 9&#45;&gt;0 -->
<g id="edge1" class="edge">
<title>9&#45;&gt;0</title>
<path fill="none" stroke="#c0c0c0" stroke-width="2" d="M135.9536,-143.8986C170.3958,-125.601 225.2646,-96.593 272.9766,-72 296.3938,-59.9297 322.8201,-46.5903 343.5513,-36.1895"/>
<polygon fill="#c0c0c0" stroke="#c0c0c0" stroke-width="2" points="345.2724,-39.242 352.6445,-31.6326 342.1362,-32.9838 345.2724,-39.242"/>
</g>
<!-- 10&#45;&gt;9 -->
<g id="edge18" class="edge">
<title>10&#45;&gt;9</title>
<path fill="none" stroke="#c0c0c0" stroke-width="2" d="M103.472,-215.8314C103.2581,-208.131 103.0037,-198.9743 102.766,-190.4166"/>
<polygon fill="#c0c0c0" stroke="#c0c0c0" stroke-width="2" points="106.2645,-190.3122 102.4881,-180.4133 99.2672,-190.5066 106.2645,-190.3122"/>
</g>
<!-- 11 -->
<g id="node12" class="node">
<title>11</title>
<path fill="none" stroke="#56a9d8" stroke-width="2" d="M447.9766,-108C447.9766,-108 311.9766,-108 311.9766,-108 305.9766,-108 299.9766,-102 299.9766,-96 299.9766,-96 299.9766,-84 299.9766,-84 299.9766,-78 305.9766,-72 311.9766,-72 311.9766,-72 447.9766,-72 447.9766,-72 453.9766,-72 459.9766,-78 459.9766,-84 459.9766,-84 459.9766,-96 459.9766,-96 459.9766,-102 453.9766,-108 447.9766,-108"/>
<text text-anchor="middle" x="379.9766" y="-87.5" font-family="sans" font-size="10.00" fill="#000000">region_annotation_aggregate</text>
</g>
<!-- 11&#45;&gt;0 -->
<g id="edge7" class="edge">
<title>11&#45;&gt;0</title>
<path fill="none" stroke="#c0c0c0" stroke-width="2" d="M379.9766,-71.8314C379.9766,-64.131 379.9766,-54.9743 379.9766,-46.4166"/>
<polygon fill="#c0c0c0" stroke="#c0c0c0" stroke-width="2" points="383.4767,-46.4132 379.9766,-36.4133 376.4767,-46.4133 383.4767,-46.4132"/>
</g>
<!-- 12&#45;&gt;11 -->
<g id="edge21" class="edge">
<title>12&#45;&gt;11</title>
<path fill="none" stroke="#c0c0c0" stroke-width="2" d="M421.8455,-143.8314C415.3956,-135.5386 407.6321,-125.557 400.5515,-116.4533"/>
<polygon fill="#c0c0c0" stroke="#c0c0c0" stroke-width="2" points="403.2003,-114.158 394.2981,-108.4133 397.6748,-118.4556 403.2003,-114.158"/>
</g>
<!-- 13&#45;&gt;12 -->
<g id="edge23" class="edge">
<title>13&#45;&gt;12</title>
<path fill="none" stroke="#c0c0c0" stroke-width="2" d="M434.4813,-215.8314C434.6952,-208.131 434.9496,-198.9743 435.1873,-190.4166"/>
<polygon fill="#c0c0c0" stroke="#c0c0c0" stroke-width="2" points="438.686,-190.5066 435.4652,-180.4133 431.6887,-190.3122 438.686,-190.5066"/>
</g>
<!-- 14&#45;&gt;11 -->
<g id="edge22" class="edge">
<title>14&#45;&gt;11</title>
<path fill="none" stroke="#c0c0c0" stroke-width="2" d="M560.3888,-215.7325C552.3006,-195.6516 536.7876,-163.6397 513.9766,-144 498.0504,-130.2879 478.1947,-119.767 458.6878,-111.8172"/>
<polygon fill="#c0c0c0" stroke="#c0c0c0" stroke-width="2" points="459.7473,-108.4741 449.1584,-108.1184 457.2143,-114.9997 459.7473,-108.4741"/>
</g>
<!-- 15 -->
<g id="node16" class="node">
<title>15</title>
<path fill="none" stroke="#70d856" stroke-width="2" d="M537.4766,-108C537.4766,-108 490.4766,-108 490.4766,-108 484.4766,-108 478.4766,-102 478.4766,-96 478.4766,-96 478.4766,-84 478.4766,-84 478.4766,-78 484.4766,-72 490.4766,-72 490.4766,-72 537.4766,-72 537.4766,-72 543.4766,-72 549.4766,-78 549.4766,-84 549.4766,-84 549.4766,-96 549.4766,-96 549.4766,-102 543.4766,-108 537.4766,-108"/>
<text text-anchor="middle" x="513.9766" y="-87.5" font-family="sans" font-size="10.00" fill="#000000">env_export</text>
</g>
<!-- 15&#45;&gt;0 -->
<g id="edge3" class="edge">
<title>15&#45;&gt;0</title>
<path fill="none" stroke="#c0c0c0" stroke-width="2" d="M480.1628,-71.8314C460.6187,-61.33 436.0342,-48.1205 416.1101,-37.415"/>
<polygon fill="#c0c0c0" stroke="#c0c0c0" stroke-width="2" points="417.4986,-34.1879 407.0331,-32.5378 414.1854,-40.3541 417.4986,-34.1879"/>
</g>
<!-- 16 -->
<g id="node17" class="node">
<title>16</title>
<path fill="none" stroke="#5692d8" stroke-width="2" d="M638.4766,-108C638.4766,-108 579.4766,-108 579.4766,-108 573.4766,-108 567.4766,-102 567.4766,-96 567.4766,-96 567.4766,-84 567.4766,-84 567.4766,-78 573.4766,-72 579.4766,-72 579.4766,-72 638.4766,-72 638.4766,-72 644.4766,-72 650.4766,-78 650.4766,-84 650.4766,-84 650.4766,-96 650.4766,-96 650.4766,-102 644.4766,-108 638.4766,-108"/>
<text text-anchor="middle" x="608.9766" y="-87.5" font-family="sans" font-size="10.00" fill="#000000">config_export</text>
</g>
<!-- 16&#45;&gt;0 -->
<g id="edge2" class="edge">
<title>16&#45;&gt;0</title>
<path fill="none" stroke="#c0c0c0" stroke-width="2" d="M567.2916,-74.8083C564.4832,-73.8419 561.6921,-72.8977 558.9766,-72 510.1004,-55.8423 453.0862,-38.9801 416.774,-28.4872"/>
<polygon fill="#c0c0c0" stroke="#c0c0c0" stroke-width="2" points="417.6832,-25.1068 407.1051,-25.7024 415.7458,-31.8334 417.6832,-25.1068"/>
</g>
<!-- 17 -->
<g id="node18" class="node">
<title>17</title>
<path fill="none" stroke="#56d873" stroke-width="2" d="M737.4766,-108C737.4766,-108 680.4766,-108 680.4766,-108 674.4766,-108 668.4766,-102 668.4766,-96 668.4766,-96 668.4766,-84 668.4766,-84 668.4766,-78 674.4766,-72 680.4766,-72 680.4766,-72 737.4766,-72 737.4766,-72 743.4766,-72 749.4766,-78 749.4766,-84 749.4766,-84 749.4766,-96 749.4766,-96 749.4766,-102 743.4766,-108 737.4766,-108"/>
<text text-anchor="middle" x="708.9766" y="-87.5" font-family="sans" font-size="10.00" fill="#000000">annot_export</text>
</g>
<!-- 17&#45;&gt;0 -->
<g id="edge4" class="edge">
<title>17&#45;&gt;0</title>
<path fill="none" stroke="#c0c0c0" stroke-width="2" d="M668.2308,-74.4726C665.4531,-73.5873 662.6834,-72.7528 659.9766,-72 574.5704,-48.2453 471.6516,-31.3022 417.5039,-23.2638"/>
<polygon fill="#c0c0c0" stroke="#c0c0c0" stroke-width="2" points="417.746,-19.762 407.3443,-21.7755 416.7313,-26.6881 417.746,-19.762"/>
</g>
</g>
</svg>
